<svg width="52" height="52" viewBox="0 0 52 52" fill="none" xmlns="http://www.w3.org/2000/svg">
<path d="M0 26C0 11.6406 11.6406 0 26 0C40.3594 0 52 11.6406 52 26C52 40.3594 40.3594 52 26 52C11.6406 52 0 40.3594 0 26Z" fill="#F5EFEB"/>
<path d="M23.4673 19C23.4673 19 17 21 17 27.6216M17 27.6216C17 32.6932 19.9906 34.0878 22.9812 32.186C26.9687 29.6502 22.4488 23.5 17 27.6216Z" stroke="#9C8881" stroke-width="2" stroke-linecap="round"/>
<path d="M33.9673 19C33.9673 19 27.5 21 27.5 27.6216M27.5 27.6216C27.5 32.6932 30.4906 34.0878 33.4812 32.186C37.4687 29.6502 32.9488 23.5 27.5 27.6216Z" stroke="#9C8881" stroke-width="2" stroke-linecap="round"/>
</svg>
