<svg width="52" height="52" viewBox="0 0 52 52" fill="none" xmlns="http://www.w3.org/2000/svg">
<rect width="52" height="52" rx="26" fill="#F5EFEB"/>
<path d="M22 21V29C22 29.5304 22.2107 30.0391 22.5858 30.4142C22.9609 30.7893 23.4696 31 24 31H30M22 21V19C22 18.4696 22.2107 17.9609 22.5858 17.5858C22.9609 17.2107 23.4696 17 24 17H28.586C28.8512 17.0001 29.1055 17.1055 29.293 17.293L33.707 21.707C33.8946 21.8945 33.9999 22.1488 34 22.414V29C34 29.5304 33.7893 30.0391 33.4142 30.4142C33.0391 30.7893 32.5304 31 32 31H30M22 21H20C19.4696 21 18.9609 21.2107 18.5858 21.5858C18.2107 21.9609 18 22.4696 18 23V33C18 33.5304 18.2107 34.0391 18.5858 34.4142C18.9609 34.7893 19.4696 35 20 35H28C28.5304 35 29.0391 34.7893 29.4142 34.4142C29.7893 34.0391 30 33.5304 30 33V31" stroke="#9C8881" stroke-width="2" stroke-linecap="round" stroke-linejoin="round"/>
</svg>
