<svg width="52" height="52" viewBox="0 0 52 52" fill="none" xmlns="http://www.w3.org/2000/svg">
<rect width="52" height="52" rx="26" fill="#F5EFEB"/>
<path d="M31 34H36V32C36 31.3765 35.8057 30.7686 35.4441 30.2606C35.0826 29.7527 34.5718 29.37 33.9827 29.1658C33.3937 28.9615 32.7556 28.9459 32.1573 29.121C31.5589 29.2962 31.03 29.6534 30.644 30.143M31 34L30.644 30.143M31 34V32C31 31.344 30.874 30.717 30.644 30.143M31 34H26H21M30.644 30.143C30.2726 29.215 29.6318 28.4195 28.804 27.8591C27.9762 27.2988 26.9996 26.9993 26 26.9993C25.0004 26.9993 24.0238 27.2988 23.196 27.8591C22.3682 28.4195 21.7274 29.215 21.356 30.143M21 34H16V32C16 31.3765 16.1943 30.7686 16.5559 30.2606C16.9174 29.7527 17.4282 29.37 18.0173 29.1658C18.6063 28.9615 19.2444 28.9459 19.8427 29.121C20.4411 29.2962 20.97 29.6534 21.356 30.143M21 34L21.356 30.143M21 34V32C21 31.344 21.126 30.717 21.356 30.143M29 21C29 21.7956 28.6839 22.5587 28.1213 23.1213C27.5587 23.6839 26.7956 24 26 24C25.2044 24 24.4413 23.6839 23.8787 23.1213C23.3161 22.5587 23 21.7956 23 21C23 20.2044 23.3161 19.4413 23.8787 18.8787C24.4413 18.3161 25.2044 18 26 18C26.7956 18 27.5587 18.3161 28.1213 18.8787C28.6839 19.4413 29 20.2044 29 21ZM35 24C35 24.5304 34.7893 25.0391 34.4142 25.4142C34.0391 25.7893 33.5304 26 33 26C32.4696 26 31.9609 25.7893 31.5858 25.4142C31.2107 25.0391 31 24.5304 31 24C31 23.4696 31.2107 22.9609 31.5858 22.5858C31.9609 22.2107 32.4696 22 33 22C33.5304 22 34.0391 22.2107 34.4142 22.5858C34.7893 22.9609 35 23.4696 35 24ZM21 24C21 24.5304 20.7893 25.0391 20.4142 25.4142C20.0391 25.7893 19.5304 26 19 26C18.4696 26 17.9609 25.7893 17.5858 25.4142C17.2107 25.0391 17 24.5304 17 24C17 23.4696 17.2107 22.9609 17.5858 22.5858C17.9609 22.2107 18.4696 22 19 22C19.5304 22 20.0391 22.2107 20.4142 22.5858C20.7893 22.9609 21 23.4696 21 24Z" stroke="#9C8881" stroke-width="2" stroke-linecap="round" stroke-linejoin="round"/>
</svg>
