<svg width="335" height="536" viewBox="0 0 335 536" fill="none" xmlns="http://www.w3.org/2000/svg">
<g clip-path="url(#clip0_5005_4430)">
<line x1="47" y1="158" x2="314" y2="158" stroke="#DFD8D3" stroke-width="2" stroke-dasharray="4 4"/>
<line x1="6" y1="271" x2="284" y2="271" stroke="#DFD8D3" stroke-width="2" stroke-dasharray="4 4"/>
<line x1="51" y1="387" x2="318" y2="387" stroke="#DFD8D3" stroke-width="2" stroke-dasharray="4 4"/>
<line x1="6" y1="501" x2="286" y2="501" stroke="#DFD8D3" stroke-width="2" stroke-dasharray="4 4"/>
<path d="M10 502C10 429.309 314 456.945 314 388.333C314 319.722 10 342.135 10 274.667C10 207.199 314 247.222 314 161" stroke="url(#paint0_linear_5005_4430)" stroke-width="4" stroke-linecap="round"/>
<path d="M4.74683 162.18C7.24883 162.18 9.31883 160.884 9.31883 158.364C9.31883 156.096 7.86083 155.16 5.44883 154.296C3.52283 153.594 2.83883 153.072 2.83883 151.812C2.83883 150.678 3.63083 149.904 4.89083 149.904C6.60083 149.904 7.62683 151.02 7.96883 152.928H8.63483V150.246C7.75283 149.598 6.40283 149.184 4.89083 149.184C2.37083 149.184 0.696828 150.714 0.696828 152.91C0.696828 155.034 2.06483 156.006 4.18883 156.744C6.34883 157.536 7.12283 158.094 7.12283 159.426C7.12283 160.668 6.20483 161.46 4.74683 161.46C2.92883 161.46 1.77683 160.056 1.34483 157.914H0.588828L0.750828 160.992C1.56083 161.658 3.03683 162.18 4.74683 162.18ZM13.5993 150.12H13.0593C12.2853 151.308 11.2233 152.316 9.98131 152.874V153.288H11.0973V159.39C11.0973 161.406 12.1773 162.18 13.6533 162.18C14.9493 162.18 15.8493 161.532 16.4253 160.632L16.2093 160.308C15.7593 160.65 15.3633 160.812 14.8593 160.812C14.0133 160.812 13.5993 160.344 13.5993 159.246V153.288H15.9393V152.46H13.5993V150.12ZM20.6788 160.74C19.7248 160.74 19.2928 160.074 19.2928 159.138C19.2928 158.13 19.7608 157.716 20.5168 157.428L22.0648 156.798V160.164C21.5608 160.542 21.2008 160.74 20.6788 160.74ZM24.5488 155.232C24.5488 153.126 23.2888 152.28 20.9848 152.28C18.9868 152.28 17.4388 153.054 17.4388 154.548C17.4388 155.142 17.7448 155.52 18.2308 155.682L19.7248 155.484C19.6348 155.088 19.5808 154.728 19.5808 154.368C19.5808 153.504 19.9228 152.856 20.7868 152.856C21.7228 152.856 22.0648 153.594 22.0648 154.62V156.15L19.3468 157.14C17.9968 157.644 16.8808 158.274 16.8808 159.822C16.8808 161.262 17.8528 162.144 19.3108 162.144C20.6068 162.144 21.5428 161.352 22.1188 160.596C22.2988 161.586 22.9468 162.18 23.9188 162.18C24.7648 162.18 25.4488 161.838 25.9708 161.226L25.8628 160.83C25.6648 160.92 25.4128 161.01 25.1428 161.01C24.6748 161.01 24.5488 160.614 24.5488 160.002V155.232ZM29.9023 155.502C30.8203 154.584 31.7023 154.53 32.8183 154.53H33.1603V152.586C33.0163 152.406 32.7463 152.28 32.3683 152.28C31.3063 152.28 30.7663 152.982 29.9023 154.944L29.9743 152.28H29.5603L26.3383 153.27V153.612L27.4183 154.242V160.614C27.4183 161.244 27.1303 161.352 26.2843 161.406V162H31.4323V161.406C30.3163 161.316 29.9023 161.208 29.9023 160.47V155.502ZM37.1188 150.12H36.5788C35.8048 151.308 34.7428 152.316 33.5008 152.874V153.288H34.6168V159.39C34.6168 161.406 35.6968 162.18 37.1728 162.18C38.4688 162.18 39.3688 161.532 39.9448 160.632L39.7288 160.308C39.2788 160.65 38.8828 160.812 38.3788 160.812C37.5328 160.812 37.1188 160.344 37.1188 159.246V153.288H39.4588V152.46H37.1188V150.12Z" fill="#9B5D00"/>
<path d="M3.15714 185L0.571911 175.545H1.73526L3.71112 183.246H3.80344L5.81623 175.545H7.10884L9.12163 183.246H9.21396L11.1898 175.545H12.3532L9.76793 185H8.58612L6.49947 177.466H6.4256L4.33896 185H3.15714ZM15.9448 185.148C15.2615 185.148 14.6722 184.997 14.1767 184.695C13.6842 184.391 13.3042 183.966 13.0364 183.421C12.7717 182.873 12.6394 182.236 12.6394 181.51C12.6394 180.784 12.7717 180.143 13.0364 179.589C13.3042 179.032 13.6766 178.598 14.1536 178.288C14.6337 177.974 15.1938 177.817 15.834 177.817C16.2033 177.817 16.568 177.878 16.9281 178.001C17.2882 178.125 17.6159 178.325 17.9114 178.602C18.2069 178.875 18.4423 179.239 18.6177 179.691C18.7931 180.143 18.8809 180.701 18.8809 181.362V181.824H13.415V180.882H17.7729C17.7729 180.482 17.6929 180.125 17.5328 179.811C17.3759 179.497 17.1512 179.249 16.8588 179.068C16.5695 178.886 16.2279 178.795 15.834 178.795C15.4 178.795 15.0246 178.903 14.7076 179.119C14.3936 179.331 14.152 179.608 13.9828 179.95C13.8135 180.291 13.7289 180.657 13.7289 181.048V181.676C13.7289 182.212 13.8212 182.666 14.0059 183.038C14.1936 183.407 14.4537 183.689 14.786 183.883C15.1184 184.074 15.5047 184.169 15.9448 184.169C16.231 184.169 16.4895 184.129 16.7203 184.049C16.9542 183.966 17.1558 183.843 17.3251 183.68C17.4944 183.513 17.6252 183.307 17.7175 183.061L18.7701 183.357C18.6593 183.714 18.4731 184.027 18.2115 184.298C17.9499 184.566 17.6267 184.775 17.242 184.926C16.8573 185.074 16.4249 185.148 15.9448 185.148ZM20.6859 185V175.545H21.7754V179.036H21.8677C21.9477 178.912 22.0585 178.755 22.2001 178.565C22.3448 178.371 22.551 178.198 22.8187 178.048C23.0895 177.894 23.4558 177.817 23.9174 177.817C24.5145 177.817 25.0408 177.966 25.4963 178.265C25.9518 178.563 26.3072 178.986 26.5627 179.534C26.8181 180.082 26.9458 180.728 26.9458 181.473C26.9458 182.224 26.8181 182.875 26.5627 183.426C26.3072 183.974 25.9533 184.398 25.5009 184.7C25.0485 184.998 24.5268 185.148 23.9359 185.148C23.4804 185.148 23.1157 185.072 22.8418 184.922C22.5679 184.768 22.3571 184.594 22.2093 184.4C22.0616 184.203 21.9477 184.04 21.8677 183.911H21.7385V185H20.6859ZM21.7569 181.455C21.7569 181.99 21.8354 182.462 21.9924 182.872C22.1493 183.278 22.3786 183.597 22.6802 183.827C22.9818 184.055 23.3511 184.169 23.7882 184.169C24.2437 184.169 24.6238 184.049 24.9284 183.809C25.2362 183.566 25.467 183.24 25.6209 182.83C25.7779 182.418 25.8564 181.959 25.8564 181.455C25.8564 180.956 25.7794 180.507 25.6255 180.107C25.4747 179.703 25.2454 179.385 24.9377 179.151C24.633 178.914 24.2498 178.795 23.7882 178.795C23.345 178.795 22.9726 178.908 22.671 179.132C22.3694 179.354 22.1416 179.665 21.9877 180.065C21.8339 180.462 21.7569 180.925 21.7569 181.455ZM33.6351 179.497L32.6564 179.774C32.5949 179.611 32.5041 179.453 32.3841 179.299C32.2671 179.142 32.1071 179.012 31.9039 178.911C31.7008 178.809 31.4408 178.759 31.1238 178.759C30.6898 178.759 30.3282 178.859 30.0389 179.059C29.7527 179.256 29.6096 179.506 29.6096 179.811C29.6096 180.082 29.708 180.296 29.905 180.453C30.102 180.61 30.4097 180.741 30.8283 180.845L31.8809 181.104C32.5149 181.258 32.9873 181.493 33.2981 181.81C33.609 182.124 33.7644 182.529 33.7644 183.024C33.7644 183.43 33.6474 183.794 33.4135 184.114C33.1827 184.434 32.8596 184.686 32.4441 184.871C32.0286 185.055 31.5454 185.148 30.9945 185.148C30.2712 185.148 29.6726 184.991 29.1987 184.677C28.7247 184.363 28.4247 183.904 28.2985 183.301L29.3326 183.043C29.431 183.424 29.6172 183.71 29.8912 183.901C30.1681 184.092 30.5298 184.188 30.976 184.188C31.4838 184.188 31.887 184.08 32.1855 183.864C32.4872 183.646 32.638 183.384 32.638 183.08C32.638 182.833 32.5518 182.627 32.3794 182.461C32.2071 182.292 31.9424 182.165 31.5854 182.082L30.4036 181.805C29.7542 181.652 29.2772 181.413 28.9725 181.09C28.6709 180.764 28.5201 180.356 28.5201 179.866C28.5201 179.466 28.6324 179.112 28.8571 178.805C29.0848 178.497 29.3941 178.255 29.785 178.08C30.1789 177.904 30.6252 177.817 31.1238 177.817C31.8255 177.817 32.3764 177.971 32.7765 178.278C33.1796 178.586 33.4658 178.992 33.6351 179.497ZM35.4044 185V177.909H36.4939V185H35.4044ZM35.9584 176.727C35.746 176.727 35.5629 176.655 35.409 176.51C35.2582 176.366 35.1828 176.192 35.1828 175.989C35.1828 175.786 35.2582 175.612 35.409 175.467C35.5629 175.322 35.746 175.25 35.9584 175.25C36.1707 175.25 36.3523 175.322 36.5031 175.467C36.657 175.612 36.7339 175.786 36.7339 175.989C36.7339 176.192 36.657 176.366 36.5031 176.51C36.3523 176.655 36.1707 176.727 35.9584 176.727ZM41.5732 177.909V178.832H37.8984V177.909H41.5732ZM38.9695 176.21H40.0589V182.969C40.0589 183.277 40.1036 183.507 40.1928 183.661C40.2852 183.812 40.4021 183.914 40.5437 183.966C40.6883 184.015 40.8407 184.04 41.0007 184.04C41.1207 184.04 41.2192 184.034 41.2962 184.021C41.3731 184.006 41.4347 183.994 41.4808 183.984L41.7024 184.963C41.6286 184.991 41.5254 185.018 41.3931 185.046C41.2608 185.077 41.093 185.092 40.8899 185.092C40.5821 185.092 40.2805 185.026 39.9851 184.894C39.6927 184.761 39.4496 184.56 39.2557 184.289C39.0649 184.018 38.9695 183.677 38.9695 183.264V176.21ZM46.1088 185.148C45.4256 185.148 44.8362 184.997 44.3407 184.695C43.8483 184.391 43.4682 183.966 43.2005 183.421C42.9358 182.873 42.8034 182.236 42.8034 181.51C42.8034 180.784 42.9358 180.143 43.2005 179.589C43.4682 179.032 43.8406 178.598 44.3176 178.288C44.7978 177.974 45.3579 177.817 45.998 177.817C46.3674 177.817 46.7321 177.878 47.0922 178.001C47.4522 178.125 47.78 178.325 48.0755 178.602C48.3709 178.875 48.6064 179.239 48.7818 179.691C48.9572 180.143 49.0449 180.701 49.0449 181.362V181.824H43.579V180.882H47.937C47.937 180.482 47.8569 180.125 47.6969 179.811C47.54 179.497 47.3153 179.249 47.0229 179.068C46.7336 178.886 46.392 178.795 45.998 178.795C45.5641 178.795 45.1886 178.903 44.8716 179.119C44.5577 179.331 44.3161 179.608 44.1468 179.95C43.9776 180.291 43.8929 180.657 43.8929 181.048V181.676C43.8929 182.212 43.9853 182.666 44.1699 183.038C44.3577 183.407 44.6177 183.689 44.9501 183.883C45.2825 184.074 45.6687 184.169 46.1088 184.169C46.3951 184.169 46.6536 184.129 46.8844 184.049C47.1183 183.966 47.3199 183.843 47.4892 183.68C47.6584 183.513 47.7892 183.307 47.8816 183.061L48.9341 183.357C48.8233 183.714 48.6371 184.027 48.3755 184.298C48.1139 184.566 47.7908 184.775 47.4061 184.926C47.0214 185.074 46.589 185.148 46.1088 185.148Z" fill="#5C5856"/>
<path d="M58 183.264C57.6276 183.264 57.2875 183.173 56.9798 182.992C56.672 182.807 56.4258 182.561 56.2411 182.253C56.0595 181.945 55.9688 181.605 55.9688 181.233C55.9688 180.857 56.0595 180.517 56.2411 180.213C56.4258 179.905 56.672 179.66 56.9798 179.479C57.2875 179.294 57.6276 179.202 58 179.202C58.3755 179.202 58.7156 179.294 59.0202 179.479C59.328 179.66 59.5727 179.905 59.7543 180.213C59.9389 180.517 60.0312 180.857 60.0312 181.233C60.0312 181.605 59.9389 181.945 59.7543 182.253C59.5727 182.561 59.328 182.807 59.0202 182.992C58.7156 183.173 58.3755 183.264 58 183.264Z" fill="#DFD8D3"/>
<path d="M67.1927 185V175.545H72.8987V176.561H68.3376V179.756H72.6032V180.771H68.3376V183.984H72.9726V185H67.1927ZM74.8145 185V177.909H75.8671V179.017H75.9594C76.1072 178.638 76.3457 178.345 76.675 178.135C77.0043 177.923 77.3998 177.817 77.8614 177.817C78.3292 177.817 78.7185 177.923 79.0294 178.135C79.3433 178.345 79.588 178.638 79.7634 179.017H79.8373C80.0189 178.651 80.2912 178.36 80.6544 178.145C81.0175 177.926 81.453 177.817 81.9608 177.817C82.5948 177.817 83.1134 178.015 83.5166 178.412C83.9198 178.806 84.1214 179.42 84.1214 180.254V185H83.0319V180.254C83.0319 179.731 82.8888 179.357 82.6025 179.132C82.3163 178.908 81.9793 178.795 81.5915 178.795C81.093 178.795 80.7067 178.946 80.4328 179.248C80.1589 179.546 80.0219 179.925 80.0219 180.384V185H78.914V180.143C78.914 179.74 78.7832 179.416 78.5216 179.169C78.26 178.92 77.923 178.795 77.5106 178.795C77.2274 178.795 76.9627 178.871 76.7165 179.022C76.4734 179.172 76.2764 179.382 76.1256 179.65C75.9779 179.914 75.904 180.22 75.904 180.568V185H74.8145ZM88.2 185.166C87.7507 185.166 87.3429 185.082 86.9767 184.912C86.6104 184.74 86.3196 184.492 86.1041 184.169C85.8887 183.843 85.781 183.449 85.781 182.987C85.781 182.581 85.861 182.252 86.021 181.999C86.1811 181.744 86.395 181.544 86.6627 181.399C86.9305 181.254 87.2259 181.147 87.5491 181.076C87.8753 181.002 88.2031 180.944 88.5324 180.901C88.9633 180.845 89.3126 180.804 89.5803 180.776C89.8512 180.745 90.0481 180.694 90.1713 180.624C90.2974 180.553 90.3605 180.43 90.3605 180.254V180.217C90.3605 179.762 90.2359 179.408 89.9866 179.156C89.7404 178.903 89.3664 178.777 88.8648 178.777C88.3447 178.777 87.9369 178.891 87.6414 179.119C87.346 179.346 87.1382 179.589 87.0182 179.848L85.9841 179.479C86.1688 179.048 86.415 178.712 86.7227 178.472C87.0336 178.229 87.3721 178.06 87.7384 177.964C88.1077 177.866 88.4709 177.817 88.8279 177.817C89.0556 177.817 89.3172 177.844 89.6127 177.9C89.9112 177.952 90.199 178.061 90.4759 178.228C90.756 178.394 90.9884 178.645 91.173 178.98C91.3577 179.316 91.45 179.765 91.45 180.328V185H90.3605V184.04H90.3051C90.2313 184.194 90.1082 184.358 89.9358 184.534C89.7635 184.709 89.5342 184.858 89.248 184.982C88.9617 185.105 88.6124 185.166 88.2 185.166ZM88.3662 184.188C88.7971 184.188 89.1602 184.103 89.4557 183.934C89.7542 183.764 89.9789 183.546 90.1297 183.278C90.2836 183.01 90.3605 182.729 90.3605 182.433V181.436C90.3144 181.491 90.2128 181.542 90.0558 181.588C89.902 181.632 89.7235 181.67 89.5203 181.704C89.3203 181.735 89.1249 181.762 88.934 181.787C88.7463 181.808 88.594 181.827 88.477 181.842C88.1939 181.879 87.9292 181.939 87.683 182.022C87.4398 182.102 87.2429 182.224 87.0921 182.387C86.9443 182.547 86.8705 182.766 86.8705 183.043C86.8705 183.421 87.0105 183.707 87.2906 183.901C87.5737 184.092 87.9323 184.188 88.3662 184.188ZM93.4386 185V177.909H94.5281V185H93.4386ZM93.9925 176.727C93.7802 176.727 93.5971 176.655 93.4432 176.51C93.2924 176.366 93.217 176.192 93.217 175.989C93.217 175.786 93.2924 175.612 93.4432 175.467C93.5971 175.322 93.7802 175.25 93.9925 175.25C94.2049 175.25 94.3865 175.322 94.5373 175.467C94.6912 175.612 94.7681 175.786 94.7681 175.989C94.7681 176.192 94.6912 176.366 94.5373 176.51C94.3865 176.655 94.2049 176.727 93.9925 176.727ZM97.613 175.545V185H96.5235V175.545H97.613ZM104.354 175.545V185H103.265V175.545H104.354ZM106.35 185V177.909H107.439V185H106.35ZM106.904 176.727C106.691 176.727 106.508 176.655 106.354 176.51C106.204 176.366 106.128 176.192 106.128 175.989C106.128 175.786 106.204 175.612 106.354 175.467C106.508 175.322 106.691 175.25 106.904 175.25C107.116 175.25 107.298 175.322 107.448 175.467C107.602 175.612 107.679 175.786 107.679 175.989C107.679 176.192 107.602 176.366 107.448 176.51C107.298 176.655 107.116 176.727 106.904 176.727ZM114.457 179.497L113.479 179.774C113.417 179.611 113.326 179.453 113.206 179.299C113.089 179.142 112.929 179.012 112.726 178.911C112.523 178.809 112.263 178.759 111.946 178.759C111.512 178.759 111.15 178.859 110.861 179.059C110.575 179.256 110.432 179.506 110.432 179.811C110.432 180.082 110.53 180.296 110.727 180.453C110.924 180.61 111.232 180.741 111.651 180.845L112.703 181.104C113.337 181.258 113.81 181.493 114.12 181.81C114.431 182.124 114.587 182.529 114.587 183.024C114.587 183.43 114.47 183.794 114.236 184.114C114.005 184.434 113.682 184.686 113.266 184.871C112.851 185.055 112.368 185.148 111.817 185.148C111.094 185.148 110.495 184.991 110.021 184.677C109.547 184.363 109.247 183.904 109.121 183.301L110.155 183.043C110.253 183.424 110.44 183.71 110.713 183.901C110.99 184.092 111.352 184.188 111.798 184.188C112.306 184.188 112.709 184.08 113.008 183.864C113.309 183.646 113.46 183.384 113.46 183.08C113.46 182.833 113.374 182.627 113.202 182.461C113.029 182.292 112.765 182.165 112.408 182.082L111.226 181.805C110.576 181.652 110.099 181.413 109.795 181.09C109.493 180.764 109.342 180.356 109.342 179.866C109.342 179.466 109.455 179.112 109.679 178.805C109.907 178.497 110.216 178.255 110.607 178.08C111.001 177.904 111.447 177.817 111.946 177.817C112.648 177.817 113.199 177.971 113.599 178.278C114.002 178.586 114.288 178.992 114.457 179.497ZM119.31 177.909V178.832H115.636V177.909H119.31ZM116.707 176.21H117.796V182.969C117.796 183.277 117.841 183.507 117.93 183.661C118.022 183.812 118.139 183.914 118.281 183.966C118.426 184.015 118.578 184.04 118.738 184.04C118.858 184.04 118.957 184.034 119.033 184.021C119.11 184.006 119.172 183.994 119.218 183.984L119.44 184.963C119.366 184.991 119.263 185.018 119.13 185.046C118.998 185.077 118.83 185.092 118.627 185.092C118.319 185.092 118.018 185.026 117.722 184.894C117.43 184.761 117.187 184.56 116.993 184.289C116.802 184.018 116.707 183.677 116.707 183.264V176.21Z" fill="#5C5856"/>
<circle cx="315" cy="157" r="11.5" fill="#9B5D00" stroke="#FDFBF9" stroke-width="3"/>
<path d="M8.88279 390.938C8.39679 391.316 7.80279 391.424 7.10079 391.424C4.52679 391.424 3.33879 388.634 3.33879 385.502C3.33879 382.424 4.47279 379.922 7.08279 379.922C8.88279 379.922 9.92679 381.056 10.3588 383.144H11.0428L11.0248 380.228C9.98079 379.544 8.61279 379.184 7.01079 379.184C3.35679 379.184 0.548789 381.812 0.548789 385.988C0.548789 389.48 2.78079 392.18 6.77679 392.18C8.63079 392.18 10.1968 391.694 11.3668 390.938V387.95C11.3668 386.96 11.5468 386.834 12.8068 386.69V386.078H7.44279V386.69C8.72079 386.834 8.88279 386.96 8.88279 387.95V390.938ZM16.9599 385.502C17.8779 384.584 18.7599 384.53 19.8759 384.53H20.2179V382.586C20.0739 382.406 19.8039 382.28 19.4259 382.28C18.3639 382.28 17.8239 382.982 16.9599 384.944L17.0319 382.28H16.6179L13.3959 383.27V383.612L14.4759 384.242V390.614C14.4759 391.244 14.1879 391.352 13.3419 391.406V392H18.4899V391.406C17.3739 391.316 16.9599 391.208 16.9599 390.47V385.502ZM25.3708 391.532C23.9308 391.532 23.3008 389.48 23.3008 386.816C23.3008 384.458 23.9128 382.946 25.2448 382.946C26.6848 382.946 27.2968 384.98 27.2968 387.644C27.2968 390.002 26.7028 391.532 25.3708 391.532ZM25.2808 392.18C27.9628 392.18 29.9608 390.092 29.9608 387.032C29.9608 384.188 28.0888 382.28 25.3348 382.28C22.6528 382.28 20.6548 384.386 20.6548 387.446C20.6548 390.308 22.5268 392.18 25.2808 392.18ZM41.0328 388.976L39.3048 384.152C39.2508 383.954 39.2328 383.81 39.2328 383.684C39.2328 383.216 39.6288 383.162 40.3848 383.054V382.46H35.8128V383.054C36.3888 383.216 36.5508 383.36 36.6948 383.738L37.2528 385.25L35.7048 389.102L33.7968 384.152C33.7068 383.954 33.6888 383.792 33.6888 383.648C33.6888 383.252 34.0308 383.144 34.7148 383.054V382.46H30.0168V383.054C30.6648 383.234 30.7728 383.36 30.9348 383.738L34.4988 392.126H35.2548L37.6488 386.312L39.8088 392.126H40.5828L43.9848 383.738C44.1468 383.36 44.2728 383.234 44.9028 383.054V382.46H41.8968V383.054C42.6348 383.144 43.0128 383.234 43.0128 383.666C43.0128 383.792 42.9768 383.972 42.9228 384.152L41.0328 388.976Z" fill="#0055B0"/>
<path d="M8.87491 408.5H7.73003C7.66232 408.171 7.54383 407.881 7.37456 407.632C7.20836 407.383 7.00524 407.174 6.76518 407.004C6.5282 406.832 6.26506 406.703 5.97576 406.616C5.68646 406.53 5.38485 406.487 5.07093 406.487C4.49849 406.487 3.97991 406.632 3.51518 406.921C3.05353 407.21 2.68575 407.637 2.41184 408.2C2.14101 408.763 2.00559 409.454 2.00559 410.273C2.00559 411.091 2.14101 411.782 2.41184 412.346C2.68575 412.909 3.05353 413.335 3.51518 413.624C3.97991 413.914 4.49849 414.058 5.07093 414.058C5.38485 414.058 5.68646 414.015 5.97576 413.929C6.26506 413.843 6.5282 413.715 6.76518 413.546C7.00524 413.373 7.20836 413.163 7.37456 412.913C7.54383 412.661 7.66232 412.372 7.73003 412.045H8.87491C8.78874 412.529 8.63178 412.961 8.40403 413.343C8.17628 413.724 7.89314 414.049 7.5546 414.317C7.21606 414.581 6.83597 414.783 6.41433 414.922C5.99577 415.06 5.54797 415.129 5.07093 415.129C4.26459 415.129 3.5475 414.932 2.91966 414.538C2.29181 414.144 1.79785 413.584 1.43777 412.858C1.07768 412.132 0.897639 411.27 0.897639 410.273C0.897639 409.276 1.07768 408.414 1.43777 407.688C1.79785 406.961 2.29181 406.401 2.91966 406.007C3.5475 405.613 4.26459 405.416 5.07093 405.416C5.54797 405.416 5.99577 405.485 6.41433 405.624C6.83597 405.762 7.21606 405.966 7.5546 406.233C7.89314 406.498 8.17628 406.821 8.40403 407.203C8.63178 407.581 8.78874 408.014 8.87491 408.5ZM13.4579 415.148C12.8178 415.148 12.2561 414.995 11.7729 414.691C11.2928 414.386 10.9173 413.96 10.6465 413.412C10.3787 412.864 10.2449 412.224 10.2449 411.491C10.2449 410.753 10.3787 410.108 10.6465 409.557C10.9173 409.006 11.2928 408.578 11.7729 408.274C12.2561 407.969 12.8178 407.817 13.4579 407.817C14.0981 407.817 14.6582 407.969 15.1383 408.274C15.6215 408.578 15.997 409.006 16.2647 409.557C16.5356 410.108 16.671 410.753 16.671 411.491C16.671 412.224 16.5356 412.864 16.2647 413.412C15.997 413.96 15.6215 414.386 15.1383 414.691C14.6582 414.995 14.0981 415.148 13.4579 415.148ZM13.4579 414.169C13.9442 414.169 14.3443 414.044 14.6582 413.795C14.9721 413.546 15.2045 413.218 15.3553 412.812C15.5061 412.406 15.5815 411.965 15.5815 411.491C15.5815 411.018 15.5061 410.576 15.3553 410.167C15.2045 409.757 14.9721 409.426 14.6582 409.174C14.3443 408.922 13.9442 408.795 13.4579 408.795C12.9717 408.795 12.5716 408.922 12.2576 409.174C11.9437 409.426 11.7114 409.757 11.5605 410.167C11.4097 410.576 11.3343 411.018 11.3343 411.491C11.3343 411.965 11.4097 412.406 11.5605 412.812C11.7114 413.218 11.9437 413.546 12.2576 413.795C12.5716 414.044 12.9717 414.169 13.4579 414.169ZM22.8028 412.101V407.909H23.8923V415H22.8028V413.8H22.729C22.5628 414.16 22.3042 414.466 21.9534 414.718C21.6025 414.968 21.1594 415.092 20.6238 415.092C20.1807 415.092 19.7867 414.995 19.442 414.801C19.0973 414.605 18.8265 414.309 18.6295 413.915C18.4326 413.518 18.3341 413.018 18.3341 412.415V407.909H19.4236V412.341C19.4236 412.858 19.5682 413.27 19.8575 413.578C20.1499 413.886 20.5223 414.04 20.9747 414.04C21.2455 414.04 21.521 413.971 21.801 413.832C22.0842 413.694 22.3212 413.481 22.512 413.195C22.7059 412.909 22.8028 412.544 22.8028 412.101ZM25.8878 415V407.909H26.9403V408.98H27.0142C27.1435 408.629 27.3774 408.345 27.7159 408.126C28.0545 407.908 28.4361 407.798 28.8608 407.798C28.9408 407.798 29.0408 407.8 29.1609 407.803C29.2809 407.806 29.3717 407.811 29.4332 407.817V408.925C29.3963 408.915 29.3117 408.902 29.1793 408.883C29.0501 408.862 28.9131 408.851 28.7685 408.851C28.4238 408.851 28.116 408.923 27.8452 409.068C27.5774 409.209 27.3651 409.406 27.2081 409.659C27.0542 409.908 26.9773 410.193 26.9773 410.513V415H25.8878ZM35.7474 409.497L34.7687 409.774C34.7072 409.611 34.6164 409.453 34.4964 409.299C34.3794 409.142 34.2194 409.012 34.0162 408.911C33.8131 408.809 33.5531 408.759 33.2361 408.759C32.8021 408.759 32.4405 408.859 32.1512 409.059C31.865 409.256 31.7219 409.506 31.7219 409.811C31.7219 410.082 31.8203 410.296 32.0173 410.453C32.2143 410.61 32.522 410.741 32.9406 410.845L33.9932 411.104C34.6272 411.258 35.0996 411.493 35.4104 411.81C35.7213 412.124 35.8767 412.529 35.8767 413.024C35.8767 413.43 35.7597 413.794 35.5258 414.114C35.295 414.434 34.9719 414.686 34.5564 414.871C34.1409 415.055 33.6577 415.148 33.1068 415.148C32.3836 415.148 31.7849 414.991 31.311 414.677C30.837 414.363 30.537 413.904 30.4108 413.301L31.4449 413.043C31.5434 413.424 31.7296 413.71 32.0035 413.901C32.2805 414.092 32.6421 414.188 33.0883 414.188C33.5961 414.188 33.9993 414.08 34.2979 413.864C34.5995 413.646 34.7503 413.384 34.7503 413.08C34.7503 412.833 34.6641 412.627 34.4917 412.461C34.3194 412.292 34.0547 412.165 33.6977 412.082L32.5159 411.805C31.8665 411.652 31.3895 411.413 31.0848 411.09C30.7832 410.764 30.6324 410.356 30.6324 409.866C30.6324 409.466 30.7447 409.112 30.9694 408.805C31.1971 408.497 31.5064 408.255 31.8973 408.08C32.2912 407.904 32.7375 407.817 33.2361 407.817C33.9378 407.817 34.4887 407.971 34.8888 408.278C35.2919 408.586 35.5782 408.992 35.7474 409.497ZM40.4897 415.148C39.8065 415.148 39.2171 414.997 38.7216 414.695C38.2292 414.391 37.8491 413.966 37.5813 413.421C37.3166 412.873 37.1843 412.236 37.1843 411.51C37.1843 410.784 37.3166 410.143 37.5813 409.589C37.8491 409.032 38.2215 408.598 38.6985 408.288C39.1786 407.974 39.7388 407.817 40.3789 407.817C40.7482 407.817 41.1129 407.878 41.473 408.001C41.8331 408.125 42.1609 408.325 42.4563 408.602C42.7518 408.875 42.9872 409.239 43.1626 409.691C43.3381 410.143 43.4258 410.701 43.4258 411.362V411.824H37.9599V410.882H42.3178C42.3178 410.482 42.2378 410.125 42.0778 409.811C41.9208 409.497 41.6961 409.249 41.4038 409.068C41.1145 408.886 40.7728 408.795 40.3789 408.795C39.945 408.795 39.5695 408.903 39.2525 409.119C38.9386 409.331 38.697 409.608 38.5277 409.95C38.3584 410.291 38.2738 410.657 38.2738 411.048V411.676C38.2738 412.212 38.3661 412.666 38.5508 413.038C38.7385 413.407 38.9986 413.689 39.331 413.883C39.6634 414.074 40.0496 414.169 40.4897 414.169C40.7759 414.169 41.0344 414.129 41.2653 414.049C41.4992 413.966 41.7008 413.843 41.87 413.68C42.0393 413.513 42.1701 413.307 42.2624 413.061L43.315 413.357C43.2042 413.714 43.018 414.027 42.7564 414.298C42.4948 414.566 42.1716 414.775 41.7869 414.926C41.4022 415.074 40.9698 415.148 40.4897 415.148ZM50.1058 409.497L49.1271 409.774C49.0656 409.611 48.9748 409.453 48.8548 409.299C48.7378 409.142 48.5778 409.012 48.3746 408.911C48.1715 408.809 47.9115 408.759 47.5945 408.759C47.1605 408.759 46.7989 408.859 46.5096 409.059C46.2234 409.256 46.0803 409.506 46.0803 409.811C46.0803 410.082 46.1787 410.296 46.3757 410.453C46.5727 410.61 46.8804 410.741 47.299 410.845L48.3516 411.104C48.9856 411.258 49.458 411.493 49.7688 411.81C50.0797 412.124 50.2351 412.529 50.2351 413.024C50.2351 413.43 50.1181 413.794 49.8842 414.114C49.6534 414.434 49.3303 414.686 48.9148 414.871C48.4993 415.055 48.0161 415.148 47.4652 415.148C46.742 415.148 46.1433 414.991 45.6694 414.677C45.1954 414.363 44.8954 413.904 44.7692 413.301L45.8033 413.043C45.9018 413.424 46.0879 413.71 46.3619 413.901C46.6388 414.092 47.0005 414.188 47.4467 414.188C47.9545 414.188 48.3577 414.08 48.6562 413.864C48.9579 413.646 49.1087 413.384 49.1087 413.08C49.1087 412.833 49.0225 412.627 48.8501 412.461C48.6778 412.292 48.4131 412.165 48.0561 412.082L46.8743 411.805C46.2249 411.652 45.7479 411.413 45.4432 411.09C45.1416 410.764 44.9908 410.356 44.9908 409.866C44.9908 409.466 45.1031 409.112 45.3278 408.805C45.5555 408.497 45.8648 408.255 46.2557 408.08C46.6496 407.904 47.0959 407.817 47.5945 407.817C48.2962 407.817 48.8471 407.971 49.2472 408.278C49.6503 408.586 49.9366 408.992 50.1058 409.497Z" fill="#5C5856"/>
<path d="M59 413.264C58.6276 413.264 58.2875 413.173 57.9798 412.992C57.672 412.807 57.4258 412.561 57.2411 412.253C57.0595 411.945 56.9688 411.605 56.9688 411.233C56.9688 410.857 57.0595 410.517 57.2411 410.213C57.4258 409.905 57.672 409.66 57.9798 409.479C58.2875 409.294 58.6276 409.202 59 409.202C59.3755 409.202 59.7156 409.294 60.0202 409.479C60.328 409.66 60.5727 409.905 60.7543 410.213C60.9389 410.517 61.0312 410.857 61.0312 411.233C61.0312 411.605 60.9389 411.945 60.7543 412.253C60.5727 412.561 60.328 412.807 60.0202 412.992C59.7156 413.173 59.3755 413.264 59 413.264Z" fill="#DFD8D3"/>
<path d="M69.8803 415L67.2951 405.545H68.4584L70.4343 413.246H70.5266L72.5394 405.545H73.832L75.8448 413.246H75.9371L77.913 405.545H79.0763L76.4911 415H75.3093L73.2226 407.466H73.1487L71.0621 415H69.8803ZM82.6679 415.148C81.9847 415.148 81.3953 414.997 80.8998 414.695C80.4074 414.391 80.0273 413.966 79.7595 413.421C79.4949 412.873 79.3625 412.236 79.3625 411.51C79.3625 410.784 79.4949 410.143 79.7595 409.589C80.0273 409.032 80.3997 408.598 80.8767 408.288C81.3568 407.974 81.917 407.817 82.5571 407.817C82.9264 407.817 83.2911 407.878 83.6512 408.001C84.0113 408.125 84.3391 408.325 84.6345 408.602C84.93 408.875 85.1654 409.239 85.3409 409.691C85.5163 410.143 85.604 410.701 85.604 411.362V411.824H80.1381V410.882H84.496C84.496 410.482 84.416 410.125 84.256 409.811C84.099 409.497 83.8744 409.249 83.582 409.068C83.2927 408.886 82.9511 408.795 82.5571 408.795C82.1232 408.795 81.7477 408.903 81.4307 409.119C81.1168 409.331 80.8752 409.608 80.7059 409.95C80.5367 410.291 80.452 410.657 80.452 411.048V411.676C80.452 412.212 80.5443 412.666 80.729 413.038C80.9167 413.407 81.1768 413.689 81.5092 413.883C81.8416 414.074 82.2278 414.169 82.6679 414.169C82.9541 414.169 83.2127 414.129 83.4435 414.049C83.6774 413.966 83.879 413.843 84.0483 413.68C84.2175 413.513 84.3483 413.307 84.4407 413.061L85.4932 413.357C85.3824 413.714 85.1962 414.027 84.9346 414.298C84.673 414.566 84.3499 414.775 83.9652 414.926C83.5804 415.074 83.148 415.148 82.6679 415.148ZM87.409 415V405.545H88.4985V409.036H88.5909C88.6709 408.912 88.7817 408.755 88.9233 408.565C89.0679 408.371 89.2741 408.198 89.5419 408.048C89.8127 407.894 90.1789 407.817 90.6406 407.817C91.2376 407.817 91.7639 407.966 92.2194 408.265C92.6749 408.563 93.0304 408.986 93.2858 409.534C93.5413 410.082 93.669 410.728 93.669 411.473C93.669 412.224 93.5413 412.875 93.2858 413.426C93.0304 413.974 92.6764 414.398 92.224 414.7C91.7716 414.998 91.25 415.148 90.659 415.148C90.2036 415.148 89.8389 415.072 89.5649 414.922C89.291 414.768 89.0802 414.594 88.9325 414.4C88.7848 414.203 88.6709 414.04 88.5909 413.911H88.4616V415H87.409ZM88.4801 411.455C88.4801 411.99 88.5585 412.462 88.7155 412.872C88.8725 413.278 89.1018 413.597 89.4034 413.827C89.705 414.055 90.0743 414.169 90.5113 414.169C90.9668 414.169 91.3469 414.049 91.6516 413.809C91.9594 413.566 92.1902 413.24 92.3441 412.83C92.501 412.418 92.5795 411.959 92.5795 411.455C92.5795 410.956 92.5026 410.507 92.3487 410.107C92.1979 409.703 91.9686 409.385 91.6608 409.151C91.3561 408.914 90.973 408.795 90.5113 408.795C90.0681 408.795 89.6957 408.908 89.3941 409.132C89.0925 409.354 88.8648 409.665 88.7109 410.065C88.557 410.462 88.4801 410.925 88.4801 411.455ZM95.3355 415V407.909H96.425V415H95.3355ZM95.8895 406.727C95.6772 406.727 95.494 406.655 95.3402 406.51C95.1893 406.366 95.1139 406.192 95.1139 405.989C95.1139 405.786 95.1893 405.612 95.3402 405.467C95.494 405.322 95.6772 405.25 95.8895 405.25C96.1019 405.25 96.2835 405.322 96.4343 405.467C96.5881 405.612 96.6651 405.786 96.6651 405.989C96.6651 406.192 96.5881 406.366 96.4343 406.51C96.2835 406.655 96.1019 406.727 95.8895 406.727ZM99.51 410.734V415H98.4205V407.909H99.4731V409.017H99.5654C99.7316 408.657 99.9839 408.368 100.322 408.149C100.661 407.928 101.098 407.817 101.634 407.817C102.114 407.817 102.534 407.915 102.894 408.112C103.254 408.306 103.534 408.602 103.734 408.999C103.934 409.393 104.034 409.891 104.034 410.494V415H102.945V410.568C102.945 410.011 102.8 409.577 102.511 409.266C102.221 408.952 101.824 408.795 101.32 408.795C100.972 408.795 100.661 408.871 100.387 409.022C100.116 409.172 99.9024 409.393 99.7454 409.682C99.5885 409.971 99.51 410.322 99.51 410.734ZM108.112 415.166C107.662 415.166 107.255 415.082 106.888 414.912C106.522 414.74 106.231 414.492 106.016 414.169C105.8 413.843 105.693 413.449 105.693 412.987C105.693 412.581 105.773 412.252 105.933 411.999C106.093 411.744 106.307 411.544 106.574 411.399C106.842 411.254 107.138 411.147 107.461 411.076C107.787 411.002 108.115 410.944 108.444 410.901C108.875 410.845 109.224 410.804 109.492 410.776C109.763 410.745 109.96 410.694 110.083 410.624C110.209 410.553 110.272 410.43 110.272 410.254V410.217C110.272 409.762 110.148 409.408 109.898 409.156C109.652 408.903 109.278 408.777 108.776 408.777C108.256 408.777 107.848 408.891 107.553 409.119C107.258 409.346 107.05 409.589 106.93 409.848L105.896 409.479C106.08 409.048 106.327 408.712 106.634 408.472C106.945 408.229 107.284 408.06 107.65 407.964C108.019 407.866 108.382 407.817 108.739 407.817C108.967 407.817 109.229 407.844 109.524 407.9C109.823 407.952 110.111 408.061 110.388 408.228C110.668 408.394 110.9 408.645 111.085 408.98C111.269 409.316 111.362 409.765 111.362 410.328V415H110.272V414.04H110.217C110.143 414.194 110.02 414.358 109.847 414.534C109.675 414.709 109.446 414.858 109.16 414.982C108.873 415.105 108.524 415.166 108.112 415.166ZM108.278 414.188C108.709 414.188 109.072 414.103 109.367 413.934C109.666 413.764 109.891 413.546 110.041 413.278C110.195 413.01 110.272 412.729 110.272 412.433V411.436C110.226 411.491 110.124 411.542 109.967 411.588C109.814 411.632 109.635 411.67 109.432 411.704C109.232 411.735 109.036 411.762 108.846 411.787C108.658 411.808 108.506 411.827 108.389 411.842C108.105 411.879 107.841 411.939 107.595 412.022C107.351 412.102 107.154 412.224 107.004 412.387C106.856 412.547 106.782 412.766 106.782 413.043C106.782 413.421 106.922 413.707 107.202 413.901C107.485 414.092 107.844 414.188 108.278 414.188ZM113.35 415V407.909H114.403V408.98H114.477C114.606 408.629 114.84 408.345 115.178 408.126C115.517 407.908 115.898 407.798 116.323 407.798C116.403 407.798 116.503 407.8 116.623 407.803C116.743 407.806 116.834 407.811 116.896 407.817V408.925C116.859 408.915 116.774 408.902 116.642 408.883C116.512 408.862 116.376 408.851 116.231 408.851C115.886 408.851 115.578 408.923 115.308 409.068C115.04 409.209 114.827 409.406 114.67 409.659C114.517 409.908 114.44 410.193 114.44 410.513V415H113.35ZM123.21 409.497L122.231 409.774C122.17 409.611 122.079 409.453 121.959 409.299C121.842 409.142 121.682 409.012 121.479 408.911C121.276 408.809 121.015 408.759 120.698 408.759C120.265 408.759 119.903 408.859 119.614 409.059C119.327 409.256 119.184 409.506 119.184 409.811C119.184 410.082 119.283 410.296 119.48 410.453C119.677 410.61 119.984 410.741 120.403 410.845L121.456 411.104C122.09 411.258 122.562 411.493 122.873 411.81C123.184 412.124 123.339 412.529 123.339 413.024C123.339 413.43 123.222 413.794 122.988 414.114C122.757 414.434 122.434 414.686 122.019 414.871C121.603 415.055 121.12 415.148 120.569 415.148C119.846 415.148 119.247 414.991 118.773 414.677C118.299 414.363 117.999 413.904 117.873 413.301L118.907 413.043C119.006 413.424 119.192 413.71 119.466 413.901C119.743 414.092 120.104 414.188 120.551 414.188C121.059 414.188 121.462 414.08 121.76 413.864C122.062 413.646 122.213 413.384 122.213 413.08C122.213 412.833 122.126 412.627 121.954 412.461C121.782 412.292 121.517 412.165 121.16 412.082L119.978 411.805C119.329 411.652 118.852 411.413 118.547 411.09C118.246 410.764 118.095 410.356 118.095 409.866C118.095 409.466 118.207 409.112 118.432 408.805C118.66 408.497 118.969 408.255 119.36 408.08C119.754 407.904 120.2 407.817 120.698 407.817C121.4 407.817 121.951 407.971 122.351 408.278C122.754 408.586 123.041 408.992 123.21 409.497Z" fill="#5C5856"/>
<circle cx="316" cy="387" r="11.5" fill="#0055B0" stroke="#FDFBF9" stroke-width="3"/>
<circle cx="10" cy="272" r="11.5" fill="#006D8E" stroke="#FDFBF9" stroke-width="3"/>
<path d="M296.174 270.88C298.19 270.88 299.09 271.96 299.09 273.562C299.09 275.344 298.226 276.28 296.606 276.28H296.426C295.346 276.28 294.932 276.028 294.932 275.056V270.88H296.174ZM295.796 265.084C297.47 265.084 298.424 265.93 298.424 267.532C298.424 269.224 297.578 270.088 295.814 270.088H294.932V265.084H295.796ZM296.948 277C300.062 277 301.718 275.776 301.718 273.598C301.718 271.672 300.008 270.52 297.614 270.448C299.324 270.25 300.998 269.314 300.998 267.496C300.998 265.426 299.432 264.364 296.66 264.364H290.846V264.994C292.106 265.138 292.286 265.246 292.286 266.236V275.128C292.286 276.118 292.106 276.226 290.846 276.37V277H296.948ZM311.71 269.404L311.782 267.298H311.386L308.11 267.982V268.522L308.38 268.576C309.082 268.702 309.208 268.99 309.208 269.584V275.002C308.632 275.38 308.092 275.686 307.372 275.686C306.382 275.686 305.968 275.038 305.968 273.94V269.44L306.058 267.298H305.662L302.35 267.982V268.522L302.638 268.576C303.34 268.702 303.466 268.99 303.466 269.584V274.264C303.466 276.28 304.492 277.18 306.076 277.18C307.498 277.18 308.452 276.298 309.208 275.452L309.154 277.18H309.604L312.88 276.532V275.992L312.43 275.956C311.746 275.902 311.71 275.704 311.71 275.092V269.404ZM317.085 267.28H316.689L313.521 268.27V268.612L314.601 269.242V275.614C314.601 276.244 314.313 276.352 313.467 276.406V277H318.219V276.406C317.373 276.352 317.085 276.244 317.085 275.614V267.28ZM315.807 266.2C316.689 266.2 317.283 265.534 317.283 264.778C317.283 264.004 316.689 263.356 315.807 263.356C314.943 263.356 314.349 264.004 314.349 264.778C314.349 265.534 314.943 266.2 315.807 266.2ZM322.445 262.906H322.049L318.863 263.77V264.148L319.943 264.706V275.614C319.943 276.244 319.655 276.352 318.827 276.406V277H323.561V276.406C322.733 276.352 322.445 276.244 322.445 275.614V262.906ZM329.085 268.09C330.165 268.09 330.759 268.918 330.759 270.322V275.074C330.345 275.452 329.841 275.65 329.229 275.65C327.591 275.65 326.691 274.012 326.691 271.816C326.691 269.566 327.573 268.09 329.085 268.09ZM330.759 264.706V267.946C330.327 267.55 329.643 267.316 328.815 267.316C326.241 267.316 324.225 269.278 324.225 272.68C324.225 275.416 325.683 277.18 327.861 277.18C329.121 277.18 330.039 276.532 330.759 275.506L330.687 277.18H331.155L334.431 276.532V275.992L333.981 275.956C333.297 275.902 333.261 275.704 333.261 275.092V262.906H332.865L329.679 263.77V264.148L330.759 264.706Z" fill="#006D8E"/>
<path d="M92.5327 300H89.6151V290.545H92.662C93.5791 290.545 94.3639 290.735 95.0164 291.113C95.6688 291.489 96.169 292.029 96.5167 292.734C96.8645 293.435 97.0384 294.276 97.0384 295.254C97.0384 296.239 96.863 297.087 96.5121 297.798C96.1613 298.506 95.6504 299.051 94.9794 299.432C94.3085 299.811 93.4929 300 92.5327 300ZM90.76 298.984H92.4589C93.2406 298.984 93.8884 298.834 94.4024 298.532C94.9164 298.23 95.2995 297.801 95.5519 297.244C95.8043 296.687 95.9304 296.024 95.9304 295.254C95.9304 294.491 95.8058 293.834 95.5565 293.283C95.3072 292.729 94.9348 292.304 94.4393 292.009C93.9438 291.71 93.3267 291.561 92.5881 291.561H90.76V298.984ZM101.692 300.148C101.052 300.148 100.49 299.995 100.007 299.691C99.5267 299.386 99.1512 298.96 98.8804 298.412C98.6126 297.864 98.4787 297.224 98.4787 296.491C98.4787 295.753 98.6126 295.108 98.8804 294.557C99.1512 294.006 99.5267 293.578 100.007 293.274C100.49 292.969 101.052 292.817 101.692 292.817C102.332 292.817 102.892 292.969 103.372 293.274C103.855 293.578 104.231 294.006 104.499 294.557C104.769 295.108 104.905 295.753 104.905 296.491C104.905 297.224 104.769 297.864 104.499 298.412C104.231 298.96 103.855 299.386 103.372 299.691C102.892 299.995 102.332 300.148 101.692 300.148ZM101.692 299.169C102.178 299.169 102.578 299.044 102.892 298.795C103.206 298.546 103.438 298.218 103.589 297.812C103.74 297.406 103.815 296.965 103.815 296.491C103.815 296.018 103.74 295.576 103.589 295.167C103.438 294.757 103.206 294.426 102.892 294.174C102.578 293.922 102.178 293.795 101.692 293.795C101.206 293.795 100.805 293.922 100.492 294.174C100.178 294.426 99.9452 294.757 99.7944 295.167C99.6436 295.576 99.5682 296.018 99.5682 296.491C99.5682 296.965 99.6436 297.406 99.7944 297.812C99.9452 298.218 100.178 298.546 100.492 298.795C100.805 299.044 101.206 299.169 101.692 299.169ZM107.933 300L105.773 292.909H106.918L108.45 298.338H108.524L110.038 292.909H111.202L112.697 298.32H112.771L114.304 292.909H115.449L113.288 300H112.217L110.666 294.553H110.555L109.004 300H107.933ZM117.979 295.734V300H116.889V292.909H117.942V294.017H118.034C118.2 293.657 118.453 293.368 118.791 293.149C119.13 292.928 119.567 292.817 120.102 292.817C120.582 292.817 121.003 292.915 121.363 293.112C121.723 293.306 122.003 293.602 122.203 293.999C122.403 294.393 122.503 294.891 122.503 295.494V300H121.413V295.568C121.413 295.011 121.269 294.577 120.979 294.266C120.69 293.952 120.293 293.795 119.788 293.795C119.441 293.795 119.13 293.871 118.856 294.022C118.585 294.172 118.371 294.393 118.214 294.682C118.057 294.971 117.979 295.322 117.979 295.734ZM125.583 290.545V300H124.494V290.545H125.583ZM130.459 300.148C129.819 300.148 129.258 299.995 128.774 299.691C128.294 299.386 127.919 298.96 127.648 298.412C127.38 297.864 127.246 297.224 127.246 296.491C127.246 295.753 127.38 295.108 127.648 294.557C127.919 294.006 128.294 293.578 128.774 293.274C129.258 292.969 129.819 292.817 130.459 292.817C131.1 292.817 131.66 292.969 132.14 293.274C132.623 293.578 132.998 294.006 133.266 294.557C133.537 295.108 133.672 295.753 133.672 296.491C133.672 297.224 133.537 297.864 133.266 298.412C132.998 298.96 132.623 299.386 132.14 299.691C131.66 299.995 131.1 300.148 130.459 300.148ZM130.459 299.169C130.946 299.169 131.346 299.044 131.66 298.795C131.974 298.546 132.206 298.218 132.357 297.812C132.508 297.406 132.583 296.965 132.583 296.491C132.583 296.018 132.508 295.576 132.357 295.167C132.206 294.757 131.974 294.426 131.66 294.174C131.346 293.922 130.946 293.795 130.459 293.795C129.973 293.795 129.573 293.922 129.259 294.174C128.945 294.426 128.713 294.757 128.562 295.167C128.411 295.576 128.336 296.018 128.336 296.491C128.336 296.965 128.411 297.406 128.562 297.812C128.713 298.218 128.945 298.546 129.259 298.795C129.573 299.044 129.973 299.169 130.459 299.169ZM137.422 300.166C136.973 300.166 136.565 300.082 136.199 299.912C135.833 299.74 135.542 299.492 135.326 299.169C135.111 298.843 135.003 298.449 135.003 297.987C135.003 297.581 135.083 297.252 135.243 296.999C135.403 296.744 135.617 296.544 135.885 296.399C136.153 296.254 136.448 296.147 136.771 296.076C137.097 296.002 137.425 295.944 137.755 295.901C138.185 295.845 138.535 295.804 138.803 295.776C139.073 295.745 139.27 295.694 139.393 295.624C139.52 295.553 139.583 295.43 139.583 295.254V295.217C139.583 294.762 139.458 294.408 139.209 294.156C138.963 293.903 138.589 293.777 138.087 293.777C137.567 293.777 137.159 293.891 136.864 294.119C136.568 294.346 136.36 294.589 136.24 294.848L135.206 294.479C135.391 294.048 135.637 293.712 135.945 293.472C136.256 293.229 136.594 293.06 136.961 292.964C137.33 292.866 137.693 292.817 138.05 292.817C138.278 292.817 138.539 292.844 138.835 292.9C139.133 292.952 139.421 293.061 139.698 293.228C139.978 293.394 140.211 293.645 140.395 293.98C140.58 294.316 140.672 294.765 140.672 295.328V300H139.583V299.04H139.527C139.453 299.194 139.33 299.358 139.158 299.534C138.986 299.709 138.756 299.858 138.47 299.982C138.184 300.105 137.835 300.166 137.422 300.166ZM137.588 299.188C138.019 299.188 138.382 299.103 138.678 298.934C138.976 298.764 139.201 298.546 139.352 298.278C139.506 298.01 139.583 297.729 139.583 297.433V296.436C139.537 296.491 139.435 296.542 139.278 296.588C139.124 296.632 138.946 296.67 138.742 296.704C138.542 296.735 138.347 296.762 138.156 296.787C137.968 296.808 137.816 296.827 137.699 296.842C137.416 296.879 137.151 296.939 136.905 297.022C136.662 297.102 136.465 297.224 136.314 297.387C136.167 297.547 136.093 297.766 136.093 298.043C136.093 298.421 136.233 298.707 136.513 298.901C136.796 299.092 137.154 299.188 137.588 299.188ZM145.338 300.148C144.747 300.148 144.226 299.998 143.773 299.7C143.321 299.398 142.967 298.974 142.712 298.426C142.456 297.875 142.328 297.224 142.328 296.473C142.328 295.728 142.456 295.082 142.712 294.534C142.967 293.986 143.322 293.563 143.778 293.265C144.233 292.966 144.76 292.817 145.357 292.817C145.818 292.817 146.183 292.894 146.451 293.048C146.722 293.198 146.928 293.371 147.069 293.565C147.214 293.755 147.326 293.912 147.406 294.036H147.499V290.545H148.588V300H147.536V298.911H147.406C147.326 299.04 147.213 299.203 147.065 299.4C146.917 299.594 146.706 299.768 146.432 299.922C146.158 300.072 145.794 300.148 145.338 300.148ZM145.486 299.169C145.923 299.169 146.292 299.055 146.594 298.827C146.896 298.597 147.125 298.278 147.282 297.872C147.439 297.462 147.517 296.99 147.517 296.455C147.517 295.925 147.44 295.462 147.286 295.065C147.133 294.665 146.905 294.354 146.603 294.132C146.302 293.908 145.929 293.795 145.486 293.795C145.024 293.795 144.64 293.914 144.332 294.151C144.027 294.385 143.798 294.703 143.644 295.107C143.493 295.507 143.418 295.956 143.418 296.455C143.418 296.959 143.495 297.418 143.649 297.83C143.806 298.24 144.036 298.566 144.341 298.809C144.649 299.049 145.031 299.169 145.486 299.169ZM155.758 294.497L154.779 294.774C154.717 294.611 154.627 294.453 154.507 294.299C154.39 294.142 154.23 294.012 154.027 293.911C153.823 293.809 153.563 293.759 153.246 293.759C152.812 293.759 152.451 293.859 152.161 294.059C151.875 294.256 151.732 294.506 151.732 294.811C151.732 295.082 151.831 295.296 152.028 295.453C152.225 295.61 152.532 295.741 152.951 295.845L154.003 296.104C154.637 296.258 155.11 296.493 155.421 296.81C155.732 297.124 155.887 297.529 155.887 298.024C155.887 298.43 155.77 298.794 155.536 299.114C155.305 299.434 154.982 299.686 154.567 299.871C154.151 300.055 153.668 300.148 153.117 300.148C152.394 300.148 151.795 299.991 151.321 299.677C150.847 299.363 150.547 298.904 150.421 298.301L151.455 298.043C151.554 298.424 151.74 298.71 152.014 298.901C152.291 299.092 152.652 299.188 153.099 299.188C153.606 299.188 154.01 299.08 154.308 298.864C154.61 298.646 154.761 298.384 154.761 298.08C154.761 297.833 154.674 297.627 154.502 297.461C154.33 297.292 154.065 297.165 153.708 297.082L152.526 296.805C151.877 296.652 151.4 296.413 151.095 296.09C150.793 295.764 150.643 295.356 150.643 294.866C150.643 294.466 150.755 294.112 150.98 293.805C151.207 293.497 151.517 293.255 151.908 293.08C152.301 292.904 152.748 292.817 153.246 292.817C153.948 292.817 154.499 292.971 154.899 293.278C155.302 293.586 155.588 293.992 155.758 294.497Z" fill="#5C5856"/>
<path d="M169 298.264C168.628 298.264 168.288 298.173 167.98 297.992C167.672 297.807 167.426 297.561 167.241 297.253C167.06 296.945 166.969 296.605 166.969 296.233C166.969 295.857 167.06 295.517 167.241 295.213C167.426 294.905 167.672 294.66 167.98 294.479C168.288 294.294 168.628 294.202 169 294.202C169.375 294.202 169.716 294.294 170.02 294.479C170.328 294.66 170.573 294.905 170.754 295.213C170.939 295.517 171.031 295.857 171.031 296.233C171.031 296.605 170.939 296.945 170.754 297.253C170.573 297.561 170.328 297.807 170.02 297.992C169.716 298.173 169.375 298.264 169 298.264Z" fill="#DFD8D3"/>
<path d="M190.206 293.5H189.061C188.993 293.171 188.875 292.881 188.706 292.632C188.539 292.383 188.336 292.174 188.096 292.004C187.859 291.832 187.596 291.703 187.307 291.616C187.018 291.53 186.716 291.487 186.402 291.487C185.83 291.487 185.311 291.632 184.846 291.921C184.385 292.21 184.017 292.637 183.743 293.2C183.472 293.763 183.337 294.454 183.337 295.273C183.337 296.091 183.472 296.782 183.743 297.346C184.017 297.909 184.385 298.335 184.846 298.624C185.311 298.914 185.83 299.058 186.402 299.058C186.716 299.058 187.018 299.015 187.307 298.929C187.596 298.843 187.859 298.715 188.096 298.546C188.336 298.373 188.539 298.163 188.706 297.913C188.875 297.661 188.993 297.372 189.061 297.045H190.206C190.12 297.529 189.963 297.961 189.735 298.343C189.507 298.724 189.224 299.049 188.886 299.317C188.547 299.581 188.167 299.783 187.745 299.922C187.327 300.06 186.879 300.129 186.402 300.129C185.596 300.129 184.879 299.932 184.251 299.538C183.623 299.144 183.129 298.584 182.769 297.858C182.409 297.132 182.229 296.27 182.229 295.273C182.229 294.276 182.409 293.414 182.769 292.688C183.129 291.961 183.623 291.401 184.251 291.007C184.879 290.613 185.596 290.416 186.402 290.416C186.879 290.416 187.327 290.485 187.745 290.624C188.167 290.762 188.547 290.966 188.886 291.233C189.224 291.498 189.507 291.821 189.735 292.203C189.963 292.581 190.12 293.014 190.206 293.5ZM194.789 300.148C194.149 300.148 193.587 299.995 193.104 299.691C192.624 299.386 192.248 298.96 191.978 298.412C191.71 297.864 191.576 297.224 191.576 296.491C191.576 295.753 191.71 295.108 191.978 294.557C192.248 294.006 192.624 293.578 193.104 293.274C193.587 292.969 194.149 292.817 194.789 292.817C195.429 292.817 195.989 292.969 196.469 293.274C196.953 293.578 197.328 294.006 197.596 294.557C197.867 295.108 198.002 295.753 198.002 296.491C198.002 297.224 197.867 297.864 197.596 298.412C197.328 298.96 196.953 299.386 196.469 299.691C195.989 299.995 195.429 300.148 194.789 300.148ZM194.789 299.169C195.275 299.169 195.675 299.044 195.989 298.795C196.303 298.546 196.536 298.218 196.686 297.812C196.837 297.406 196.913 296.965 196.913 296.491C196.913 296.018 196.837 295.576 196.686 295.167C196.536 294.757 196.303 294.426 195.989 294.174C195.675 293.922 195.275 293.795 194.789 293.795C194.303 293.795 193.903 293.922 193.589 294.174C193.275 294.426 193.042 294.757 192.892 295.167C192.741 295.576 192.665 296.018 192.665 296.491C192.665 296.965 192.741 297.406 192.892 297.812C193.042 298.218 193.275 298.546 193.589 298.795C193.903 299.044 194.303 299.169 194.789 299.169ZM201.752 300.166C201.302 300.166 200.895 300.082 200.528 299.912C200.162 299.74 199.871 299.492 199.656 299.169C199.44 298.843 199.333 298.449 199.333 297.987C199.333 297.581 199.413 297.252 199.573 296.999C199.733 296.744 199.947 296.544 200.214 296.399C200.482 296.254 200.778 296.147 201.101 296.076C201.427 296.002 201.755 295.944 202.084 295.901C202.515 295.845 202.864 295.804 203.132 295.776C203.403 295.745 203.6 295.694 203.723 295.624C203.849 295.553 203.912 295.43 203.912 295.254V295.217C203.912 294.762 203.788 294.408 203.538 294.156C203.292 293.903 202.918 293.777 202.417 293.777C201.896 293.777 201.489 293.891 201.193 294.119C200.898 294.346 200.69 294.589 200.57 294.848L199.536 294.479C199.721 294.048 199.967 293.712 200.275 293.472C200.585 293.229 200.924 293.06 201.29 292.964C201.659 292.866 202.023 292.817 202.38 292.817C202.607 292.817 202.869 292.844 203.164 292.9C203.463 292.952 203.751 293.061 204.028 293.228C204.308 293.394 204.54 293.645 204.725 293.98C204.909 294.316 205.002 294.765 205.002 295.328V300H203.912V299.04H203.857C203.783 299.194 203.66 299.358 203.488 299.534C203.315 299.709 203.086 299.858 202.8 299.982C202.513 300.105 202.164 300.166 201.752 300.166ZM201.918 299.188C202.349 299.188 202.712 299.103 203.007 298.934C203.306 298.764 203.531 298.546 203.681 298.278C203.835 298.01 203.912 297.729 203.912 297.433V296.436C203.866 296.491 203.765 296.542 203.608 296.588C203.454 296.632 203.275 296.67 203.072 296.704C202.872 296.735 202.677 296.762 202.486 296.787C202.298 296.808 202.146 296.827 202.029 296.842C201.746 296.879 201.481 296.939 201.235 297.022C200.992 297.102 200.795 297.224 200.644 297.387C200.496 297.547 200.422 297.766 200.422 298.043C200.422 298.421 200.562 298.707 200.842 298.901C201.125 299.092 201.484 299.188 201.918 299.188ZM209.871 300.148C209.206 300.148 208.634 299.991 208.154 299.677C207.674 299.363 207.304 298.931 207.046 298.38C206.787 297.829 206.658 297.199 206.658 296.491C206.658 295.771 206.79 295.136 207.055 294.585C207.323 294.031 207.695 293.598 208.172 293.288C208.652 292.974 209.212 292.817 209.853 292.817C210.351 292.817 210.8 292.909 211.201 293.094C211.601 293.278 211.928 293.537 212.184 293.869C212.439 294.202 212.598 294.589 212.659 295.033H211.57C211.487 294.71 211.302 294.423 211.016 294.174C210.733 293.922 210.351 293.795 209.871 293.795C209.446 293.795 209.074 293.906 208.754 294.128C208.437 294.346 208.189 294.656 208.011 295.056C207.835 295.453 207.747 295.919 207.747 296.455C207.747 297.002 207.834 297.479 208.006 297.886C208.181 298.292 208.428 298.607 208.745 298.832C209.065 299.057 209.44 299.169 209.871 299.169C210.154 299.169 210.411 299.12 210.642 299.021C210.873 298.923 211.068 298.781 211.228 298.597C211.388 298.412 211.502 298.19 211.57 297.932H212.659C212.598 298.35 212.445 298.727 212.202 299.063C211.962 299.395 211.644 299.66 211.247 299.857C210.853 300.051 210.394 300.148 209.871 300.148ZM215.342 295.734V300H214.252V290.545H215.342V294.017H215.434C215.6 293.651 215.849 293.36 216.182 293.145C216.517 292.926 216.963 292.817 217.521 292.817C218.004 292.817 218.427 292.914 218.79 293.108C219.153 293.298 219.435 293.592 219.635 293.989C219.838 294.383 219.94 294.885 219.94 295.494V300H218.85V295.568C218.85 295.005 218.704 294.569 218.411 294.262C218.122 293.951 217.721 293.795 217.207 293.795C216.85 293.795 216.53 293.871 216.246 294.022C215.966 294.172 215.745 294.393 215.582 294.682C215.422 294.971 215.342 295.322 215.342 295.734ZM221.933 300V292.909H223.022V300H221.933ZM222.487 291.727C222.274 291.727 222.091 291.655 221.937 291.51C221.787 291.366 221.711 291.192 221.711 290.989C221.711 290.786 221.787 290.612 221.937 290.467C222.091 290.322 222.274 290.25 222.487 290.25C222.699 290.25 222.881 290.322 223.031 290.467C223.185 290.612 223.262 290.786 223.262 290.989C223.262 291.192 223.185 291.366 223.031 291.51C222.881 291.655 222.699 291.727 222.487 291.727ZM226.107 295.734V300H225.018V292.909H226.07V294.017H226.163C226.329 293.657 226.581 293.368 226.92 293.149C227.258 292.928 227.695 292.817 228.231 292.817C228.711 292.817 229.131 292.915 229.491 293.112C229.851 293.306 230.131 293.602 230.331 293.999C230.531 294.393 230.631 294.891 230.631 295.494V300H229.542V295.568C229.542 295.011 229.397 294.577 229.108 294.266C228.819 293.952 228.422 293.795 227.917 293.795C227.569 293.795 227.258 293.871 226.984 294.022C226.713 294.172 226.5 294.393 226.343 294.682C226.186 294.971 226.107 295.322 226.107 295.734ZM235.484 302.807C234.958 302.807 234.506 302.739 234.127 302.604C233.749 302.471 233.433 302.296 233.181 302.077C232.931 301.862 232.733 301.631 232.585 301.385L233.453 300.776C233.552 300.905 233.676 301.053 233.827 301.219C233.978 301.388 234.184 301.534 234.446 301.657C234.71 301.783 235.057 301.847 235.484 301.847C236.057 301.847 236.529 301.708 236.902 301.431C237.274 301.154 237.46 300.72 237.46 300.129V298.689H237.368C237.288 298.818 237.174 298.978 237.026 299.169C236.882 299.357 236.672 299.525 236.398 299.672C236.128 299.817 235.761 299.889 235.3 299.889C234.727 299.889 234.213 299.754 233.758 299.483C233.305 299.212 232.947 298.818 232.682 298.301C232.421 297.784 232.29 297.156 232.29 296.418C232.29 295.691 232.417 295.059 232.673 294.52C232.928 293.979 233.284 293.56 233.739 293.265C234.195 292.966 234.721 292.817 235.318 292.817C235.78 292.817 236.146 292.894 236.417 293.048C236.691 293.198 236.9 293.371 237.045 293.565C237.192 293.755 237.306 293.912 237.386 294.036H237.497V292.909H238.55V300.203C238.55 300.812 238.411 301.308 238.134 301.69C237.86 302.074 237.491 302.356 237.026 302.534C236.565 302.716 236.051 302.807 235.484 302.807ZM235.447 298.911C235.884 298.911 236.254 298.81 236.555 298.61C236.857 298.41 237.086 298.123 237.243 297.747C237.4 297.372 237.479 296.922 237.479 296.399C237.479 295.888 237.402 295.437 237.248 295.047C237.094 294.656 236.866 294.349 236.565 294.128C236.263 293.906 235.891 293.795 235.447 293.795C234.986 293.795 234.601 293.912 234.293 294.146C233.989 294.38 233.759 294.694 233.605 295.088C233.455 295.482 233.379 295.919 233.379 296.399C233.379 296.892 233.456 297.327 233.61 297.706C233.767 298.081 233.998 298.377 234.303 298.592C234.61 298.804 234.992 298.911 235.447 298.911Z" fill="#5C5856"/>
<path d="M252 298.264C251.628 298.264 251.288 298.173 250.98 297.992C250.672 297.807 250.426 297.561 250.241 297.253C250.06 296.945 249.969 296.605 249.969 296.233C249.969 295.857 250.06 295.517 250.241 295.213C250.426 294.905 250.672 294.66 250.98 294.479C251.288 294.294 251.628 294.202 252 294.202C252.375 294.202 252.716 294.294 253.02 294.479C253.328 294.66 253.573 294.905 253.754 295.213C253.939 295.517 254.031 295.857 254.031 296.233C254.031 296.605 253.939 296.945 253.754 297.253C253.573 297.561 253.328 297.807 253.02 297.992C252.716 298.173 252.375 298.264 252 298.264Z" fill="#DFD8D3"/>
<path d="M273.246 293.5H272.101C272.033 293.171 271.914 292.881 271.745 292.632C271.579 292.383 271.376 292.174 271.136 292.004C270.899 291.832 270.636 291.703 270.346 291.616C270.057 291.53 269.755 291.487 269.442 291.487C268.869 291.487 268.351 291.632 267.886 291.921C267.424 292.21 267.056 292.637 266.782 293.2C266.512 293.763 266.376 294.454 266.376 295.273C266.376 296.091 266.512 296.782 266.782 297.346C267.056 297.909 267.424 298.335 267.886 298.624C268.351 298.914 268.869 299.058 269.442 299.058C269.755 299.058 270.057 299.015 270.346 298.929C270.636 298.843 270.899 298.715 271.136 298.546C271.376 298.373 271.579 298.163 271.745 297.913C271.914 297.661 272.033 297.372 272.101 297.045H273.246C273.159 297.529 273.002 297.961 272.775 298.343C272.547 298.724 272.264 299.049 271.925 299.317C271.587 299.581 271.207 299.783 270.785 299.922C270.366 300.06 269.919 300.129 269.442 300.129C268.635 300.129 267.918 299.932 267.29 299.538C266.662 299.144 266.168 298.584 265.808 297.858C265.448 297.132 265.268 296.27 265.268 295.273C265.268 294.276 265.448 293.414 265.808 292.688C266.168 291.961 266.662 291.401 267.29 291.007C267.918 290.613 268.635 290.416 269.442 290.416C269.919 290.416 270.366 290.485 270.785 290.624C271.207 290.762 271.587 290.966 271.925 291.233C272.264 291.498 272.547 291.821 272.775 292.203C273.002 292.581 273.159 293.014 273.246 293.5ZM277.829 300.148C277.188 300.148 276.627 299.995 276.144 299.691C275.663 299.386 275.288 298.96 275.017 298.412C274.749 297.864 274.615 297.224 274.615 296.491C274.615 295.753 274.749 295.108 275.017 294.557C275.288 294.006 275.663 293.578 276.144 293.274C276.627 292.969 277.188 292.817 277.829 292.817C278.469 292.817 279.029 292.969 279.509 293.274C279.992 293.578 280.368 294.006 280.635 294.557C280.906 295.108 281.042 295.753 281.042 296.491C281.042 297.224 280.906 297.864 280.635 298.412C280.368 298.96 279.992 299.386 279.509 299.691C279.029 299.995 278.469 300.148 277.829 300.148ZM277.829 299.169C278.315 299.169 278.715 299.044 279.029 298.795C279.343 298.546 279.575 298.218 279.726 297.812C279.877 297.406 279.952 296.965 279.952 296.491C279.952 296.018 279.877 295.576 279.726 295.167C279.575 294.757 279.343 294.426 279.029 294.174C278.715 293.922 278.315 293.795 277.829 293.795C277.342 293.795 276.942 293.922 276.628 294.174C276.314 294.426 276.082 294.757 275.931 295.167C275.78 295.576 275.705 296.018 275.705 296.491C275.705 296.965 275.78 297.406 275.931 297.812C276.082 298.218 276.314 298.546 276.628 298.795C276.942 299.044 277.342 299.169 277.829 299.169ZM282.705 300V292.909H283.757V294.017H283.85C283.997 293.638 284.236 293.345 284.565 293.135C284.894 292.923 285.29 292.817 285.752 292.817C286.219 292.817 286.609 292.923 286.92 293.135C287.233 293.345 287.478 293.638 287.654 294.017H287.727C287.909 293.651 288.181 293.36 288.545 293.145C288.908 292.926 289.343 292.817 289.851 292.817C290.485 292.817 291.004 293.015 291.407 293.412C291.81 293.806 292.011 294.42 292.011 295.254V300H290.922V295.254C290.922 294.731 290.779 294.357 290.493 294.132C290.206 293.908 289.869 293.795 289.482 293.795C288.983 293.795 288.597 293.946 288.323 294.248C288.049 294.546 287.912 294.925 287.912 295.384V300H286.804V295.143C286.804 294.74 286.673 294.416 286.412 294.169C286.15 293.92 285.813 293.795 285.401 293.795C285.118 293.795 284.853 293.871 284.607 294.022C284.364 294.172 284.167 294.382 284.016 294.65C283.868 294.914 283.794 295.22 283.794 295.568V300H282.705ZM294.004 300V292.909H295.056V294.017H295.148C295.296 293.638 295.535 293.345 295.864 293.135C296.193 292.923 296.589 292.817 297.05 292.817C297.518 292.817 297.908 292.923 298.218 293.135C298.532 293.345 298.777 293.638 298.952 294.017H299.026C299.208 293.651 299.48 293.36 299.843 293.145C300.207 292.926 300.642 292.817 301.15 292.817C301.784 292.817 302.302 293.015 302.706 293.412C303.109 293.806 303.31 294.42 303.31 295.254V300H302.221V295.254C302.221 294.731 302.078 294.357 301.792 294.132C301.505 293.908 301.168 293.795 300.78 293.795C300.282 293.795 299.896 293.946 299.622 294.248C299.348 294.546 299.211 294.925 299.211 295.384V300H298.103V295.143C298.103 294.74 297.972 294.416 297.711 294.169C297.449 293.92 297.112 293.795 296.7 293.795C296.416 293.795 296.152 293.871 295.905 294.022C295.662 294.172 295.465 294.382 295.315 294.65C295.167 294.914 295.093 295.22 295.093 295.568V300H294.004ZM309.771 297.101V292.909H310.861V300H309.771V298.8H309.697C309.531 299.16 309.273 299.466 308.922 299.718C308.571 299.968 308.128 300.092 307.592 300.092C307.149 300.092 306.755 299.995 306.41 299.801C306.066 299.605 305.795 299.309 305.598 298.915C305.401 298.518 305.302 298.018 305.302 297.415V292.909H306.392V297.341C306.392 297.858 306.536 298.27 306.826 298.578C307.118 298.886 307.491 299.04 307.943 299.04C308.214 299.04 308.489 298.971 308.769 298.832C309.052 298.694 309.289 298.481 309.48 298.195C309.674 297.909 309.771 297.544 309.771 297.101ZM313.946 295.734V300H312.856V292.909H313.909V294.017H314.001C314.167 293.657 314.419 293.368 314.758 293.149C315.097 292.928 315.534 292.817 316.069 292.817C316.549 292.817 316.969 292.915 317.329 293.112C317.689 293.306 317.97 293.602 318.17 293.999C318.37 294.393 318.47 294.891 318.47 295.494V300H317.38V295.568C317.38 295.011 317.236 294.577 316.946 294.266C316.657 293.952 316.26 293.795 315.755 293.795C315.407 293.795 315.097 293.871 314.823 294.022C314.552 294.172 314.338 294.393 314.181 294.682C314.024 294.971 313.946 295.322 313.946 295.734ZM320.461 300V292.909H321.55V300H320.461ZM321.015 291.727C320.802 291.727 320.619 291.655 320.465 291.51C320.314 291.366 320.239 291.192 320.239 290.989C320.239 290.786 320.314 290.612 320.465 290.467C320.619 290.322 320.802 290.25 321.015 290.25C321.227 290.25 321.408 290.322 321.559 290.467C321.713 290.612 321.79 290.786 321.79 290.989C321.79 291.192 321.713 291.366 321.559 291.51C321.408 291.655 321.227 291.727 321.015 291.727ZM326.629 292.909V293.832H322.955V292.909H326.629ZM324.026 291.21H325.115V297.969C325.115 298.277 325.16 298.507 325.249 298.661C325.341 298.812 325.458 298.914 325.6 298.966C325.744 299.015 325.897 299.04 326.057 299.04C326.177 299.04 326.275 299.034 326.352 299.021C326.429 299.006 326.491 298.994 326.537 298.984L326.759 299.963C326.685 299.991 326.582 300.018 326.449 300.046C326.317 300.077 326.149 300.092 325.946 300.092C325.638 300.092 325.337 300.026 325.041 299.894C324.749 299.761 324.506 299.56 324.312 299.289C324.121 299.018 324.026 298.677 324.026 298.264V291.21ZM328.97 302.659C328.785 302.659 328.621 302.644 328.476 302.613C328.331 302.585 328.231 302.558 328.176 302.53L328.453 301.57C328.717 301.637 328.951 301.662 329.155 301.643C329.358 301.625 329.538 301.534 329.695 301.371C329.855 301.211 330.001 300.951 330.133 300.591L330.336 300.037L327.714 292.909H328.896L330.853 298.56H330.927L332.885 292.909H334.066L331.057 301.034C330.921 301.4 330.753 301.703 330.553 301.944C330.353 302.187 330.121 302.367 329.856 302.484C329.595 302.601 329.299 302.659 328.97 302.659Z" fill="#5C5856"/>
<circle cx="10" cy="502" r="11.5" fill="#4B2AAD" stroke="#FDFBF9" stroke-width="3"/>
<path d="M297.034 507.18C299.536 507.18 301.606 505.884 301.606 503.364C301.606 501.096 300.148 500.16 297.736 499.296C295.81 498.594 295.126 498.072 295.126 496.812C295.126 495.678 295.918 494.904 297.178 494.904C298.888 494.904 299.914 496.02 300.256 497.928H300.922V495.246C300.04 494.598 298.69 494.184 297.178 494.184C294.658 494.184 292.984 495.714 292.984 497.91C292.984 500.034 294.352 501.006 296.476 501.744C298.636 502.536 299.41 503.094 299.41 504.426C299.41 505.668 298.492 506.46 297.034 506.46C295.216 506.46 294.064 505.056 293.632 502.914H292.876L293.038 505.992C293.848 506.658 295.324 507.18 297.034 507.18ZM304.947 501.51C304.947 499.512 305.739 497.964 307.107 497.964C308.115 497.964 308.421 498.756 308.421 499.71C308.421 500.034 308.385 500.304 308.349 500.592H309.717C310.095 500.412 310.401 499.962 310.401 499.386C310.401 498 309.177 497.28 307.413 497.28C304.569 497.28 302.751 499.548 302.751 502.554C302.751 505.38 304.533 507.18 306.945 507.18C308.781 507.18 310.113 506.208 310.671 504.246L310.365 504.066C309.771 504.948 308.979 505.398 307.845 505.398C306.027 505.398 304.947 503.868 304.947 501.51ZM315.181 505.74C314.227 505.74 313.795 505.074 313.795 504.138C313.795 503.13 314.263 502.716 315.019 502.428L316.567 501.798V505.164C316.063 505.542 315.703 505.74 315.181 505.74ZM319.051 500.232C319.051 498.126 317.791 497.28 315.487 497.28C313.489 497.28 311.941 498.054 311.941 499.548C311.941 500.142 312.247 500.52 312.733 500.682L314.227 500.484C314.137 500.088 314.083 499.728 314.083 499.368C314.083 498.504 314.425 497.856 315.289 497.856C316.225 497.856 316.567 498.594 316.567 499.62V501.15L313.849 502.14C312.499 502.644 311.383 503.274 311.383 504.822C311.383 506.262 312.355 507.144 313.813 507.144C315.109 507.144 316.045 506.352 316.621 505.596C316.801 506.586 317.449 507.18 318.421 507.18C319.267 507.18 319.951 506.838 320.473 506.226L320.365 505.83C320.167 505.92 319.915 506.01 319.645 506.01C319.177 506.01 319.051 505.614 319.051 505.002V500.232ZM324.368 492.906H323.972L320.786 493.77V494.148L321.866 494.706V505.614C321.866 506.244 321.578 506.352 320.75 506.406V507H325.484V506.406C324.656 506.352 324.368 506.244 324.368 505.614V492.906ZM330.612 497.28C328.146 497.28 326.166 499.404 326.166 502.482C326.166 505.254 327.912 507.18 330.522 507.18C332.592 507.18 333.906 505.956 334.374 504.174L334.086 504.012C333.438 504.948 332.628 505.47 331.404 505.47C329.64 505.47 328.344 503.976 328.416 501.456H334.284V501.042C334.284 498.882 333.024 497.28 330.612 497.28ZM330.432 497.946C331.602 497.946 332.052 499.098 332.052 500.79H328.452C328.596 499.134 329.244 497.946 330.432 497.946Z" fill="#4B2AAD"/>
<path d="M217.663 530H216.463L219.934 520.545H221.116L224.588 530H223.387L220.562 522.041H220.488L217.663 530ZM218.106 526.307H222.944V527.322H218.106V526.307ZM229.07 522.909V523.832H225.248V522.909H229.07ZM226.393 530V521.93C226.393 521.524 226.488 521.186 226.679 520.915C226.87 520.644 227.118 520.441 227.422 520.305C227.727 520.17 228.049 520.102 228.387 520.102C228.655 520.102 228.873 520.124 229.043 520.167C229.212 520.21 229.338 520.25 229.421 520.287L229.107 521.229C229.052 521.21 228.975 521.187 228.876 521.159C228.781 521.132 228.655 521.118 228.498 521.118C228.138 521.118 227.878 521.209 227.718 521.39C227.561 521.572 227.482 521.838 227.482 522.189V530H226.393ZM233.755 522.909V523.832H229.932V522.909H233.755ZM231.077 530V521.93C231.077 521.524 231.173 521.186 231.364 520.915C231.554 520.644 231.802 520.441 232.107 520.305C232.412 520.17 232.733 520.102 233.072 520.102C233.339 520.102 233.558 520.124 233.727 520.167C233.896 520.21 234.023 520.25 234.106 520.287L233.792 521.229C233.736 521.21 233.66 521.187 233.561 521.159C233.466 521.132 233.339 521.118 233.182 521.118C232.822 521.118 232.562 521.209 232.402 521.39C232.245 521.572 232.167 521.838 232.167 522.189V530H231.077ZM235.282 530V522.909H236.371V530H235.282ZM235.836 521.727C235.623 521.727 235.44 521.655 235.286 521.51C235.136 521.366 235.06 521.192 235.06 520.989C235.06 520.786 235.136 520.612 235.286 520.467C235.44 520.322 235.623 520.25 235.836 520.25C236.048 520.25 236.23 520.322 236.381 520.467C236.534 520.612 236.611 520.786 236.611 520.989C236.611 521.192 236.534 521.366 236.381 521.51C236.23 521.655 236.048 521.727 235.836 521.727ZM239.456 520.545V530H238.367V520.545H239.456ZM241.452 530V522.909H242.541V530H241.452ZM242.006 521.727C241.793 521.727 241.61 521.655 241.456 521.51C241.306 521.366 241.23 521.192 241.23 520.989C241.23 520.786 241.306 520.612 241.456 520.467C241.61 520.322 241.793 520.25 242.006 520.25C242.218 520.25 242.4 520.322 242.55 520.467C242.704 520.612 242.781 520.786 242.781 520.989C242.781 521.192 242.704 521.366 242.55 521.51C242.4 521.655 242.218 521.727 242.006 521.727ZM246.623 530.166C246.174 530.166 245.766 530.082 245.4 529.912C245.034 529.74 244.743 529.492 244.527 529.169C244.312 528.843 244.204 528.449 244.204 527.987C244.204 527.581 244.284 527.252 244.444 526.999C244.604 526.744 244.818 526.544 245.086 526.399C245.354 526.254 245.649 526.147 245.972 526.076C246.299 526.002 246.626 525.944 246.956 525.901C247.387 525.845 247.736 525.804 248.004 525.776C248.275 525.745 248.471 525.694 248.595 525.624C248.721 525.553 248.784 525.43 248.784 525.254V525.217C248.784 524.762 248.659 524.408 248.41 524.156C248.164 523.903 247.79 523.777 247.288 523.777C246.768 523.777 246.36 523.891 246.065 524.119C245.769 524.346 245.562 524.589 245.442 524.848L244.407 524.479C244.592 524.048 244.838 523.712 245.146 523.472C245.457 523.229 245.795 523.06 246.162 522.964C246.531 522.866 246.894 522.817 247.251 522.817C247.479 522.817 247.741 522.844 248.036 522.9C248.335 522.952 248.622 523.061 248.899 523.228C249.179 523.394 249.412 523.645 249.596 523.98C249.781 524.316 249.873 524.765 249.873 525.328V530H248.784V529.04H248.728C248.655 529.194 248.532 529.358 248.359 529.534C248.187 529.709 247.958 529.858 247.671 529.982C247.385 530.105 247.036 530.166 246.623 530.166ZM246.79 529.188C247.22 529.188 247.584 529.103 247.879 528.934C248.178 528.764 248.402 528.546 248.553 528.278C248.707 528.01 248.784 527.729 248.784 527.433V526.436C248.738 526.491 248.636 526.542 248.479 526.588C248.325 526.632 248.147 526.67 247.944 526.704C247.744 526.735 247.548 526.762 247.357 526.787C247.17 526.808 247.017 526.827 246.9 526.842C246.617 526.879 246.353 526.939 246.106 527.022C245.863 527.102 245.666 527.224 245.515 527.387C245.368 527.547 245.294 527.766 245.294 528.043C245.294 528.421 245.434 528.707 245.714 528.901C245.997 529.092 246.356 529.188 246.79 529.188ZM254.946 522.909V523.832H251.271V522.909H254.946ZM252.342 521.21H253.432V527.969C253.432 528.277 253.476 528.507 253.565 528.661C253.658 528.812 253.775 528.914 253.916 528.966C254.061 529.015 254.213 529.04 254.373 529.04C254.493 529.04 254.592 529.034 254.669 529.021C254.746 529.006 254.807 528.994 254.853 528.984L255.075 529.963C255.001 529.991 254.898 530.018 254.766 530.046C254.633 530.077 254.466 530.092 254.262 530.092C253.955 530.092 253.653 530.026 253.358 529.894C253.065 529.761 252.822 529.56 252.628 529.289C252.437 529.018 252.342 528.677 252.342 528.264V521.21ZM259.481 530.148C258.798 530.148 258.209 529.997 257.713 529.695C257.221 529.391 256.841 528.966 256.573 528.421C256.308 527.873 256.176 527.236 256.176 526.51C256.176 525.784 256.308 525.143 256.573 524.589C256.841 524.032 257.213 523.598 257.69 523.288C258.17 522.974 258.73 522.817 259.371 522.817C259.74 522.817 260.105 522.878 260.465 523.001C260.825 523.125 261.153 523.325 261.448 523.602C261.743 523.875 261.979 524.239 262.154 524.691C262.33 525.143 262.417 525.701 262.417 526.362V526.824H256.952V525.882H261.31C261.31 525.482 261.23 525.125 261.069 524.811C260.913 524.497 260.688 524.249 260.395 524.068C260.106 523.886 259.765 523.795 259.371 523.795C258.937 523.795 258.561 523.903 258.244 524.119C257.93 524.331 257.689 524.608 257.519 524.95C257.35 525.291 257.265 525.657 257.265 526.048V526.676C257.265 527.212 257.358 527.666 257.542 528.038C257.73 528.407 257.99 528.689 258.323 528.883C258.655 529.074 259.041 529.169 259.481 529.169C259.768 529.169 260.026 529.129 260.257 529.049C260.491 528.966 260.692 528.843 260.862 528.68C261.031 528.513 261.162 528.307 261.254 528.061L262.307 528.357C262.196 528.714 262.01 529.027 261.748 529.298C261.486 529.566 261.163 529.775 260.779 529.926C260.394 530.074 259.962 530.148 259.481 530.148ZM269.098 524.497L268.119 524.774C268.057 524.611 267.966 524.453 267.846 524.299C267.73 524.142 267.569 524.012 267.366 523.911C267.163 523.809 266.903 523.759 266.586 523.759C266.152 523.759 265.791 523.859 265.501 524.059C265.215 524.256 265.072 524.506 265.072 524.811C265.072 525.082 265.17 525.296 265.367 525.453C265.564 525.61 265.872 525.741 266.291 525.845L267.343 526.104C267.977 526.258 268.45 526.493 268.761 526.81C269.071 527.124 269.227 527.529 269.227 528.024C269.227 528.43 269.11 528.794 268.876 529.114C268.645 529.434 268.322 529.686 267.906 529.871C267.491 530.055 267.008 530.148 266.457 530.148C265.734 530.148 265.135 529.991 264.661 529.677C264.187 529.363 263.887 528.904 263.761 528.301L264.795 528.043C264.893 528.424 265.08 528.71 265.354 528.901C265.631 529.092 265.992 529.188 266.438 529.188C266.946 529.188 267.349 529.08 267.648 528.864C267.95 528.646 268.1 528.384 268.1 528.08C268.1 527.833 268.014 527.627 267.842 527.461C267.669 527.292 267.405 527.165 267.048 527.082L265.866 526.805C265.217 526.652 264.74 526.413 264.435 526.09C264.133 525.764 263.982 525.356 263.982 524.866C263.982 524.466 264.095 524.112 264.319 523.805C264.547 523.497 264.857 523.255 265.247 523.08C265.641 522.904 266.088 522.817 266.586 522.817C267.288 522.817 267.839 522.971 268.239 523.278C268.642 523.586 268.928 523.992 269.098 524.497Z" fill="#5C5856"/>
<path d="M282 528.264C281.628 528.264 281.288 528.173 280.98 527.992C280.672 527.807 280.426 527.561 280.241 527.253C280.06 526.945 279.969 526.605 279.969 526.233C279.969 525.857 280.06 525.517 280.241 525.213C280.426 524.905 280.672 524.66 280.98 524.479C281.288 524.294 281.628 524.202 282 524.202C282.375 524.202 282.716 524.294 283.02 524.479C283.328 524.66 283.573 524.905 283.754 525.213C283.939 525.517 284.031 525.857 284.031 526.233C284.031 526.605 283.939 526.945 283.754 527.253C283.573 527.561 283.328 527.807 283.02 527.992C282.716 528.173 282.375 528.264 282 528.264Z" fill="#DFD8D3"/>
<path d="M294.98 521.561V520.545H302.071V521.561H299.098V530H297.953V521.561H294.98ZM305.635 530.148C304.952 530.148 304.363 529.997 303.867 529.695C303.375 529.391 302.995 528.966 302.727 528.421C302.462 527.873 302.33 527.236 302.33 526.51C302.33 525.784 302.462 525.143 302.727 524.589C302.995 524.032 303.367 523.598 303.844 523.288C304.324 522.974 304.884 522.817 305.524 522.817C305.894 522.817 306.258 522.878 306.619 523.001C306.979 523.125 307.306 523.325 307.602 523.602C307.897 523.875 308.133 524.239 308.308 524.691C308.484 525.143 308.571 525.701 308.571 526.362V526.824H303.105V525.882H307.463C307.463 525.482 307.383 525.125 307.223 524.811C307.066 524.497 306.842 524.249 306.549 524.068C306.26 523.886 305.918 523.795 305.524 523.795C305.09 523.795 304.715 523.903 304.398 524.119C304.084 524.331 303.842 524.608 303.673 524.95C303.504 525.291 303.419 525.657 303.419 526.048V526.676C303.419 527.212 303.512 527.666 303.696 528.038C303.884 528.407 304.144 528.689 304.476 528.883C304.809 529.074 305.195 529.169 305.635 529.169C305.921 529.169 306.18 529.129 306.411 529.049C306.645 528.966 306.846 528.843 307.016 528.68C307.185 528.513 307.316 528.307 307.408 528.061L308.46 528.357C308.35 528.714 308.164 529.027 307.902 529.298C307.64 529.566 307.317 529.775 306.932 529.926C306.548 530.074 306.115 530.148 305.635 530.148ZM312.315 530.166C311.866 530.166 311.458 530.082 311.092 529.912C310.726 529.74 310.435 529.492 310.219 529.169C310.004 528.843 309.896 528.449 309.896 527.987C309.896 527.581 309.976 527.252 310.136 526.999C310.296 526.744 310.51 526.544 310.778 526.399C311.046 526.254 311.341 526.147 311.664 526.076C311.991 526.002 312.318 525.944 312.648 525.901C313.079 525.845 313.428 525.804 313.696 525.776C313.966 525.745 314.163 525.694 314.286 525.624C314.413 525.553 314.476 525.43 314.476 525.254V525.217C314.476 524.762 314.351 524.408 314.102 524.156C313.856 523.903 313.482 523.777 312.98 523.777C312.46 523.777 312.052 523.891 311.757 524.119C311.461 524.346 311.253 524.589 311.133 524.848L310.099 524.479C310.284 524.048 310.53 523.712 310.838 523.472C311.149 523.229 311.487 523.06 311.854 522.964C312.223 522.866 312.586 522.817 312.943 522.817C313.171 522.817 313.432 522.844 313.728 522.9C314.026 522.952 314.314 523.061 314.591 523.228C314.871 523.394 315.104 523.645 315.288 523.98C315.473 524.316 315.565 524.765 315.565 525.328V530H314.476V529.04H314.42C314.347 529.194 314.223 529.358 314.051 529.534C313.879 529.709 313.649 529.858 313.363 529.982C313.077 530.105 312.728 530.166 312.315 530.166ZM312.481 529.188C312.912 529.188 313.275 529.103 313.571 528.934C313.869 528.764 314.094 528.546 314.245 528.278C314.399 528.01 314.476 527.729 314.476 527.433V526.436C314.43 526.491 314.328 526.542 314.171 526.588C314.017 526.632 313.839 526.67 313.636 526.704C313.436 526.735 313.24 526.762 313.049 526.787C312.862 526.808 312.709 526.827 312.592 526.842C312.309 526.879 312.044 526.939 311.798 527.022C311.555 527.102 311.358 527.224 311.207 527.387C311.06 527.547 310.986 527.766 310.986 528.043C310.986 528.421 311.126 528.707 311.406 528.901C311.689 529.092 312.047 529.188 312.481 529.188ZM317.554 530V522.909H318.606V524.017H318.699C318.846 523.638 319.085 523.345 319.414 523.135C319.744 522.923 320.139 522.817 320.601 522.817C321.068 522.817 321.458 522.923 321.769 523.135C322.083 523.345 322.327 523.638 322.503 524.017H322.577C322.758 523.651 323.03 523.36 323.394 523.145C323.757 522.926 324.192 522.817 324.7 522.817C325.334 522.817 325.853 523.015 326.256 523.412C326.659 523.806 326.861 524.42 326.861 525.254V530H325.771V525.254C325.771 524.731 325.628 524.357 325.342 524.132C325.056 523.908 324.719 523.795 324.331 523.795C323.832 523.795 323.446 523.946 323.172 524.248C322.898 524.546 322.761 524.925 322.761 525.384V530H321.653V525.143C321.653 524.74 321.522 524.416 321.261 524.169C320.999 523.92 320.662 523.795 320.25 523.795C319.967 523.795 319.702 523.871 319.456 524.022C319.213 524.172 319.016 524.382 318.865 524.65C318.717 524.914 318.643 525.22 318.643 525.568V530H317.554ZM333.875 524.497L332.897 524.774C332.835 524.611 332.744 524.453 332.624 524.299C332.507 524.142 332.347 524.012 332.144 523.911C331.941 523.809 331.681 523.759 331.364 523.759C330.93 523.759 330.568 523.859 330.279 524.059C329.993 524.256 329.85 524.506 329.85 524.811C329.85 525.082 329.948 525.296 330.145 525.453C330.342 525.61 330.65 525.741 331.069 525.845L332.121 526.104C332.755 526.258 333.228 526.493 333.538 526.81C333.849 527.124 334.005 527.529 334.005 528.024C334.005 528.43 333.888 528.794 333.654 529.114C333.423 529.434 333.1 529.686 332.684 529.871C332.269 530.055 331.786 530.148 331.235 530.148C330.511 530.148 329.913 529.991 329.439 529.677C328.965 529.363 328.665 528.904 328.539 528.301L329.573 528.043C329.671 528.424 329.857 528.71 330.131 528.901C330.408 529.092 330.77 529.188 331.216 529.188C331.724 529.188 332.127 529.08 332.426 528.864C332.727 528.646 332.878 528.384 332.878 528.08C332.878 527.833 332.792 527.627 332.62 527.461C332.447 527.292 332.183 527.165 331.826 527.082L330.644 526.805C329.994 526.652 329.517 526.413 329.213 526.09C328.911 525.764 328.76 525.356 328.76 524.866C328.76 524.466 328.873 524.112 329.097 523.805C329.325 523.497 329.634 523.255 330.025 523.08C330.419 522.904 330.865 522.817 331.364 522.817C332.066 522.817 332.617 522.971 333.017 523.278C333.42 523.586 333.706 523.992 333.875 524.497Z" fill="#5C5856"/>
<path d="M291 234C291 230.686 293.686 228 297 228H329C332.314 228 335 230.686 335 234V243.613C335 246.226 333.309 248.538 330.819 249.33L314.819 254.421C313.636 254.798 312.364 254.798 311.181 254.421L295.181 249.33C292.691 248.538 291 246.226 291 243.613V234Z" fill="#F5EFEB"/>
<path d="M301.234 243V235H306.195V236.039H302.441V238.477H305.84V239.512H302.441V243H301.234ZM307.511 243V237H308.64V237.953H308.702C308.812 237.63 309.004 237.376 309.28 237.191C309.559 237.004 309.874 236.91 310.226 236.91C310.299 236.91 310.384 236.913 310.483 236.918C310.585 236.923 310.664 236.93 310.722 236.937V238.055C310.675 238.042 310.591 238.027 310.472 238.012C310.352 237.993 310.232 237.984 310.112 237.984C309.836 237.984 309.59 238.043 309.374 238.16C309.16 238.275 308.991 238.435 308.866 238.641C308.741 238.844 308.679 239.076 308.679 239.336V243H307.511ZM314.104 243.121C313.512 243.121 313.003 242.995 312.576 242.742C312.152 242.487 311.824 242.129 311.592 241.668C311.363 241.204 311.248 240.661 311.248 240.039C311.248 239.424 311.363 238.883 311.592 238.414C311.824 237.945 312.146 237.579 312.561 237.316C312.977 237.053 313.464 236.922 314.021 236.922C314.36 236.922 314.688 236.978 315.006 237.09C315.324 237.202 315.609 237.378 315.861 237.617C316.114 237.857 316.313 238.168 316.459 238.551C316.605 238.931 316.678 239.393 316.678 239.937V240.352H311.908V239.477H315.533C315.533 239.169 315.471 238.897 315.346 238.66C315.221 238.421 315.045 238.232 314.818 238.094C314.594 237.956 314.331 237.887 314.029 237.887C313.701 237.887 313.415 237.967 313.17 238.129C312.928 238.288 312.74 238.496 312.607 238.754C312.477 239.009 312.412 239.286 312.412 239.586V240.27C312.412 240.671 312.482 241.012 312.623 241.293C312.766 241.574 312.965 241.789 313.221 241.937C313.476 242.083 313.774 242.156 314.115 242.156C314.337 242.156 314.538 242.125 314.721 242.062C314.903 241.997 315.061 241.901 315.193 241.773C315.326 241.646 315.428 241.488 315.498 241.301L316.604 241.5C316.515 241.826 316.356 242.111 316.127 242.355C315.9 242.598 315.615 242.786 315.271 242.922C314.93 243.055 314.541 243.121 314.104 243.121ZM320.56 243.121C319.968 243.121 319.459 242.995 319.032 242.742C318.608 242.487 318.28 242.129 318.048 241.668C317.819 241.204 317.704 240.661 317.704 240.039C317.704 239.424 317.819 238.883 318.048 238.414C318.28 237.945 318.603 237.579 319.017 237.316C319.433 237.053 319.92 236.922 320.478 236.922C320.816 236.922 321.144 236.978 321.462 237.09C321.78 237.202 322.065 237.378 322.317 237.617C322.57 237.857 322.769 238.168 322.915 238.551C323.061 238.931 323.134 239.393 323.134 239.937V240.352H318.364V239.477H321.989C321.989 239.169 321.927 238.897 321.802 238.66C321.677 238.421 321.501 238.232 321.274 238.094C321.05 237.956 320.787 237.887 320.485 237.887C320.157 237.887 319.871 237.967 319.626 238.129C319.384 238.288 319.196 238.496 319.063 238.754C318.933 239.009 318.868 239.286 318.868 239.586V240.27C318.868 240.671 318.938 241.012 319.079 241.293C319.222 241.574 319.422 241.789 319.677 241.937C319.932 242.083 320.23 242.156 320.571 242.156C320.793 242.156 320.994 242.125 321.177 242.062C321.359 241.997 321.517 241.901 321.649 241.773C321.782 241.646 321.884 241.488 321.954 241.301L323.06 241.5C322.971 241.826 322.812 242.111 322.583 242.355C322.356 242.598 322.071 242.786 321.728 242.922C321.386 243.055 320.997 243.121 320.56 243.121Z" fill="#1A1715"/>
<path d="M0 120C0 116.686 2.68629 114 6 114H38C41.3137 114 44 116.686 44 120V129.613C44 132.226 42.3091 134.538 39.8192 135.33L23.8192 140.421C22.6356 140.798 21.3644 140.798 20.1808 140.421L4.18078 135.33C1.69091 134.538 0 132.226 0 129.613V120Z" fill="#F5EFEB"/>
<path d="M11.2344 129V121H16.1953V122.039H12.4414V124.477H15.8398V125.512H12.4414V129H11.2344ZM17.5107 129V123H18.6396V123.953H18.7021C18.8115 123.63 19.0042 123.376 19.2803 123.191C19.5589 123.004 19.874 122.91 20.2256 122.91C20.2985 122.91 20.3844 122.913 20.4834 122.918C20.585 122.923 20.6644 122.93 20.7217 122.937V124.055C20.6748 124.042 20.5915 124.027 20.4717 124.012C20.3519 123.993 20.2321 123.984 20.1123 123.984C19.8363 123.984 19.5902 124.043 19.374 124.16C19.1605 124.275 18.9912 124.435 18.8662 124.641C18.7412 124.844 18.6787 125.076 18.6787 125.336V129H17.5107ZM24.1035 129.121C23.5124 129.121 23.0033 128.995 22.5762 128.742C22.1517 128.487 21.8236 128.129 21.5918 127.668C21.3626 127.204 21.248 126.661 21.248 126.039C21.248 125.424 21.3626 124.883 21.5918 124.414C21.8236 123.945 22.1465 123.579 22.5605 123.316C22.9772 123.053 23.4642 122.922 24.0215 122.922C24.36 122.922 24.6882 122.978 25.0059 123.09C25.3236 123.202 25.6087 123.378 25.8613 123.617C26.1139 123.857 26.3132 124.168 26.459 124.551C26.6048 124.931 26.6777 125.393 26.6777 125.937V126.352H21.9082V125.477H25.5332C25.5332 125.169 25.4707 124.897 25.3457 124.66C25.2207 124.421 25.0449 124.232 24.8184 124.094C24.5944 123.956 24.3314 123.887 24.0293 123.887C23.7012 123.887 23.4147 123.967 23.1699 124.129C22.9277 124.288 22.7402 124.496 22.6074 124.754C22.4772 125.009 22.4121 125.286 22.4121 125.586V126.27C22.4121 126.671 22.4824 127.012 22.623 127.293C22.7663 127.574 22.9655 127.789 23.2207 127.937C23.4759 128.083 23.7741 128.156 24.1152 128.156C24.3366 128.156 24.5384 128.125 24.7207 128.062C24.903 127.997 25.0605 127.901 25.1934 127.773C25.3262 127.646 25.4277 127.488 25.498 127.301L26.6035 127.5C26.515 127.826 26.3561 128.111 26.127 128.355C25.9004 128.598 25.6152 128.786 25.2715 128.922C24.9303 129.055 24.541 129.121 24.1035 129.121ZM30.5596 129.121C29.9684 129.121 29.4593 128.995 29.0322 128.742C28.6077 128.487 28.2796 128.129 28.0479 127.668C27.8187 127.204 27.7041 126.661 27.7041 126.039C27.7041 125.424 27.8187 124.883 28.0479 124.414C28.2796 123.945 28.6025 123.579 29.0166 123.316C29.4333 123.053 29.9202 122.922 30.4775 122.922C30.8161 122.922 31.1442 122.978 31.4619 123.09C31.7796 123.202 32.0648 123.378 32.3174 123.617C32.57 123.857 32.7692 124.168 32.915 124.551C33.0609 124.931 33.1338 125.393 33.1338 125.937V126.352H28.3643V125.477H31.9893C31.9893 125.169 31.9268 124.897 31.8018 124.66C31.6768 124.421 31.501 124.232 31.2744 124.094C31.0505 123.956 30.7874 123.887 30.4854 123.887C30.1572 123.887 29.8708 123.967 29.626 124.129C29.3838 124.288 29.1963 124.496 29.0635 124.754C28.9333 125.009 28.8682 125.286 28.8682 125.586V126.27C28.8682 126.671 28.9385 127.012 29.0791 127.293C29.2223 127.574 29.4215 127.789 29.6768 127.937C29.932 128.083 30.2301 128.156 30.5713 128.156C30.7926 128.156 30.9945 128.125 31.1768 128.062C31.359 127.997 31.5166 127.901 31.6494 127.773C31.7822 127.646 31.8838 127.488 31.9541 127.301L33.0596 127.5C32.971 127.826 32.8122 128.111 32.583 128.355C32.3564 128.598 32.0713 128.786 31.7275 128.922C31.3864 129.055 30.9971 129.121 30.5596 129.121Z" fill="#1A1715"/>
</g>
<defs>
<linearGradient id="paint0_linear_5005_4430" x1="326.502" y1="654.219" x2="326.501" y2="122.177" gradientUnits="userSpaceOnUse">
<stop offset="0.290314" stop-color="#4B2AAD"/>
<stop offset="0.504917" stop-color="#0055B0"/>
<stop offset="0.716268" stop-color="#006D8E"/>
<stop offset="0.878162" stop-color="#9B5D00"/>
</linearGradient>
<clipPath id="clip0_5005_4430">
<rect width="335" height="536" fill="white"/>
</clipPath>
</defs>
</svg>
