<svg width="768" height="326" viewBox="0 0 768 326" fill="none" xmlns="http://www.w3.org/2000/svg">
<g clip-path="url(#clip0_5005_5272)">
<path d="M71 157C71 153.686 73.6863 151 77 151H114C117.314 151 120 153.686 120 157V170.028C120 172.662 118.282 174.988 115.765 175.763L97.265 181.457C96.1149 181.811 94.8851 181.811 93.735 181.457L75.235 175.763C72.7177 174.988 71 172.662 71 170.028V157Z" fill="#F5EFEB"/>
<path d="M82.277 169V159.545H88.1399V160.773H83.7035V163.654H87.7198V164.877H83.7035V169H82.277ZM89.6945 169V161.909H91.0287V163.036H91.1025C91.2318 162.654 91.4595 162.354 91.7858 162.135C92.1151 161.914 92.4875 161.803 92.903 161.803C92.9891 161.803 93.0907 161.806 93.2077 161.812C93.3277 161.818 93.4215 161.826 93.4893 161.835V163.156C93.4339 163.14 93.3354 163.123 93.1938 163.105C93.0522 163.083 92.9107 163.072 92.7691 163.072C92.4429 163.072 92.152 163.142 91.8966 163.28C91.6442 163.416 91.4442 163.605 91.2964 163.848C91.1487 164.088 91.0748 164.362 91.0748 164.67V169H89.6945ZM97.486 169.143C96.7873 169.143 96.1857 168.994 95.6809 168.695C95.1793 168.394 94.7915 167.971 94.5176 167.426C94.2467 166.878 94.1113 166.236 94.1113 165.501C94.1113 164.774 94.2467 164.134 94.5176 163.58C94.7915 163.026 95.1731 162.594 95.6625 162.283C96.1549 161.972 96.7304 161.817 97.389 161.817C97.7891 161.817 98.1769 161.883 98.5524 162.015C98.9279 162.148 99.2649 162.355 99.5634 162.638C99.8619 162.922 100.097 163.289 100.27 163.742C100.442 164.191 100.528 164.737 100.528 165.381V165.87H94.8915V164.836H99.1756C99.1756 164.473 99.1017 164.151 98.954 163.871C98.8063 163.588 98.5985 163.365 98.3308 163.202C98.0661 163.039 97.7553 162.957 97.3983 162.957C97.0105 162.957 96.6719 163.052 96.3826 163.243C96.0964 163.431 95.8748 163.677 95.7179 163.982C95.564 164.283 95.487 164.611 95.487 164.965V165.773C95.487 166.247 95.5701 166.65 95.7363 166.983C95.9056 167.315 96.141 167.569 96.4426 167.744C96.7443 167.917 97.0967 168.003 97.4998 168.003C97.7614 168.003 97.9999 167.966 98.2154 167.892C98.4308 167.815 98.617 167.701 98.774 167.55C98.9309 167.4 99.051 167.213 99.1341 166.992L100.441 167.227C100.336 167.612 100.148 167.949 99.8773 168.238C99.6096 168.525 99.2725 168.748 98.8663 168.908C98.4631 169.065 98.003 169.143 97.486 169.143ZM105.116 169.143C104.417 169.143 103.816 168.994 103.311 168.695C102.809 168.394 102.421 167.971 102.147 167.426C101.877 166.878 101.741 166.236 101.741 165.501C101.741 164.774 101.877 164.134 102.147 163.58C102.421 163.026 102.803 162.594 103.292 162.283C103.785 161.972 104.36 161.817 105.019 161.817C105.419 161.817 105.807 161.883 106.182 162.015C106.558 162.148 106.895 162.355 107.193 162.638C107.492 162.922 107.727 163.289 107.9 163.742C108.072 164.191 108.158 164.737 108.158 165.381V165.87H102.521V164.836H106.805C106.805 164.473 106.732 164.151 106.584 163.871C106.436 163.588 106.228 163.365 105.961 163.202C105.696 163.039 105.385 162.957 105.028 162.957C104.64 162.957 104.302 163.052 104.013 163.243C103.726 163.431 103.505 163.677 103.348 163.982C103.194 164.283 103.117 164.611 103.117 164.965V165.773C103.117 166.247 103.2 166.65 103.366 166.983C103.535 167.315 103.771 167.569 104.073 167.744C104.374 167.917 104.727 168.003 105.13 168.003C105.391 168.003 105.63 167.966 105.845 167.892C106.061 167.815 106.247 167.701 106.404 167.55C106.561 167.4 106.681 167.213 106.764 166.992L108.07 167.227C107.966 167.612 107.778 167.949 107.507 168.238C107.239 168.525 106.902 168.748 106.496 168.908C106.093 169.065 105.633 169.143 105.116 169.143Z" fill="#1A1715"/>
<path d="M275 142C275 138.686 277.686 136 281 136H318C321.314 136 324 138.686 324 142V155.028C324 157.662 322.282 159.988 319.765 160.763L301.265 166.457C300.115 166.811 298.885 166.811 297.735 166.457L279.235 160.763C276.718 159.988 275 157.662 275 155.028V142Z" fill="#F5EFEB"/>
<path d="M286.277 154V144.545H292.14V145.773H287.703V148.654H291.72V149.877H287.703V154H286.277ZM293.695 154V146.909H295.029V148.036H295.103C295.232 147.654 295.46 147.354 295.786 147.135C296.115 146.914 296.487 146.803 296.903 146.803C296.989 146.803 297.091 146.806 297.208 146.812C297.328 146.818 297.422 146.826 297.489 146.835V148.156C297.434 148.14 297.335 148.123 297.194 148.105C297.052 148.083 296.911 148.072 296.769 148.072C296.443 148.072 296.152 148.142 295.897 148.28C295.644 148.416 295.444 148.605 295.296 148.848C295.149 149.088 295.075 149.362 295.075 149.67V154H293.695ZM301.486 154.143C300.787 154.143 300.186 153.994 299.681 153.695C299.179 153.394 298.791 152.971 298.518 152.426C298.247 151.878 298.111 151.236 298.111 150.501C298.111 149.774 298.247 149.134 298.518 148.58C298.791 148.026 299.173 147.594 299.662 147.283C300.155 146.972 300.73 146.817 301.389 146.817C301.789 146.817 302.177 146.883 302.552 147.015C302.928 147.148 303.265 147.355 303.563 147.638C303.862 147.922 304.097 148.289 304.27 148.742C304.442 149.191 304.528 149.737 304.528 150.381V150.87H298.892V149.836H303.176C303.176 149.473 303.102 149.151 302.954 148.871C302.806 148.588 302.599 148.365 302.331 148.202C302.066 148.039 301.755 147.957 301.398 147.957C301.01 147.957 300.672 148.052 300.383 148.243C300.096 148.431 299.875 148.677 299.718 148.982C299.564 149.283 299.487 149.611 299.487 149.965V150.773C299.487 151.247 299.57 151.65 299.736 151.983C299.906 152.315 300.141 152.569 300.443 152.744C300.744 152.917 301.097 153.003 301.5 153.003C301.761 153.003 302 152.966 302.215 152.892C302.431 152.815 302.617 152.701 302.774 152.55C302.931 152.4 303.051 152.213 303.134 151.992L304.441 152.227C304.336 152.612 304.148 152.949 303.877 153.238C303.61 153.525 303.273 153.748 302.866 153.908C302.463 154.065 302.003 154.143 301.486 154.143ZM309.116 154.143C308.417 154.143 307.816 153.994 307.311 153.695C306.809 153.394 306.421 152.971 306.147 152.426C305.877 151.878 305.741 151.236 305.741 150.501C305.741 149.774 305.877 149.134 306.147 148.58C306.421 148.026 306.803 147.594 307.292 147.283C307.785 146.972 308.36 146.817 309.019 146.817C309.419 146.817 309.807 146.883 310.182 147.015C310.558 147.148 310.895 147.355 311.193 147.638C311.492 147.922 311.727 148.289 311.9 148.742C312.072 149.191 312.158 149.737 312.158 150.381V150.87H306.521V149.836H310.805C310.805 149.473 310.732 149.151 310.584 148.871C310.436 148.588 310.228 148.365 309.961 148.202C309.696 148.039 309.385 147.957 309.028 147.957C308.64 147.957 308.302 148.052 308.013 148.243C307.726 148.431 307.505 148.677 307.348 148.982C307.194 149.283 307.117 149.611 307.117 149.965V150.773C307.117 151.247 307.2 151.65 307.366 151.983C307.535 152.315 307.771 152.569 308.073 152.744C308.374 152.917 308.727 153.003 309.13 153.003C309.391 153.003 309.63 152.966 309.845 152.892C310.061 152.815 310.247 152.701 310.404 152.55C310.561 152.4 310.681 152.213 310.764 151.992L312.07 152.227C311.966 152.612 311.778 152.949 311.507 153.238C311.239 153.525 310.902 153.748 310.496 153.908C310.093 154.065 309.633 154.143 309.116 154.143Z" fill="#1A1715"/>
<path d="M3 205C324.464 205 574.121 158.181 765 3" stroke="url(#paint0_linear_5005_5272)" stroke-width="6" stroke-linecap="round"/>
<circle cx="96.5" cy="203" r="13.5" fill="#9B5D00" stroke="#FDFBF9" stroke-width="3"/>
<path d="M96.5 219L96.5 230" stroke="#DFD8D3" stroke-width="2" stroke-dasharray="4 4"/>
<path d="M75.315 259.25C78.79 259.25 81.665 257.45 81.665 253.95C81.665 250.8 79.64 249.5 76.29 248.3C73.615 247.325 72.665 246.6 72.665 244.85C72.665 243.275 73.765 242.2 75.515 242.2C77.89 242.2 79.315 243.75 79.79 246.4H80.715V242.675C79.49 241.775 77.615 241.2 75.515 241.2C72.015 241.2 69.69 243.325 69.69 246.375C69.69 249.325 71.59 250.675 74.54 251.7C77.54 252.8 78.615 253.575 78.615 255.425C78.615 257.15 77.34 258.25 75.315 258.25C72.79 258.25 71.19 256.3 70.59 253.325H69.54L69.765 257.6C70.89 258.525 72.94 259.25 75.315 259.25ZM87.6102 242.5H86.8602C85.7852 244.15 84.3102 245.55 82.5852 246.325V246.9H84.1352V255.375C84.1352 258.175 85.6352 259.25 87.6852 259.25C89.4852 259.25 90.7352 258.35 91.5352 257.1L91.2352 256.65C90.6102 257.125 90.0602 257.35 89.3602 257.35C88.1852 257.35 87.6102 256.7 87.6102 255.175V246.9H90.8602V245.75H87.6102V242.5ZM97.4428 257.25C96.1178 257.25 95.5178 256.325 95.5178 255.025C95.5178 253.625 96.1678 253.05 97.2178 252.65L99.3678 251.775V256.45C98.6678 256.975 98.1678 257.25 97.4428 257.25ZM102.818 249.6C102.818 246.675 101.068 245.5 97.8678 245.5C95.0928 245.5 92.9428 246.575 92.9428 248.65C92.9428 249.475 93.3678 250 94.0428 250.225L96.1178 249.95C95.9928 249.4 95.9178 248.9 95.9178 248.4C95.9178 247.2 96.3928 246.3 97.5928 246.3C98.8928 246.3 99.3678 247.325 99.3678 248.75V250.875L95.5928 252.25C93.7178 252.95 92.1678 253.825 92.1678 255.975C92.1678 257.975 93.5178 259.2 95.5428 259.2C97.3428 259.2 98.6428 258.1 99.4428 257.05C99.6928 258.425 100.593 259.25 101.943 259.25C103.118 259.25 104.068 258.775 104.793 257.925L104.643 257.375C104.368 257.5 104.018 257.625 103.643 257.625C102.993 257.625 102.818 257.075 102.818 256.225V249.6ZM110.253 249.975C111.528 248.7 112.753 248.625 114.303 248.625H114.778V245.925C114.578 245.675 114.203 245.5 113.678 245.5C112.203 245.5 111.453 246.475 110.253 249.2L110.353 245.5H109.778L105.303 246.875V247.35L106.803 248.225V257.075C106.803 257.95 106.403 258.1 105.228 258.175V259H112.378V258.175C110.828 258.05 110.253 257.9 110.253 256.875V249.975ZM120.276 242.5H119.526C118.451 244.15 116.976 245.55 115.251 246.325V246.9H116.801V255.375C116.801 258.175 118.301 259.25 120.351 259.25C122.151 259.25 123.401 258.35 124.201 257.1L123.901 256.65C123.276 257.125 122.726 257.35 122.026 257.35C120.851 257.35 120.276 256.7 120.276 255.175V246.9H123.526V245.75H120.276V242.5Z" fill="#9B5D00"/>
<path d="M40.6571 285L38.0719 275.545H39.2353L41.2111 283.246H41.3034L43.3162 275.545H44.6088L46.6216 283.246H46.714L48.6898 275.545H49.8532L47.2679 285H46.0861L43.9995 277.466H43.9256L41.839 285H40.6571ZM53.4448 285.148C52.7615 285.148 52.1722 284.997 51.6767 284.695C51.1842 284.391 50.8042 283.966 50.5364 283.421C50.2717 282.873 50.1394 282.236 50.1394 281.51C50.1394 280.784 50.2717 280.143 50.5364 279.589C50.8042 279.032 51.1766 278.598 51.6536 278.288C52.1337 277.974 52.6938 277.817 53.334 277.817C53.7033 277.817 54.068 277.878 54.4281 278.001C54.7882 278.125 55.1159 278.325 55.4114 278.602C55.7069 278.875 55.9423 279.239 56.1177 279.691C56.2931 280.143 56.3809 280.701 56.3809 281.362V281.824H50.915V280.882H55.2729C55.2729 280.482 55.1929 280.125 55.0328 279.811C54.8759 279.497 54.6512 279.249 54.3588 279.068C54.0695 278.886 53.7279 278.795 53.334 278.795C52.9 278.795 52.5246 278.903 52.2076 279.119C51.8936 279.331 51.652 279.608 51.4828 279.95C51.3135 280.291 51.2289 280.657 51.2289 281.048V281.676C51.2289 282.212 51.3212 282.666 51.5059 283.038C51.6936 283.407 51.9537 283.689 52.286 283.883C52.6184 284.074 53.0047 284.169 53.4448 284.169C53.731 284.169 53.9895 284.129 54.2203 284.049C54.4542 283.966 54.6558 283.843 54.8251 283.68C54.9944 283.513 55.1252 283.307 55.2175 283.061L56.2701 283.357C56.1593 283.714 55.9731 284.027 55.7115 284.298C55.4499 284.566 55.1267 284.775 54.742 284.926C54.3573 285.074 53.9249 285.148 53.4448 285.148ZM58.1859 285V275.545H59.2754V279.036H59.3677C59.4477 278.912 59.5585 278.755 59.7001 278.565C59.8448 278.371 60.051 278.198 60.3187 278.048C60.5895 277.894 60.9558 277.817 61.4174 277.817C62.0145 277.817 62.5408 277.966 62.9963 278.265C63.4518 278.563 63.8072 278.986 64.0627 279.534C64.3181 280.082 64.4458 280.728 64.4458 281.473C64.4458 282.224 64.3181 282.875 64.0627 283.426C63.8072 283.974 63.4533 284.398 63.0009 284.7C62.5485 284.998 62.0268 285.148 61.4359 285.148C60.9804 285.148 60.6157 285.072 60.3418 284.922C60.0679 284.768 59.8571 284.594 59.7093 284.4C59.5616 284.203 59.4477 284.04 59.3677 283.911H59.2385V285H58.1859ZM59.2569 281.455C59.2569 281.99 59.3354 282.462 59.4924 282.872C59.6493 283.278 59.8786 283.597 60.1802 283.827C60.4818 284.055 60.8511 284.169 61.2882 284.169C61.7437 284.169 62.1238 284.049 62.4284 283.809C62.7362 283.566 62.967 283.24 63.1209 282.83C63.2779 282.418 63.3564 281.959 63.3564 281.455C63.3564 280.956 63.2794 280.507 63.1255 280.107C62.9747 279.703 62.7454 279.385 62.4377 279.151C62.133 278.914 61.7498 278.795 61.2882 278.795C60.845 278.795 60.4726 278.908 60.171 279.132C59.8694 279.354 59.6416 279.665 59.4877 280.065C59.3339 280.462 59.2569 280.925 59.2569 281.455ZM71.1351 279.497L70.1564 279.774C70.0949 279.611 70.0041 279.453 69.8841 279.299C69.7671 279.142 69.6071 279.012 69.4039 278.911C69.2008 278.809 68.9408 278.759 68.6238 278.759C68.1898 278.759 67.8282 278.859 67.5389 279.059C67.2527 279.256 67.1096 279.506 67.1096 279.811C67.1096 280.082 67.208 280.296 67.405 280.453C67.602 280.61 67.9097 280.741 68.3283 280.845L69.3809 281.104C70.0149 281.258 70.4873 281.493 70.7981 281.81C71.109 282.124 71.2644 282.529 71.2644 283.024C71.2644 283.43 71.1474 283.794 70.9135 284.114C70.6827 284.434 70.3596 284.686 69.9441 284.871C69.5286 285.055 69.0454 285.148 68.4945 285.148C67.7712 285.148 67.1726 284.991 66.6987 284.677C66.2247 284.363 65.9247 283.904 65.7985 283.301L66.8326 283.043C66.931 283.424 67.1172 283.71 67.3912 283.901C67.6681 284.092 68.0298 284.188 68.476 284.188C68.9838 284.188 69.387 284.08 69.6855 283.864C69.9872 283.646 70.138 283.384 70.138 283.08C70.138 282.833 70.0518 282.627 69.8794 282.461C69.7071 282.292 69.4424 282.165 69.0854 282.082L67.9036 281.805C67.2542 281.652 66.7772 281.413 66.4725 281.09C66.1709 280.764 66.0201 280.356 66.0201 279.866C66.0201 279.466 66.1324 279.112 66.3571 278.805C66.5848 278.497 66.8941 278.255 67.285 278.08C67.6789 277.904 68.1252 277.817 68.6238 277.817C69.3255 277.817 69.8764 277.971 70.2765 278.278C70.6796 278.586 70.9658 278.992 71.1351 279.497ZM72.9044 285V277.909H73.9939V285H72.9044ZM73.4584 276.727C73.246 276.727 73.0629 276.655 72.909 276.51C72.7582 276.366 72.6828 276.192 72.6828 275.989C72.6828 275.786 72.7582 275.612 72.909 275.467C73.0629 275.322 73.246 275.25 73.4584 275.25C73.6707 275.25 73.8523 275.322 74.0031 275.467C74.157 275.612 74.2339 275.786 74.2339 275.989C74.2339 276.192 74.157 276.366 74.0031 276.51C73.8523 276.655 73.6707 276.727 73.4584 276.727ZM79.0732 277.909V278.832H75.3984V277.909H79.0732ZM76.4695 276.21H77.5589V282.969C77.5589 283.277 77.6036 283.507 77.6928 283.661C77.7852 283.812 77.9021 283.914 78.0437 283.966C78.1883 284.015 78.3407 284.04 78.5007 284.04C78.6207 284.04 78.7192 284.034 78.7962 284.021C78.8731 284.006 78.9347 283.994 78.9808 283.984L79.2024 284.963C79.1286 284.991 79.0254 285.018 78.8931 285.046C78.7608 285.077 78.593 285.092 78.3899 285.092C78.0821 285.092 77.7805 285.026 77.4851 284.894C77.1927 284.761 76.9496 284.56 76.7557 284.289C76.5649 284.018 76.4695 283.677 76.4695 283.264V276.21ZM83.6088 285.148C82.9256 285.148 82.3362 284.997 81.8407 284.695C81.3483 284.391 80.9682 283.966 80.7005 283.421C80.4358 282.873 80.3034 282.236 80.3034 281.51C80.3034 280.784 80.4358 280.143 80.7005 279.589C80.9682 279.032 81.3406 278.598 81.8176 278.288C82.2978 277.974 82.8579 277.817 83.498 277.817C83.8674 277.817 84.2321 277.878 84.5922 278.001C84.9522 278.125 85.28 278.325 85.5755 278.602C85.8709 278.875 86.1064 279.239 86.2818 279.691C86.4572 280.143 86.5449 280.701 86.5449 281.362V281.824H81.079V280.882H85.437C85.437 280.482 85.3569 280.125 85.1969 279.811C85.04 279.497 84.8153 279.249 84.5229 279.068C84.2336 278.886 83.892 278.795 83.498 278.795C83.0641 278.795 82.6886 278.903 82.3716 279.119C82.0577 279.331 81.8161 279.608 81.6468 279.95C81.4776 280.291 81.3929 280.657 81.3929 281.048V281.676C81.3929 282.212 81.4853 282.666 81.6699 283.038C81.8577 283.407 82.1177 283.689 82.4501 283.883C82.7825 284.074 83.1687 284.169 83.6088 284.169C83.8951 284.169 84.1536 284.129 84.3844 284.049C84.6183 283.966 84.8199 283.843 84.9892 283.68C85.1584 283.513 85.2892 283.307 85.3816 283.061L86.4341 283.357C86.3233 283.714 86.1371 284.027 85.8755 284.298C85.6139 284.566 85.2908 284.775 84.9061 284.926C84.5214 285.074 84.089 285.148 83.6088 285.148Z" fill="#5C5856"/>
<path d="M94.5 283.264C94.1276 283.264 93.7875 283.173 93.4798 282.992C93.172 282.807 92.9258 282.561 92.7411 282.253C92.5595 281.945 92.4688 281.605 92.4688 281.233C92.4688 280.857 92.5595 280.517 92.7411 280.213C92.9258 279.905 93.172 279.66 93.4798 279.479C93.7875 279.294 94.1276 279.202 94.5 279.202C94.8755 279.202 95.2156 279.294 95.5202 279.479C95.828 279.66 96.0727 279.905 96.2543 280.213C96.4389 280.517 96.5312 280.857 96.5312 281.233C96.5312 281.605 96.4389 281.945 96.2543 282.253C96.0727 282.561 95.828 282.807 95.5202 282.992C95.2156 283.173 94.8755 283.264 94.5 283.264Z" fill="#DFD8D3"/>
<path d="M102.693 285V275.545H108.399V276.561H103.838V279.756H108.103V280.771H103.838V283.984H108.473V285H102.693ZM110.315 285V277.909H111.367V279.017H111.459C111.607 278.638 111.846 278.345 112.175 278.135C112.504 277.923 112.9 277.817 113.361 277.817C113.829 277.817 114.219 277.923 114.529 278.135C114.843 278.345 115.088 278.638 115.263 279.017H115.337C115.519 278.651 115.791 278.36 116.154 278.145C116.518 277.926 116.953 277.817 117.461 277.817C118.095 277.817 118.613 278.015 119.017 278.412C119.42 278.806 119.621 279.42 119.621 280.254V285H118.532V280.254C118.532 279.731 118.389 279.357 118.103 279.132C117.816 278.908 117.479 278.795 117.092 278.795C116.593 278.795 116.207 278.946 115.933 279.248C115.659 279.546 115.522 279.925 115.522 280.384V285H114.414V280.143C114.414 279.74 114.283 279.416 114.022 279.169C113.76 278.92 113.423 278.795 113.011 278.795C112.727 278.795 112.463 278.871 112.217 279.022C111.973 279.172 111.776 279.382 111.626 279.65C111.478 279.914 111.404 280.22 111.404 280.568V285H110.315ZM123.7 285.166C123.251 285.166 122.843 285.082 122.477 284.912C122.11 284.74 121.82 284.492 121.604 284.169C121.389 283.843 121.281 283.449 121.281 282.987C121.281 282.581 121.361 282.252 121.521 281.999C121.681 281.744 121.895 281.544 122.163 281.399C122.43 281.254 122.726 281.147 123.049 281.076C123.375 281.002 123.703 280.944 124.032 280.901C124.463 280.845 124.813 280.804 125.08 280.776C125.351 280.745 125.548 280.694 125.671 280.624C125.797 280.553 125.861 280.43 125.861 280.254V280.217C125.861 279.762 125.736 279.408 125.487 279.156C125.24 278.903 124.866 278.777 124.365 278.777C123.845 278.777 123.437 278.891 123.141 279.119C122.846 279.346 122.638 279.589 122.518 279.848L121.484 279.479C121.669 279.048 121.915 278.712 122.223 278.472C122.534 278.229 122.872 278.06 123.238 277.964C123.608 277.866 123.971 277.817 124.328 277.817C124.556 277.817 124.817 277.844 125.113 277.9C125.411 277.952 125.699 278.061 125.976 278.228C126.256 278.394 126.488 278.645 126.673 278.98C126.858 279.316 126.95 279.765 126.95 280.328V285H125.861V284.04H125.805C125.731 284.194 125.608 284.358 125.436 284.534C125.263 284.709 125.034 284.858 124.748 284.982C124.462 285.105 124.112 285.166 123.7 285.166ZM123.866 284.188C124.297 284.188 124.66 284.103 124.956 283.934C125.254 283.764 125.479 283.546 125.63 283.278C125.784 283.01 125.861 282.729 125.861 282.433V281.436C125.814 281.491 125.713 281.542 125.556 281.588C125.402 281.632 125.223 281.67 125.02 281.704C124.82 281.735 124.625 281.762 124.434 281.787C124.246 281.808 124.094 281.827 123.977 281.842C123.694 281.879 123.429 281.939 123.183 282.022C122.94 282.102 122.743 282.224 122.592 282.387C122.444 282.547 122.37 282.766 122.37 283.043C122.37 283.421 122.511 283.707 122.791 283.901C123.074 284.092 123.432 284.188 123.866 284.188ZM128.939 285V277.909H130.028V285H128.939ZM129.493 276.727C129.28 276.727 129.097 276.655 128.943 276.51C128.792 276.366 128.717 276.192 128.717 275.989C128.717 275.786 128.792 275.612 128.943 275.467C129.097 275.322 129.28 275.25 129.493 275.25C129.705 275.25 129.886 275.322 130.037 275.467C130.191 275.612 130.268 275.786 130.268 275.989C130.268 276.192 130.191 276.366 130.037 276.51C129.886 276.655 129.705 276.727 129.493 276.727ZM133.113 275.545V285H132.024V275.545H133.113ZM139.854 275.545V285H138.765V275.545H139.854ZM141.85 285V277.909H142.939V285H141.85ZM142.404 276.727C142.191 276.727 142.008 276.655 141.854 276.51C141.704 276.366 141.628 276.192 141.628 275.989C141.628 275.786 141.704 275.612 141.854 275.467C142.008 275.322 142.191 275.25 142.404 275.25C142.616 275.25 142.798 275.322 142.948 275.467C143.102 275.612 143.179 275.786 143.179 275.989C143.179 276.192 143.102 276.366 142.948 276.51C142.798 276.655 142.616 276.727 142.404 276.727ZM149.957 279.497L148.979 279.774C148.917 279.611 148.826 279.453 148.706 279.299C148.589 279.142 148.429 279.012 148.226 278.911C148.023 278.809 147.763 278.759 147.446 278.759C147.012 278.759 146.65 278.859 146.361 279.059C146.075 279.256 145.932 279.506 145.932 279.811C145.932 280.082 146.03 280.296 146.227 280.453C146.424 280.61 146.732 280.741 147.151 280.845L148.203 281.104C148.837 281.258 149.31 281.493 149.62 281.81C149.931 282.124 150.087 282.529 150.087 283.024C150.087 283.43 149.97 283.794 149.736 284.114C149.505 284.434 149.182 284.686 148.766 284.871C148.351 285.055 147.868 285.148 147.317 285.148C146.594 285.148 145.995 284.991 145.521 284.677C145.047 284.363 144.747 283.904 144.621 283.301L145.655 283.043C145.753 283.424 145.94 283.71 146.213 283.901C146.49 284.092 146.852 284.188 147.298 284.188C147.806 284.188 148.209 284.08 148.508 283.864C148.809 283.646 148.96 283.384 148.96 283.08C148.96 282.833 148.874 282.627 148.702 282.461C148.529 282.292 148.265 282.165 147.908 282.082L146.726 281.805C146.076 281.652 145.599 281.413 145.295 281.09C144.993 280.764 144.842 280.356 144.842 279.866C144.842 279.466 144.955 279.112 145.179 278.805C145.407 278.497 145.716 278.255 146.107 278.08C146.501 277.904 146.947 277.817 147.446 277.817C148.148 277.817 148.699 277.971 149.099 278.278C149.502 278.586 149.788 278.992 149.957 279.497ZM154.81 277.909V278.832H151.136V277.909H154.81ZM152.207 276.21H153.296V282.969C153.296 283.277 153.341 283.507 153.43 283.661C153.522 283.812 153.639 283.914 153.781 283.966C153.926 284.015 154.078 284.04 154.238 284.04C154.358 284.04 154.457 284.034 154.533 284.021C154.61 284.006 154.672 283.994 154.718 283.984L154.94 284.963C154.866 284.991 154.763 285.018 154.63 285.046C154.498 285.077 154.33 285.092 154.127 285.092C153.819 285.092 153.518 285.026 153.222 284.894C152.93 284.761 152.687 284.56 152.493 284.289C152.302 284.018 152.207 283.677 152.207 283.264V276.21Z" fill="#5C5856"/>
<circle cx="300" cy="187" r="13.5" fill="#006D8E" stroke="#FDFBF9" stroke-width="3"/>
<path d="M300 203L300 230" stroke="#DFD8D3" stroke-width="2" stroke-dasharray="4 4"/>
<path d="M277.325 250.5C280.125 250.5 281.375 252 281.375 254.225C281.375 256.7 280.175 258 277.925 258H277.675C276.175 258 275.6 257.65 275.6 256.3V250.5H277.325ZM276.8 242.45C279.125 242.45 280.45 243.625 280.45 245.85C280.45 248.2 279.275 249.4 276.825 249.4H275.6V242.45H276.8ZM278.4 259C282.725 259 285.025 257.3 285.025 254.275C285.025 251.6 282.65 250 279.325 249.9C281.7 249.625 284.025 248.325 284.025 245.8C284.025 242.925 281.85 241.45 278 241.45H269.925V242.325C271.675 242.525 271.925 242.675 271.925 244.05V256.4C271.925 257.775 271.675 257.925 269.925 258.125V259H278.4ZM298.903 248.45L299.003 245.525H298.453L293.903 246.475V247.225L294.278 247.3C295.253 247.475 295.428 247.875 295.428 248.7V256.225C294.628 256.75 293.878 257.175 292.878 257.175C291.503 257.175 290.928 256.275 290.928 254.75V248.5L291.053 245.525H290.503L285.903 246.475V247.225L286.303 247.3C287.278 247.475 287.453 247.875 287.453 248.7V255.2C287.453 258 288.878 259.25 291.078 259.25C293.053 259.25 294.378 258.025 295.428 256.85L295.353 259.25H295.978L300.528 258.35V257.6L299.903 257.55C298.953 257.475 298.903 257.2 298.903 256.35V248.45ZM306.368 245.5H305.818L301.418 246.875V247.35L302.918 248.225V257.075C302.918 257.95 302.518 258.1 301.343 258.175V259H307.943V258.175C306.768 258.1 306.368 257.95 306.368 257.075V245.5ZM304.593 244C305.818 244 306.643 243.075 306.643 242.025C306.643 240.95 305.818 240.05 304.593 240.05C303.393 240.05 302.568 240.95 302.568 242.025C302.568 243.075 303.393 244 304.593 244ZM313.813 239.425H313.263L308.838 240.625V241.15L310.338 241.925V257.075C310.338 257.95 309.938 258.1 308.788 258.175V259H315.363V258.175C314.213 258.1 313.813 257.95 313.813 257.075V239.425ZM323.035 246.625C324.535 246.625 325.36 247.775 325.36 249.725V256.325C324.785 256.85 324.085 257.125 323.235 257.125C320.96 257.125 319.71 254.85 319.71 251.8C319.71 248.675 320.935 246.625 323.035 246.625ZM325.36 241.925V246.425C324.76 245.875 323.81 245.55 322.66 245.55C319.085 245.55 316.285 248.275 316.285 253C316.285 256.8 318.31 259.25 321.335 259.25C323.085 259.25 324.36 258.35 325.36 256.925L325.26 259.25H325.91L330.46 258.35V257.6L329.835 257.55C328.885 257.475 328.835 257.2 328.835 256.35V239.425H328.285L323.86 240.625V241.15L325.36 241.925Z" fill="#006D8E"/>
<path d="M191.033 285H188.115V275.545H191.162C192.079 275.545 192.864 275.735 193.516 276.113C194.169 276.489 194.669 277.029 195.017 277.734C195.365 278.435 195.538 279.276 195.538 280.254C195.538 281.239 195.363 282.087 195.012 282.798C194.661 283.506 194.15 284.051 193.479 284.432C192.809 284.811 191.993 285 191.033 285ZM189.26 283.984H190.959C191.741 283.984 192.388 283.834 192.902 283.532C193.416 283.23 193.8 282.801 194.052 282.244C194.304 281.687 194.43 281.024 194.43 280.254C194.43 279.491 194.306 278.834 194.057 278.283C193.807 277.729 193.435 277.304 192.939 277.009C192.444 276.71 191.827 276.561 191.088 276.561H189.26V283.984ZM200.192 285.148C199.552 285.148 198.99 284.995 198.507 284.691C198.027 284.386 197.651 283.96 197.38 283.412C197.113 282.864 196.979 282.224 196.979 281.491C196.979 280.753 197.113 280.108 197.38 279.557C197.651 279.006 198.027 278.578 198.507 278.274C198.99 277.969 199.552 277.817 200.192 277.817C200.832 277.817 201.392 277.969 201.872 278.274C202.355 278.578 202.731 279.006 202.999 279.557C203.269 280.108 203.405 280.753 203.405 281.491C203.405 282.224 203.269 282.864 202.999 283.412C202.731 283.96 202.355 284.386 201.872 284.691C201.392 284.995 200.832 285.148 200.192 285.148ZM200.192 284.169C200.678 284.169 201.078 284.044 201.392 283.795C201.706 283.546 201.938 283.218 202.089 282.812C202.24 282.406 202.315 281.965 202.315 281.491C202.315 281.018 202.24 280.576 202.089 280.167C201.938 279.757 201.706 279.426 201.392 279.174C201.078 278.922 200.678 278.795 200.192 278.795C199.706 278.795 199.305 278.922 198.992 279.174C198.678 279.426 198.445 279.757 198.294 280.167C198.144 280.576 198.068 281.018 198.068 281.491C198.068 281.965 198.144 282.406 198.294 282.812C198.445 283.218 198.678 283.546 198.992 283.795C199.305 284.044 199.706 284.169 200.192 284.169ZM206.433 285L204.273 277.909H205.418L206.95 283.338H207.024L208.538 277.909H209.702L211.197 283.32H211.271L212.804 277.909H213.949L211.788 285H210.717L209.166 279.553H209.055L207.504 285H206.433ZM216.479 280.734V285H215.389V277.909H216.442V279.017H216.534C216.7 278.657 216.953 278.368 217.291 278.149C217.63 277.928 218.067 277.817 218.602 277.817C219.082 277.817 219.503 277.915 219.863 278.112C220.223 278.306 220.503 278.602 220.703 278.999C220.903 279.393 221.003 279.891 221.003 280.494V285H219.913V280.568C219.913 280.011 219.769 279.577 219.479 279.266C219.19 278.952 218.793 278.795 218.288 278.795C217.941 278.795 217.63 278.871 217.356 279.022C217.085 279.172 216.871 279.393 216.714 279.682C216.557 279.971 216.479 280.322 216.479 280.734ZM224.083 275.545V285H222.994V275.545H224.083ZM228.959 285.148C228.319 285.148 227.758 284.995 227.274 284.691C226.794 284.386 226.419 283.96 226.148 283.412C225.88 282.864 225.746 282.224 225.746 281.491C225.746 280.753 225.88 280.108 226.148 279.557C226.419 279.006 226.794 278.578 227.274 278.274C227.758 277.969 228.319 277.817 228.959 277.817C229.6 277.817 230.16 277.969 230.64 278.274C231.123 278.578 231.498 279.006 231.766 279.557C232.037 280.108 232.172 280.753 232.172 281.491C232.172 282.224 232.037 282.864 231.766 283.412C231.498 283.96 231.123 284.386 230.64 284.691C230.16 284.995 229.6 285.148 228.959 285.148ZM228.959 284.169C229.446 284.169 229.846 284.044 230.16 283.795C230.474 283.546 230.706 283.218 230.857 282.812C231.008 282.406 231.083 281.965 231.083 281.491C231.083 281.018 231.008 280.576 230.857 280.167C230.706 279.757 230.474 279.426 230.16 279.174C229.846 278.922 229.446 278.795 228.959 278.795C228.473 278.795 228.073 278.922 227.759 279.174C227.445 279.426 227.213 279.757 227.062 280.167C226.911 280.576 226.836 281.018 226.836 281.491C226.836 281.965 226.911 282.406 227.062 282.812C227.213 283.218 227.445 283.546 227.759 283.795C228.073 284.044 228.473 284.169 228.959 284.169ZM235.922 285.166C235.473 285.166 235.065 285.082 234.699 284.912C234.333 284.74 234.042 284.492 233.826 284.169C233.611 283.843 233.503 283.449 233.503 282.987C233.503 282.581 233.583 282.252 233.743 281.999C233.903 281.744 234.117 281.544 234.385 281.399C234.653 281.254 234.948 281.147 235.271 281.076C235.597 281.002 235.925 280.944 236.255 280.901C236.685 280.845 237.035 280.804 237.303 280.776C237.573 280.745 237.77 280.694 237.893 280.624C238.02 280.553 238.083 280.43 238.083 280.254V280.217C238.083 279.762 237.958 279.408 237.709 279.156C237.463 278.903 237.089 278.777 236.587 278.777C236.067 278.777 235.659 278.891 235.364 279.119C235.068 279.346 234.86 279.589 234.74 279.848L233.706 279.479C233.891 279.048 234.137 278.712 234.445 278.472C234.756 278.229 235.094 278.06 235.461 277.964C235.83 277.866 236.193 277.817 236.55 277.817C236.778 277.817 237.039 277.844 237.335 277.9C237.633 277.952 237.921 278.061 238.198 278.228C238.478 278.394 238.711 278.645 238.895 278.98C239.08 279.316 239.172 279.765 239.172 280.328V285H238.083V284.04H238.027C237.953 284.194 237.83 284.358 237.658 284.534C237.486 284.709 237.256 284.858 236.97 284.982C236.684 285.105 236.335 285.166 235.922 285.166ZM236.088 284.188C236.519 284.188 236.882 284.103 237.178 283.934C237.476 283.764 237.701 283.546 237.852 283.278C238.006 283.01 238.083 282.729 238.083 282.433V281.436C238.037 281.491 237.935 281.542 237.778 281.588C237.624 281.632 237.446 281.67 237.242 281.704C237.042 281.735 236.847 281.762 236.656 281.787C236.468 281.808 236.316 281.827 236.199 281.842C235.916 281.879 235.651 281.939 235.405 282.022C235.162 282.102 234.965 282.224 234.814 282.387C234.667 282.547 234.593 282.766 234.593 283.043C234.593 283.421 234.733 283.707 235.013 283.901C235.296 284.092 235.654 284.188 236.088 284.188ZM243.838 285.148C243.247 285.148 242.726 284.998 242.273 284.7C241.821 284.398 241.467 283.974 241.212 283.426C240.956 282.875 240.828 282.224 240.828 281.473C240.828 280.728 240.956 280.082 241.212 279.534C241.467 278.986 241.822 278.563 242.278 278.265C242.733 277.966 243.26 277.817 243.857 277.817C244.318 277.817 244.683 277.894 244.951 278.048C245.222 278.198 245.428 278.371 245.569 278.565C245.714 278.755 245.826 278.912 245.906 279.036H245.999V275.545H247.088V285H246.036V283.911H245.906C245.826 284.04 245.713 284.203 245.565 284.4C245.417 284.594 245.206 284.768 244.932 284.922C244.658 285.072 244.294 285.148 243.838 285.148ZM243.986 284.169C244.423 284.169 244.792 284.055 245.094 283.827C245.396 283.597 245.625 283.278 245.782 282.872C245.939 282.462 246.017 281.99 246.017 281.455C246.017 280.925 245.94 280.462 245.786 280.065C245.633 279.665 245.405 279.354 245.103 279.132C244.802 278.908 244.429 278.795 243.986 278.795C243.524 278.795 243.14 278.914 242.832 279.151C242.527 279.385 242.298 279.703 242.144 280.107C241.993 280.507 241.918 280.956 241.918 281.455C241.918 281.959 241.995 282.418 242.149 282.83C242.306 283.24 242.536 283.566 242.841 283.809C243.149 284.049 243.531 284.169 243.986 284.169ZM254.258 279.497L253.279 279.774C253.217 279.611 253.127 279.453 253.007 279.299C252.89 279.142 252.73 279.012 252.527 278.911C252.323 278.809 252.063 278.759 251.746 278.759C251.312 278.759 250.951 278.859 250.661 279.059C250.375 279.256 250.232 279.506 250.232 279.811C250.232 280.082 250.331 280.296 250.528 280.453C250.725 280.61 251.032 280.741 251.451 280.845L252.503 281.104C253.137 281.258 253.61 281.493 253.921 281.81C254.232 282.124 254.387 282.529 254.387 283.024C254.387 283.43 254.27 283.794 254.036 284.114C253.805 284.434 253.482 284.686 253.067 284.871C252.651 285.055 252.168 285.148 251.617 285.148C250.894 285.148 250.295 284.991 249.821 284.677C249.347 284.363 249.047 283.904 248.921 283.301L249.955 283.043C250.054 283.424 250.24 283.71 250.514 283.901C250.791 284.092 251.152 284.188 251.599 284.188C252.106 284.188 252.51 284.08 252.808 283.864C253.11 283.646 253.261 283.384 253.261 283.08C253.261 282.833 253.174 282.627 253.002 282.461C252.83 282.292 252.565 282.165 252.208 282.082L251.026 281.805C250.377 281.652 249.9 281.413 249.595 281.09C249.293 280.764 249.143 280.356 249.143 279.866C249.143 279.466 249.255 279.112 249.48 278.805C249.707 278.497 250.017 278.255 250.408 278.08C250.801 277.904 251.248 277.817 251.746 277.817C252.448 277.817 252.999 277.971 253.399 278.278C253.802 278.586 254.088 278.992 254.258 279.497Z" fill="#5C5856"/>
<path d="M262.5 283.264C262.128 283.264 261.788 283.173 261.48 282.992C261.172 282.807 260.926 282.561 260.741 282.253C260.56 281.945 260.469 281.605 260.469 281.233C260.469 280.857 260.56 280.517 260.741 280.213C260.926 279.905 261.172 279.66 261.48 279.479C261.788 279.294 262.128 279.202 262.5 279.202C262.875 279.202 263.216 279.294 263.52 279.479C263.828 279.66 264.073 279.905 264.254 280.213C264.439 280.517 264.531 280.857 264.531 281.233C264.531 281.605 264.439 281.945 264.254 282.253C264.073 282.561 263.828 282.807 263.52 282.992C263.216 283.173 262.875 283.264 262.5 283.264Z" fill="#DFD8D3"/>
<path d="M278.706 278.5H277.561C277.493 278.171 277.375 277.881 277.206 277.632C277.039 277.383 276.836 277.174 276.596 277.004C276.359 276.832 276.096 276.703 275.807 276.616C275.518 276.53 275.216 276.487 274.902 276.487C274.33 276.487 273.811 276.632 273.346 276.921C272.885 277.21 272.517 277.637 272.243 278.2C271.972 278.763 271.837 279.454 271.837 280.273C271.837 281.091 271.972 281.782 272.243 282.346C272.517 282.909 272.885 283.335 273.346 283.624C273.811 283.914 274.33 284.058 274.902 284.058C275.216 284.058 275.518 284.015 275.807 283.929C276.096 283.843 276.359 283.715 276.596 283.546C276.836 283.373 277.039 283.163 277.206 282.913C277.375 282.661 277.493 282.372 277.561 282.045H278.706C278.62 282.529 278.463 282.961 278.235 283.343C278.007 283.724 277.724 284.049 277.386 284.317C277.047 284.581 276.667 284.783 276.245 284.922C275.827 285.06 275.379 285.129 274.902 285.129C274.096 285.129 273.379 284.932 272.751 284.538C272.123 284.144 271.629 283.584 271.269 282.858C270.909 282.132 270.729 281.27 270.729 280.273C270.729 279.276 270.909 278.414 271.269 277.688C271.629 276.961 272.123 276.401 272.751 276.007C273.379 275.613 274.096 275.416 274.902 275.416C275.379 275.416 275.827 275.485 276.245 275.624C276.667 275.762 277.047 275.966 277.386 276.233C277.724 276.498 278.007 276.821 278.235 277.203C278.463 277.581 278.62 278.014 278.706 278.5ZM283.289 285.148C282.649 285.148 282.087 284.995 281.604 284.691C281.124 284.386 280.748 283.96 280.478 283.412C280.21 282.864 280.076 282.224 280.076 281.491C280.076 280.753 280.21 280.108 280.478 279.557C280.748 279.006 281.124 278.578 281.604 278.274C282.087 277.969 282.649 277.817 283.289 277.817C283.929 277.817 284.489 277.969 284.969 278.274C285.453 278.578 285.828 279.006 286.096 279.557C286.367 280.108 286.502 280.753 286.502 281.491C286.502 282.224 286.367 282.864 286.096 283.412C285.828 283.96 285.453 284.386 284.969 284.691C284.489 284.995 283.929 285.148 283.289 285.148ZM283.289 284.169C283.775 284.169 284.175 284.044 284.489 283.795C284.803 283.546 285.036 283.218 285.186 282.812C285.337 282.406 285.413 281.965 285.413 281.491C285.413 281.018 285.337 280.576 285.186 280.167C285.036 279.757 284.803 279.426 284.489 279.174C284.175 278.922 283.775 278.795 283.289 278.795C282.803 278.795 282.403 278.922 282.089 279.174C281.775 279.426 281.542 279.757 281.392 280.167C281.241 280.576 281.165 281.018 281.165 281.491C281.165 281.965 281.241 282.406 281.392 282.812C281.542 283.218 281.775 283.546 282.089 283.795C282.403 284.044 282.803 284.169 283.289 284.169ZM290.252 285.166C289.802 285.166 289.395 285.082 289.028 284.912C288.662 284.74 288.371 284.492 288.156 284.169C287.94 283.843 287.833 283.449 287.833 282.987C287.833 282.581 287.913 282.252 288.073 281.999C288.233 281.744 288.447 281.544 288.714 281.399C288.982 281.254 289.278 281.147 289.601 281.076C289.927 281.002 290.255 280.944 290.584 280.901C291.015 280.845 291.364 280.804 291.632 280.776C291.903 280.745 292.1 280.694 292.223 280.624C292.349 280.553 292.412 280.43 292.412 280.254V280.217C292.412 279.762 292.288 279.408 292.038 279.156C291.792 278.903 291.418 278.777 290.917 278.777C290.396 278.777 289.989 278.891 289.693 279.119C289.398 279.346 289.19 279.589 289.07 279.848L288.036 279.479C288.221 279.048 288.467 278.712 288.775 278.472C289.085 278.229 289.424 278.06 289.79 277.964C290.159 277.866 290.523 277.817 290.88 277.817C291.107 277.817 291.369 277.844 291.664 277.9C291.963 277.952 292.251 278.061 292.528 278.228C292.808 278.394 293.04 278.645 293.225 278.98C293.409 279.316 293.502 279.765 293.502 280.328V285H292.412V284.04H292.357C292.283 284.194 292.16 284.358 291.988 284.534C291.815 284.709 291.586 284.858 291.3 284.982C291.013 285.105 290.664 285.166 290.252 285.166ZM290.418 284.188C290.849 284.188 291.212 284.103 291.507 283.934C291.806 283.764 292.031 283.546 292.181 283.278C292.335 283.01 292.412 282.729 292.412 282.433V281.436C292.366 281.491 292.265 281.542 292.108 281.588C291.954 281.632 291.775 281.67 291.572 281.704C291.372 281.735 291.177 281.762 290.986 281.787C290.798 281.808 290.646 281.827 290.529 281.842C290.246 281.879 289.981 281.939 289.735 282.022C289.492 282.102 289.295 282.224 289.144 282.387C288.996 282.547 288.922 282.766 288.922 283.043C288.922 283.421 289.062 283.707 289.342 283.901C289.625 284.092 289.984 284.188 290.418 284.188ZM298.371 285.148C297.706 285.148 297.134 284.991 296.654 284.677C296.174 284.363 295.804 283.931 295.546 283.38C295.287 282.829 295.158 282.199 295.158 281.491C295.158 280.771 295.29 280.136 295.555 279.585C295.823 279.031 296.195 278.598 296.672 278.288C297.152 277.974 297.712 277.817 298.353 277.817C298.851 277.817 299.3 277.909 299.701 278.094C300.101 278.278 300.428 278.537 300.684 278.869C300.939 279.202 301.098 279.589 301.159 280.033H300.07C299.987 279.71 299.802 279.423 299.516 279.174C299.233 278.922 298.851 278.795 298.371 278.795C297.946 278.795 297.574 278.906 297.254 279.128C296.937 279.346 296.689 279.656 296.511 280.056C296.335 280.453 296.247 280.919 296.247 281.455C296.247 282.002 296.334 282.479 296.506 282.886C296.681 283.292 296.928 283.607 297.245 283.832C297.565 284.057 297.94 284.169 298.371 284.169C298.654 284.169 298.911 284.12 299.142 284.021C299.373 283.923 299.568 283.781 299.728 283.597C299.888 283.412 300.002 283.19 300.07 282.932H301.159C301.098 283.35 300.945 283.727 300.702 284.063C300.462 284.395 300.144 284.66 299.747 284.857C299.353 285.051 298.894 285.148 298.371 285.148ZM303.842 280.734V285H302.752V275.545H303.842V279.017H303.934C304.1 278.651 304.349 278.36 304.682 278.145C305.017 277.926 305.463 277.817 306.021 277.817C306.504 277.817 306.927 277.914 307.29 278.108C307.653 278.298 307.935 278.592 308.135 278.989C308.338 279.383 308.44 279.885 308.44 280.494V285H307.35V280.568C307.35 280.005 307.204 279.569 306.911 279.262C306.622 278.951 306.221 278.795 305.707 278.795C305.35 278.795 305.03 278.871 304.746 279.022C304.466 279.172 304.245 279.393 304.082 279.682C303.922 279.971 303.842 280.322 303.842 280.734ZM310.433 285V277.909H311.522V285H310.433ZM310.987 276.727C310.774 276.727 310.591 276.655 310.437 276.51C310.287 276.366 310.211 276.192 310.211 275.989C310.211 275.786 310.287 275.612 310.437 275.467C310.591 275.322 310.774 275.25 310.987 275.25C311.199 275.25 311.381 275.322 311.531 275.467C311.685 275.612 311.762 275.786 311.762 275.989C311.762 276.192 311.685 276.366 311.531 276.51C311.381 276.655 311.199 276.727 310.987 276.727ZM314.607 280.734V285H313.518V277.909H314.57V279.017H314.663C314.829 278.657 315.081 278.368 315.42 278.149C315.758 277.928 316.195 277.817 316.731 277.817C317.211 277.817 317.631 277.915 317.991 278.112C318.351 278.306 318.631 278.602 318.831 278.999C319.031 279.393 319.131 279.891 319.131 280.494V285H318.042V280.568C318.042 280.011 317.897 279.577 317.608 279.266C317.319 278.952 316.922 278.795 316.417 278.795C316.069 278.795 315.758 278.871 315.484 279.022C315.213 279.172 315 279.393 314.843 279.682C314.686 279.971 314.607 280.322 314.607 280.734ZM323.984 287.807C323.458 287.807 323.006 287.739 322.627 287.604C322.249 287.471 321.933 287.296 321.681 287.077C321.431 286.862 321.233 286.631 321.085 286.385L321.953 285.776C322.052 285.905 322.176 286.053 322.327 286.219C322.478 286.388 322.684 286.534 322.946 286.657C323.21 286.783 323.557 286.847 323.984 286.847C324.557 286.847 325.029 286.708 325.402 286.431C325.774 286.154 325.96 285.72 325.96 285.129V283.689H325.868C325.788 283.818 325.674 283.978 325.526 284.169C325.382 284.357 325.172 284.525 324.898 284.672C324.628 284.817 324.261 284.889 323.8 284.889C323.227 284.889 322.713 284.754 322.258 284.483C321.805 284.212 321.447 283.818 321.182 283.301C320.921 282.784 320.79 282.156 320.79 281.418C320.79 280.691 320.917 280.059 321.173 279.52C321.428 278.979 321.784 278.56 322.239 278.265C322.695 277.966 323.221 277.817 323.818 277.817C324.28 277.817 324.646 277.894 324.917 278.048C325.191 278.198 325.4 278.371 325.545 278.565C325.692 278.755 325.806 278.912 325.886 279.036H325.997V277.909H327.05V285.203C327.05 285.812 326.911 286.308 326.634 286.69C326.36 287.074 325.991 287.356 325.526 287.534C325.065 287.716 324.551 287.807 323.984 287.807ZM323.947 283.911C324.384 283.911 324.754 283.81 325.055 283.61C325.357 283.41 325.586 283.123 325.743 282.747C325.9 282.372 325.979 281.922 325.979 281.399C325.979 280.888 325.902 280.437 325.748 280.047C325.594 279.656 325.366 279.349 325.065 279.128C324.763 278.906 324.391 278.795 323.947 278.795C323.486 278.795 323.101 278.912 322.793 279.146C322.489 279.38 322.259 279.694 322.105 280.088C321.955 280.482 321.879 280.919 321.879 281.399C321.879 281.892 321.956 282.327 322.11 282.706C322.267 283.081 322.498 283.377 322.803 283.592C323.11 283.804 323.492 283.911 323.947 283.911Z" fill="#5C5856"/>
<path d="M335.5 283.264C335.128 283.264 334.788 283.173 334.48 282.992C334.172 282.807 333.926 282.561 333.741 282.253C333.56 281.945 333.469 281.605 333.469 281.233C333.469 280.857 333.56 280.517 333.741 280.213C333.926 279.905 334.172 279.66 334.48 279.479C334.788 279.294 335.128 279.202 335.5 279.202C335.875 279.202 336.216 279.294 336.52 279.479C336.828 279.66 337.073 279.905 337.254 280.213C337.439 280.517 337.531 280.857 337.531 281.233C337.531 281.605 337.439 281.945 337.254 282.253C337.073 282.561 336.828 282.807 336.52 282.992C336.216 283.173 335.875 283.264 335.5 283.264Z" fill="#DFD8D3"/>
<path d="M351.746 278.5H350.601C350.533 278.171 350.414 277.881 350.245 277.632C350.079 277.383 349.876 277.174 349.636 277.004C349.399 276.832 349.136 276.703 348.846 276.616C348.557 276.53 348.255 276.487 347.942 276.487C347.369 276.487 346.851 276.632 346.386 276.921C345.924 277.21 345.556 277.637 345.282 278.2C345.012 278.763 344.876 279.454 344.876 280.273C344.876 281.091 345.012 281.782 345.282 282.346C345.556 282.909 345.924 283.335 346.386 283.624C346.851 283.914 347.369 284.058 347.942 284.058C348.255 284.058 348.557 284.015 348.846 283.929C349.136 283.843 349.399 283.715 349.636 283.546C349.876 283.373 350.079 283.163 350.245 282.913C350.414 282.661 350.533 282.372 350.601 282.045H351.746C351.659 282.529 351.502 282.961 351.275 283.343C351.047 283.724 350.764 284.049 350.425 284.317C350.087 284.581 349.707 284.783 349.285 284.922C348.866 285.06 348.419 285.129 347.942 285.129C347.135 285.129 346.418 284.932 345.79 284.538C345.162 284.144 344.668 283.584 344.308 282.858C343.948 282.132 343.768 281.27 343.768 280.273C343.768 279.276 343.948 278.414 344.308 277.688C344.668 276.961 345.162 276.401 345.79 276.007C346.418 275.613 347.135 275.416 347.942 275.416C348.419 275.416 348.866 275.485 349.285 275.624C349.707 275.762 350.087 275.966 350.425 276.233C350.764 276.498 351.047 276.821 351.275 277.203C351.502 277.581 351.659 278.014 351.746 278.5ZM356.329 285.148C355.688 285.148 355.127 284.995 354.644 284.691C354.163 284.386 353.788 283.96 353.517 283.412C353.249 282.864 353.115 282.224 353.115 281.491C353.115 280.753 353.249 280.108 353.517 279.557C353.788 279.006 354.163 278.578 354.644 278.274C355.127 277.969 355.688 277.817 356.329 277.817C356.969 277.817 357.529 277.969 358.009 278.274C358.492 278.578 358.868 279.006 359.135 279.557C359.406 280.108 359.542 280.753 359.542 281.491C359.542 282.224 359.406 282.864 359.135 283.412C358.868 283.96 358.492 284.386 358.009 284.691C357.529 284.995 356.969 285.148 356.329 285.148ZM356.329 284.169C356.815 284.169 357.215 284.044 357.529 283.795C357.843 283.546 358.075 283.218 358.226 282.812C358.377 282.406 358.452 281.965 358.452 281.491C358.452 281.018 358.377 280.576 358.226 280.167C358.075 279.757 357.843 279.426 357.529 279.174C357.215 278.922 356.815 278.795 356.329 278.795C355.842 278.795 355.442 278.922 355.128 279.174C354.814 279.426 354.582 279.757 354.431 280.167C354.28 280.576 354.205 281.018 354.205 281.491C354.205 281.965 354.28 282.406 354.431 282.812C354.582 283.218 354.814 283.546 355.128 283.795C355.442 284.044 355.842 284.169 356.329 284.169ZM361.205 285V277.909H362.257V279.017H362.35C362.497 278.638 362.736 278.345 363.065 278.135C363.394 277.923 363.79 277.817 364.252 277.817C364.719 277.817 365.109 277.923 365.42 278.135C365.733 278.345 365.978 278.638 366.154 279.017H366.227C366.409 278.651 366.681 278.36 367.045 278.145C367.408 277.926 367.843 277.817 368.351 277.817C368.985 277.817 369.504 278.015 369.907 278.412C370.31 278.806 370.511 279.42 370.511 280.254V285H369.422V280.254C369.422 279.731 369.279 279.357 368.993 279.132C368.706 278.908 368.369 278.795 367.982 278.795C367.483 278.795 367.097 278.946 366.823 279.248C366.549 279.546 366.412 279.925 366.412 280.384V285H365.304V280.143C365.304 279.74 365.173 279.416 364.912 279.169C364.65 278.92 364.313 278.795 363.901 278.795C363.618 278.795 363.353 278.871 363.107 279.022C362.864 279.172 362.667 279.382 362.516 279.65C362.368 279.914 362.294 280.22 362.294 280.568V285H361.205ZM372.504 285V277.909H373.556V279.017H373.648C373.796 278.638 374.035 278.345 374.364 278.135C374.693 277.923 375.089 277.817 375.55 277.817C376.018 277.817 376.408 277.923 376.718 278.135C377.032 278.345 377.277 278.638 377.452 279.017H377.526C377.708 278.651 377.98 278.36 378.343 278.145C378.707 277.926 379.142 277.817 379.65 277.817C380.284 277.817 380.802 278.015 381.206 278.412C381.609 278.806 381.81 279.42 381.81 280.254V285H380.721V280.254C380.721 279.731 380.578 279.357 380.292 279.132C380.005 278.908 379.668 278.795 379.28 278.795C378.782 278.795 378.396 278.946 378.122 279.248C377.848 279.546 377.711 279.925 377.711 280.384V285H376.603V280.143C376.603 279.74 376.472 279.416 376.211 279.169C375.949 278.92 375.612 278.795 375.2 278.795C374.916 278.795 374.652 278.871 374.405 279.022C374.162 279.172 373.965 279.382 373.815 279.65C373.667 279.914 373.593 280.22 373.593 280.568V285H372.504ZM388.271 282.101V277.909H389.361V285H388.271V283.8H388.197C388.031 284.16 387.773 284.466 387.422 284.718C387.071 284.968 386.628 285.092 386.092 285.092C385.649 285.092 385.255 284.995 384.91 284.801C384.566 284.605 384.295 284.309 384.098 283.915C383.901 283.518 383.802 283.018 383.802 282.415V277.909H384.892V282.341C384.892 282.858 385.036 283.27 385.326 283.578C385.618 283.886 385.991 284.04 386.443 284.04C386.714 284.04 386.989 283.971 387.269 283.832C387.552 283.694 387.789 283.481 387.98 283.195C388.174 282.909 388.271 282.544 388.271 282.101ZM392.446 280.734V285H391.356V277.909H392.409V279.017H392.501C392.667 278.657 392.919 278.368 393.258 278.149C393.597 277.928 394.034 277.817 394.569 277.817C395.049 277.817 395.469 277.915 395.829 278.112C396.189 278.306 396.47 278.602 396.67 278.999C396.87 279.393 396.97 279.891 396.97 280.494V285H395.88V280.568C395.88 280.011 395.736 279.577 395.446 279.266C395.157 278.952 394.76 278.795 394.255 278.795C393.907 278.795 393.597 278.871 393.323 279.022C393.052 279.172 392.838 279.393 392.681 279.682C392.524 279.971 392.446 280.322 392.446 280.734ZM398.961 285V277.909H400.05V285H398.961ZM399.515 276.727C399.302 276.727 399.119 276.655 398.965 276.51C398.814 276.366 398.739 276.192 398.739 275.989C398.739 275.786 398.814 275.612 398.965 275.467C399.119 275.322 399.302 275.25 399.515 275.25C399.727 275.25 399.908 275.322 400.059 275.467C400.213 275.612 400.29 275.786 400.29 275.989C400.29 276.192 400.213 276.366 400.059 276.51C399.908 276.655 399.727 276.727 399.515 276.727ZM405.129 277.909V278.832H401.455V277.909H405.129ZM402.526 276.21H403.615V282.969C403.615 283.277 403.66 283.507 403.749 283.661C403.841 283.812 403.958 283.914 404.1 283.966C404.244 284.015 404.397 284.04 404.557 284.04C404.677 284.04 404.775 284.034 404.852 284.021C404.929 284.006 404.991 283.994 405.037 283.984L405.259 284.963C405.185 284.991 405.082 285.018 404.949 285.046C404.817 285.077 404.649 285.092 404.446 285.092C404.138 285.092 403.837 285.026 403.541 284.894C403.249 284.761 403.006 284.56 402.812 284.289C402.621 284.018 402.526 283.677 402.526 283.264V276.21ZM407.47 287.659C407.285 287.659 407.121 287.644 406.976 287.613C406.831 287.585 406.731 287.558 406.676 287.53L406.953 286.57C407.217 286.637 407.451 286.662 407.655 286.643C407.858 286.625 408.038 286.534 408.195 286.371C408.355 286.211 408.501 285.951 408.633 285.591L408.836 285.037L406.214 277.909H407.396L409.353 283.56H409.427L411.385 277.909H412.566L409.557 286.034C409.421 286.4 409.253 286.703 409.053 286.944C408.853 287.187 408.621 287.367 408.356 287.484C408.095 287.601 407.799 287.659 407.47 287.659Z" fill="#5C5856"/>
<circle cx="503.5" cy="143" r="13.5" fill="#0055B0" stroke="#FDFBF9" stroke-width="3"/>
<path d="M503.5 159L503.5 230" stroke="#DFD8D3" stroke-width="2" stroke-dasharray="4 4"/>
<path d="M484.587 257.525C483.912 258.05 483.087 258.2 482.112 258.2C478.537 258.2 476.887 254.325 476.887 249.975C476.887 245.7 478.462 242.225 482.087 242.225C484.587 242.225 486.037 243.8 486.637 246.7H487.587L487.562 242.65C486.112 241.7 484.212 241.2 481.987 241.2C476.912 241.2 473.012 244.85 473.012 250.65C473.012 255.5 476.112 259.25 481.662 259.25C484.237 259.25 486.412 258.575 488.037 257.525V253.375C488.037 252 488.287 251.825 490.037 251.625V250.775H482.587V251.625C484.362 251.825 484.587 252 484.587 253.375V257.525ZM495.805 249.975C497.08 248.7 498.305 248.625 499.855 248.625H500.33V245.925C500.13 245.675 499.755 245.5 499.23 245.5C497.755 245.5 497.005 246.475 495.805 249.2L495.905 245.5H495.33L490.855 246.875V247.35L492.355 248.225V257.075C492.355 257.95 491.955 258.1 490.78 258.175V259H497.93V258.175C496.38 258.05 495.805 257.9 495.805 256.875V249.975ZM507.487 258.35C505.487 258.35 504.612 255.5 504.612 251.8C504.612 248.525 505.462 246.425 507.312 246.425C509.312 246.425 510.162 249.25 510.162 252.95C510.162 256.225 509.337 258.35 507.487 258.35ZM507.362 259.25C511.087 259.25 513.862 256.35 513.862 252.1C513.862 248.15 511.262 245.5 507.437 245.5C503.712 245.5 500.937 248.425 500.937 252.675C500.937 256.65 503.537 259.25 507.362 259.25ZM529.24 254.8L526.84 248.1C526.765 247.825 526.74 247.625 526.74 247.45C526.74 246.8 527.29 246.725 528.34 246.575V245.75H521.99V246.575C522.79 246.8 523.015 247 523.215 247.525L523.99 249.625L521.84 254.975L519.19 248.1C519.065 247.825 519.04 247.6 519.04 247.4C519.04 246.85 519.515 246.7 520.465 246.575V245.75H513.94V246.575C514.84 246.825 514.99 247 515.215 247.525L520.165 259.175H521.215L524.54 251.1L527.54 259.175H528.615L533.34 247.525C533.565 247 533.74 246.825 534.615 246.575V245.75H530.44V246.575C531.465 246.7 531.99 246.825 531.99 247.425C531.99 247.6 531.94 247.85 531.865 248.1L529.24 254.8Z" fill="#0055B0"/>
<path d="M451.375 278.5H450.23C450.162 278.171 450.044 277.881 449.875 277.632C449.708 277.383 449.505 277.174 449.265 277.004C449.028 276.832 448.765 276.703 448.476 276.616C448.186 276.53 447.885 276.487 447.571 276.487C446.998 276.487 446.48 276.632 446.015 276.921C445.554 277.21 445.186 277.637 444.912 278.2C444.641 278.763 444.506 279.454 444.506 280.273C444.506 281.091 444.641 281.782 444.912 282.346C445.186 282.909 445.554 283.335 446.015 283.624C446.48 283.914 446.998 284.058 447.571 284.058C447.885 284.058 448.186 284.015 448.476 283.929C448.765 283.843 449.028 283.715 449.265 283.546C449.505 283.373 449.708 283.163 449.875 282.913C450.044 282.661 450.162 282.372 450.23 282.045H451.375C451.289 282.529 451.132 282.961 450.904 283.343C450.676 283.724 450.393 284.049 450.055 284.317C449.716 284.581 449.336 284.783 448.914 284.922C448.496 285.06 448.048 285.129 447.571 285.129C446.765 285.129 446.047 284.932 445.42 284.538C444.792 284.144 444.298 283.584 443.938 282.858C443.578 282.132 443.398 281.27 443.398 280.273C443.398 279.276 443.578 278.414 443.938 277.688C444.298 276.961 444.792 276.401 445.42 276.007C446.047 275.613 446.765 275.416 447.571 275.416C448.048 275.416 448.496 275.485 448.914 275.624C449.336 275.762 449.716 275.966 450.055 276.233C450.393 276.498 450.676 276.821 450.904 277.203C451.132 277.581 451.289 278.014 451.375 278.5ZM455.958 285.148C455.318 285.148 454.756 284.995 454.273 284.691C453.793 284.386 453.417 283.96 453.146 283.412C452.879 282.864 452.745 282.224 452.745 281.491C452.745 280.753 452.879 280.108 453.146 279.557C453.417 279.006 453.793 278.578 454.273 278.274C454.756 277.969 455.318 277.817 455.958 277.817C456.598 277.817 457.158 277.969 457.638 278.274C458.122 278.578 458.497 279.006 458.765 279.557C459.036 280.108 459.171 280.753 459.171 281.491C459.171 282.224 459.036 282.864 458.765 283.412C458.497 283.96 458.122 284.386 457.638 284.691C457.158 284.995 456.598 285.148 455.958 285.148ZM455.958 284.169C456.444 284.169 456.844 284.044 457.158 283.795C457.472 283.546 457.704 283.218 457.855 282.812C458.006 282.406 458.081 281.965 458.081 281.491C458.081 281.018 458.006 280.576 457.855 280.167C457.704 279.757 457.472 279.426 457.158 279.174C456.844 278.922 456.444 278.795 455.958 278.795C455.472 278.795 455.072 278.922 454.758 279.174C454.444 279.426 454.211 279.757 454.061 280.167C453.91 280.576 453.834 281.018 453.834 281.491C453.834 281.965 453.91 282.406 454.061 282.812C454.211 283.218 454.444 283.546 454.758 283.795C455.072 284.044 455.472 284.169 455.958 284.169ZM465.303 282.101V277.909H466.392V285H465.303V283.8H465.229C465.063 284.16 464.804 284.466 464.453 284.718C464.103 284.968 463.659 285.092 463.124 285.092C462.681 285.092 462.287 284.995 461.942 284.801C461.597 284.605 461.326 284.309 461.13 283.915C460.933 283.518 460.834 283.018 460.834 282.415V277.909H461.924V282.341C461.924 282.858 462.068 283.27 462.358 283.578C462.65 283.886 463.022 284.04 463.475 284.04C463.746 284.04 464.021 283.971 464.301 283.832C464.584 283.694 464.821 283.481 465.012 283.195C465.206 282.909 465.303 282.544 465.303 282.101ZM468.388 285V277.909H469.44V278.98H469.514C469.643 278.629 469.877 278.345 470.216 278.126C470.554 277.908 470.936 277.798 471.361 277.798C471.441 277.798 471.541 277.8 471.661 277.803C471.781 277.806 471.872 277.811 471.933 277.817V278.925C471.896 278.915 471.812 278.902 471.679 278.883C471.55 278.862 471.413 278.851 471.268 278.851C470.924 278.851 470.616 278.923 470.345 279.068C470.077 279.209 469.865 279.406 469.708 279.659C469.554 279.908 469.477 280.193 469.477 280.513V285H468.388ZM478.247 279.497L477.269 279.774C477.207 279.611 477.116 279.453 476.996 279.299C476.879 279.142 476.719 279.012 476.516 278.911C476.313 278.809 476.053 278.759 475.736 278.759C475.302 278.759 474.94 278.859 474.651 279.059C474.365 279.256 474.222 279.506 474.222 279.811C474.222 280.082 474.32 280.296 474.517 280.453C474.714 280.61 475.022 280.741 475.441 280.845L476.493 281.104C477.127 281.258 477.6 281.493 477.91 281.81C478.221 282.124 478.377 282.529 478.377 283.024C478.377 283.43 478.26 283.794 478.026 284.114C477.795 284.434 477.472 284.686 477.056 284.871C476.641 285.055 476.158 285.148 475.607 285.148C474.884 285.148 474.285 284.991 473.811 284.677C473.337 284.363 473.037 283.904 472.911 283.301L473.945 283.043C474.043 283.424 474.23 283.71 474.503 283.901C474.78 284.092 475.142 284.188 475.588 284.188C476.096 284.188 476.499 284.08 476.798 283.864C477.099 283.646 477.25 283.384 477.25 283.08C477.25 282.833 477.164 282.627 476.992 282.461C476.819 282.292 476.555 282.165 476.198 282.082L475.016 281.805C474.367 281.652 473.889 281.413 473.585 281.09C473.283 280.764 473.132 280.356 473.132 279.866C473.132 279.466 473.245 279.112 473.469 278.805C473.697 278.497 474.006 278.255 474.397 278.08C474.791 277.904 475.237 277.817 475.736 277.817C476.438 277.817 476.989 277.971 477.389 278.278C477.792 278.586 478.078 278.992 478.247 279.497ZM482.99 285.148C482.306 285.148 481.717 284.997 481.222 284.695C480.729 284.391 480.349 283.966 480.081 283.421C479.817 282.873 479.684 282.236 479.684 281.51C479.684 280.784 479.817 280.143 480.081 279.589C480.349 279.032 480.721 278.598 481.199 278.288C481.679 277.974 482.239 277.817 482.879 277.817C483.248 277.817 483.613 277.878 483.973 278.001C484.333 278.125 484.661 278.325 484.956 278.602C485.252 278.875 485.487 279.239 485.663 279.691C485.838 280.143 485.926 280.701 485.926 281.362V281.824H480.46V280.882H484.818C484.818 280.482 484.738 280.125 484.578 279.811C484.421 279.497 484.196 279.249 483.904 279.068C483.614 278.886 483.273 278.795 482.879 278.795C482.445 278.795 482.069 278.903 481.752 279.119C481.439 279.331 481.197 279.608 481.028 279.95C480.858 280.291 480.774 280.657 480.774 281.048V281.676C480.774 282.212 480.866 282.666 481.051 283.038C481.239 283.407 481.499 283.689 481.831 283.883C482.163 284.074 482.55 284.169 482.99 284.169C483.276 284.169 483.534 284.129 483.765 284.049C483.999 283.966 484.201 283.843 484.37 283.68C484.539 283.513 484.67 283.307 484.762 283.061L485.815 283.357C485.704 283.714 485.518 284.027 485.256 284.298C484.995 284.566 484.672 284.775 484.287 284.926C483.902 285.074 483.47 285.148 482.99 285.148ZM492.606 279.497L491.627 279.774C491.566 279.611 491.475 279.453 491.355 279.299C491.238 279.142 491.078 279.012 490.875 278.911C490.672 278.809 490.411 278.759 490.094 278.759C489.661 278.759 489.299 278.859 489.01 279.059C488.723 279.256 488.58 279.506 488.58 279.811C488.58 280.082 488.679 280.296 488.876 280.453C489.073 280.61 489.38 280.741 489.799 280.845L490.852 281.104C491.486 281.258 491.958 281.493 492.269 281.81C492.58 282.124 492.735 282.529 492.735 283.024C492.735 283.43 492.618 283.794 492.384 284.114C492.153 284.434 491.83 284.686 491.415 284.871C490.999 285.055 490.516 285.148 489.965 285.148C489.242 285.148 488.643 284.991 488.169 284.677C487.695 284.363 487.395 283.904 487.269 283.301L488.303 283.043C488.402 283.424 488.588 283.71 488.862 283.901C489.139 284.092 489.5 284.188 489.947 284.188C490.455 284.188 490.858 284.08 491.156 283.864C491.458 283.646 491.609 283.384 491.609 283.08C491.609 282.833 491.522 282.627 491.35 282.461C491.178 282.292 490.913 282.165 490.556 282.082L489.374 281.805C488.725 281.652 488.248 281.413 487.943 281.09C487.642 280.764 487.491 280.356 487.491 279.866C487.491 279.466 487.603 279.112 487.828 278.805C488.056 278.497 488.365 278.255 488.756 278.08C489.15 277.904 489.596 277.817 490.094 277.817C490.796 277.817 491.347 277.971 491.747 278.278C492.15 278.586 492.437 278.992 492.606 279.497Z" fill="#5C5856"/>
<path d="M500.5 283.264C500.128 283.264 499.788 283.173 499.48 282.992C499.172 282.807 498.926 282.561 498.741 282.253C498.56 281.945 498.469 281.605 498.469 281.233C498.469 280.857 498.56 280.517 498.741 280.213C498.926 279.905 499.172 279.66 499.48 279.479C499.788 279.294 500.128 279.202 500.5 279.202C500.875 279.202 501.216 279.294 501.52 279.479C501.828 279.66 502.073 279.905 502.254 280.213C502.439 280.517 502.531 280.857 502.531 281.233C502.531 281.605 502.439 281.945 502.254 282.253C502.073 282.561 501.828 282.807 501.52 282.992C501.216 283.173 500.875 283.264 500.5 283.264Z" fill="#DFD8D3"/>
<path d="M510.38 285L507.795 275.545H508.958L510.934 283.246H511.027L513.039 275.545H514.332L516.345 283.246H516.437L518.413 275.545H519.576L516.991 285H515.809L513.723 277.466H513.649L511.562 285H510.38ZM523.168 285.148C522.485 285.148 521.895 284.997 521.4 284.695C520.907 284.391 520.527 283.966 520.26 283.421C519.995 282.873 519.863 282.236 519.863 281.51C519.863 280.784 519.995 280.143 520.26 279.589C520.527 279.032 520.9 278.598 521.377 278.288C521.857 277.974 522.417 277.817 523.057 277.817C523.426 277.817 523.791 277.878 524.151 278.001C524.511 278.125 524.839 278.325 525.135 278.602C525.43 278.875 525.665 279.239 525.841 279.691C526.016 280.143 526.104 280.701 526.104 281.362V281.824H520.638V280.882H524.996C524.996 280.482 524.916 280.125 524.756 279.811C524.599 279.497 524.374 279.249 524.082 279.068C523.793 278.886 523.451 278.795 523.057 278.795C522.623 278.795 522.248 278.903 521.931 279.119C521.617 279.331 521.375 279.608 521.206 279.95C521.037 280.291 520.952 280.657 520.952 281.048V281.676C520.952 282.212 521.044 282.666 521.229 283.038C521.417 283.407 521.677 283.689 522.009 283.883C522.342 284.074 522.728 284.169 523.168 284.169C523.454 284.169 523.713 284.129 523.943 284.049C524.177 283.966 524.379 283.843 524.548 283.68C524.718 283.513 524.848 283.307 524.941 283.061L525.993 283.357C525.882 283.714 525.696 284.027 525.435 284.298C525.173 284.566 524.85 284.775 524.465 284.926C524.08 285.074 523.648 285.148 523.168 285.148ZM527.909 285V275.545H528.999V279.036H529.091C529.171 278.912 529.282 278.755 529.423 278.565C529.568 278.371 529.774 278.198 530.042 278.048C530.313 277.894 530.679 277.817 531.141 277.817C531.738 277.817 532.264 277.966 532.719 278.265C533.175 278.563 533.53 278.986 533.786 279.534C534.041 280.082 534.169 280.728 534.169 281.473C534.169 282.224 534.041 282.875 533.786 283.426C533.53 283.974 533.176 284.398 532.724 284.7C532.272 284.998 531.75 285.148 531.159 285.148C530.704 285.148 530.339 285.072 530.065 284.922C529.791 284.768 529.58 284.594 529.432 284.4C529.285 284.203 529.171 284.04 529.091 283.911H528.962V285H527.909ZM528.98 281.455C528.98 281.99 529.059 282.462 529.216 282.872C529.372 283.278 529.602 283.597 529.903 283.827C530.205 284.055 530.574 284.169 531.011 284.169C531.467 284.169 531.847 284.049 532.152 283.809C532.459 283.566 532.69 283.24 532.844 282.83C533.001 282.418 533.08 281.959 533.08 281.455C533.08 280.956 533.003 280.507 532.849 280.107C532.698 279.703 532.469 279.385 532.161 279.151C531.856 278.914 531.473 278.795 531.011 278.795C530.568 278.795 530.196 278.908 529.894 279.132C529.593 279.354 529.365 279.665 529.211 280.065C529.057 280.462 528.98 280.925 528.98 281.455ZM535.836 285V277.909H536.925V285H535.836ZM536.39 276.727C536.177 276.727 535.994 276.655 535.84 276.51C535.689 276.366 535.614 276.192 535.614 275.989C535.614 275.786 535.689 275.612 535.84 275.467C535.994 275.322 536.177 275.25 536.39 275.25C536.602 275.25 536.783 275.322 536.934 275.467C537.088 275.612 537.165 275.786 537.165 275.989C537.165 276.192 537.088 276.366 536.934 276.51C536.783 276.655 536.602 276.727 536.39 276.727ZM540.01 280.734V285H538.92V277.909H539.973V279.017H540.065C540.232 278.657 540.484 278.368 540.822 278.149C541.161 277.928 541.598 277.817 542.134 277.817C542.614 277.817 543.034 277.915 543.394 278.112C543.754 278.306 544.034 278.602 544.234 278.999C544.434 279.393 544.534 279.891 544.534 280.494V285H543.445V280.568C543.445 280.011 543.3 279.577 543.011 279.266C542.721 278.952 542.324 278.795 541.82 278.795C541.472 278.795 541.161 278.871 540.887 279.022C540.616 279.172 540.402 279.393 540.245 279.682C540.088 279.971 540.01 280.322 540.01 280.734ZM548.612 285.166C548.162 285.166 547.755 285.082 547.388 284.912C547.022 284.74 546.731 284.492 546.516 284.169C546.3 283.843 546.193 283.449 546.193 282.987C546.193 282.581 546.273 282.252 546.433 281.999C546.593 281.744 546.807 281.544 547.074 281.399C547.342 281.254 547.638 281.147 547.961 281.076C548.287 281.002 548.615 280.944 548.944 280.901C549.375 280.845 549.724 280.804 549.992 280.776C550.263 280.745 550.46 280.694 550.583 280.624C550.709 280.553 550.772 280.43 550.772 280.254V280.217C550.772 279.762 550.648 279.408 550.398 279.156C550.152 278.903 549.778 278.777 549.276 278.777C548.756 278.777 548.348 278.891 548.053 279.119C547.758 279.346 547.55 279.589 547.43 279.848L546.396 279.479C546.58 279.048 546.827 278.712 547.134 278.472C547.445 278.229 547.784 278.06 548.15 277.964C548.519 277.866 548.882 277.817 549.239 277.817C549.467 277.817 549.729 277.844 550.024 277.9C550.323 277.952 550.611 278.061 550.888 278.228C551.168 278.394 551.4 278.645 551.585 278.98C551.769 279.316 551.862 279.765 551.862 280.328V285H550.772V284.04H550.717C550.643 284.194 550.52 284.358 550.347 284.534C550.175 284.709 549.946 284.858 549.66 284.982C549.373 285.105 549.024 285.166 548.612 285.166ZM548.778 284.188C549.209 284.188 549.572 284.103 549.867 283.934C550.166 283.764 550.391 283.546 550.541 283.278C550.695 283.01 550.772 282.729 550.772 282.433V281.436C550.726 281.491 550.624 281.542 550.467 281.588C550.314 281.632 550.135 281.67 549.932 281.704C549.732 281.735 549.536 281.762 549.346 281.787C549.158 281.808 549.006 281.827 548.889 281.842C548.605 281.879 548.341 281.939 548.095 282.022C547.851 282.102 547.654 282.224 547.504 282.387C547.356 282.547 547.282 282.766 547.282 283.043C547.282 283.421 547.422 283.707 547.702 283.901C547.985 284.092 548.344 284.188 548.778 284.188ZM553.85 285V277.909H554.903V278.98H554.977C555.106 278.629 555.34 278.345 555.678 278.126C556.017 277.908 556.398 277.798 556.823 277.798C556.903 277.798 557.003 277.8 557.123 277.803C557.243 277.806 557.334 277.811 557.396 277.817V278.925C557.359 278.915 557.274 278.902 557.142 278.883C557.012 278.862 556.876 278.851 556.731 278.851C556.386 278.851 556.078 278.923 555.808 279.068C555.54 279.209 555.327 279.406 555.17 279.659C555.017 279.908 554.94 280.193 554.94 280.513V285H553.85ZM563.71 279.497L562.731 279.774C562.67 279.611 562.579 279.453 562.459 279.299C562.342 279.142 562.182 279.012 561.979 278.911C561.776 278.809 561.515 278.759 561.198 278.759C560.765 278.759 560.403 278.859 560.114 279.059C559.827 279.256 559.684 279.506 559.684 279.811C559.684 280.082 559.783 280.296 559.98 280.453C560.177 280.61 560.484 280.741 560.903 280.845L561.956 281.104C562.59 281.258 563.062 281.493 563.373 281.81C563.684 282.124 563.839 282.529 563.839 283.024C563.839 283.43 563.722 283.794 563.488 284.114C563.257 284.434 562.934 284.686 562.519 284.871C562.103 285.055 561.62 285.148 561.069 285.148C560.346 285.148 559.747 284.991 559.273 284.677C558.799 284.363 558.499 283.904 558.373 283.301L559.407 283.043C559.506 283.424 559.692 283.71 559.966 283.901C560.243 284.092 560.604 284.188 561.051 284.188C561.559 284.188 561.962 284.08 562.26 283.864C562.562 283.646 562.713 283.384 562.713 283.08C562.713 282.833 562.626 282.627 562.454 282.461C562.282 282.292 562.017 282.165 561.66 282.082L560.478 281.805C559.829 281.652 559.352 281.413 559.047 281.09C558.746 280.764 558.595 280.356 558.595 279.866C558.595 279.466 558.707 279.112 558.932 278.805C559.16 278.497 559.469 278.255 559.86 278.08C560.254 277.904 560.7 277.817 561.198 277.817C561.9 277.817 562.451 277.971 562.851 278.278C563.254 278.586 563.541 278.992 563.71 279.497Z" fill="#5C5856"/>
<circle cx="692" cy="58" r="13.5" fill="#4B2AAD" stroke="#FDFBF9" stroke-width="3"/>
<path d="M692 74L692 230" stroke="#DFD8D3" stroke-width="2" stroke-dasharray="4 4"/>
<path d="M669.13 259.25C672.605 259.25 675.48 257.45 675.48 253.95C675.48 250.8 673.455 249.5 670.105 248.3C667.43 247.325 666.48 246.6 666.48 244.85C666.48 243.275 667.58 242.2 669.33 242.2C671.705 242.2 673.13 243.75 673.605 246.4H674.53V242.675C673.305 241.775 671.43 241.2 669.33 241.2C665.83 241.2 663.505 243.325 663.505 246.375C663.505 249.325 665.405 250.675 668.355 251.7C671.355 252.8 672.43 253.575 672.43 255.425C672.43 257.15 671.155 258.25 669.13 258.25C666.605 258.25 665.005 256.3 664.405 253.325H663.355L663.58 257.6C664.705 258.525 666.755 259.25 669.13 259.25ZM680.121 251.375C680.121 248.6 681.221 246.45 683.121 246.45C684.521 246.45 684.946 247.55 684.946 248.875C684.946 249.325 684.896 249.7 684.846 250.1H686.746C687.271 249.85 687.696 249.225 687.696 248.425C687.696 246.5 685.996 245.5 683.546 245.5C679.596 245.5 677.071 248.65 677.071 252.825C677.071 256.75 679.546 259.25 682.896 259.25C685.446 259.25 687.296 257.9 688.071 255.175L687.646 254.925C686.821 256.15 685.721 256.775 684.146 256.775C681.621 256.775 680.121 254.65 680.121 251.375ZM694.334 257.25C693.009 257.25 692.409 256.325 692.409 255.025C692.409 253.625 693.059 253.05 694.109 252.65L696.259 251.775V256.45C695.559 256.975 695.059 257.25 694.334 257.25ZM699.709 249.6C699.709 246.675 697.959 245.5 694.759 245.5C691.984 245.5 689.834 246.575 689.834 248.65C689.834 249.475 690.259 250 690.934 250.225L693.009 249.95C692.884 249.4 692.809 248.9 692.809 248.4C692.809 247.2 693.284 246.3 694.484 246.3C695.784 246.3 696.259 247.325 696.259 248.75V250.875L692.484 252.25C690.609 252.95 689.059 253.825 689.059 255.975C689.059 257.975 690.409 259.2 692.434 259.2C694.234 259.2 695.534 258.1 696.334 257.05C696.584 258.425 697.484 259.25 698.834 259.25C700.009 259.25 700.959 258.775 701.684 257.925L701.534 257.375C701.259 257.5 700.909 257.625 700.534 257.625C699.884 257.625 699.709 257.075 699.709 256.225V249.6ZM707.095 239.425H706.545L702.12 240.625V241.15L703.62 241.925V257.075C703.62 257.95 703.22 258.1 702.07 258.175V259H708.645V258.175C707.495 258.1 707.095 257.95 707.095 257.075V239.425ZM715.767 245.5C712.342 245.5 709.592 248.45 709.592 252.725C709.592 256.575 712.017 259.25 715.642 259.25C718.517 259.25 720.342 257.55 720.992 255.075L720.592 254.85C719.692 256.15 718.567 256.875 716.867 256.875C714.417 256.875 712.617 254.8 712.717 251.3H720.867V250.725C720.867 247.725 719.117 245.5 715.767 245.5ZM715.517 246.425C717.142 246.425 717.767 248.025 717.767 250.375H712.767C712.967 248.075 713.867 246.425 715.517 246.425Z" fill="#4B2AAD"/>
<path d="M639.163 285H637.963L641.434 275.545H642.616L646.088 285H644.887L642.062 277.041H641.988L639.163 285ZM639.606 281.307H644.444V282.322H639.606V281.307ZM650.57 277.909V278.832H646.748V277.909H650.57ZM647.893 285V276.93C647.893 276.524 647.988 276.186 648.179 275.915C648.37 275.644 648.618 275.441 648.922 275.305C649.227 275.17 649.549 275.102 649.887 275.102C650.155 275.102 650.373 275.124 650.543 275.167C650.712 275.21 650.838 275.25 650.921 275.287L650.607 276.229C650.552 276.21 650.475 276.187 650.376 276.159C650.281 276.132 650.155 276.118 649.998 276.118C649.638 276.118 649.378 276.209 649.218 276.39C649.061 276.572 648.982 276.838 648.982 277.189V285H647.893ZM655.255 277.909V278.832H651.432V277.909H655.255ZM652.577 285V276.93C652.577 276.524 652.673 276.186 652.864 275.915C653.054 275.644 653.302 275.441 653.607 275.305C653.912 275.17 654.233 275.102 654.572 275.102C654.839 275.102 655.058 275.124 655.227 275.167C655.396 275.21 655.523 275.25 655.606 275.287L655.292 276.229C655.236 276.21 655.16 276.187 655.061 276.159C654.966 276.132 654.839 276.118 654.682 276.118C654.322 276.118 654.062 276.209 653.902 276.39C653.745 276.572 653.667 276.838 653.667 277.189V285H652.577ZM656.782 285V277.909H657.871V285H656.782ZM657.336 276.727C657.123 276.727 656.94 276.655 656.786 276.51C656.636 276.366 656.56 276.192 656.56 275.989C656.56 275.786 656.636 275.612 656.786 275.467C656.94 275.322 657.123 275.25 657.336 275.25C657.548 275.25 657.73 275.322 657.881 275.467C658.034 275.612 658.111 275.786 658.111 275.989C658.111 276.192 658.034 276.366 657.881 276.51C657.73 276.655 657.548 276.727 657.336 276.727ZM660.956 275.545V285H659.867V275.545H660.956ZM662.952 285V277.909H664.041V285H662.952ZM663.506 276.727C663.293 276.727 663.11 276.655 662.956 276.51C662.806 276.366 662.73 276.192 662.73 275.989C662.73 275.786 662.806 275.612 662.956 275.467C663.11 275.322 663.293 275.25 663.506 275.25C663.718 275.25 663.9 275.322 664.05 275.467C664.204 275.612 664.281 275.786 664.281 275.989C664.281 276.192 664.204 276.366 664.05 276.51C663.9 276.655 663.718 276.727 663.506 276.727ZM668.123 285.166C667.674 285.166 667.266 285.082 666.9 284.912C666.534 284.74 666.243 284.492 666.027 284.169C665.812 283.843 665.704 283.449 665.704 282.987C665.704 282.581 665.784 282.252 665.944 281.999C666.104 281.744 666.318 281.544 666.586 281.399C666.854 281.254 667.149 281.147 667.472 281.076C667.799 281.002 668.126 280.944 668.456 280.901C668.887 280.845 669.236 280.804 669.504 280.776C669.775 280.745 669.971 280.694 670.095 280.624C670.221 280.553 670.284 280.43 670.284 280.254V280.217C670.284 279.762 670.159 279.408 669.91 279.156C669.664 278.903 669.29 278.777 668.788 278.777C668.268 278.777 667.86 278.891 667.565 279.119C667.269 279.346 667.062 279.589 666.942 279.848L665.907 279.479C666.092 279.048 666.338 278.712 666.646 278.472C666.957 278.229 667.295 278.06 667.662 277.964C668.031 277.866 668.394 277.817 668.751 277.817C668.979 277.817 669.241 277.844 669.536 277.9C669.835 277.952 670.122 278.061 670.399 278.228C670.679 278.394 670.912 278.645 671.096 278.98C671.281 279.316 671.373 279.765 671.373 280.328V285H670.284V284.04H670.228C670.155 284.194 670.032 284.358 669.859 284.534C669.687 284.709 669.458 284.858 669.171 284.982C668.885 285.105 668.536 285.166 668.123 285.166ZM668.29 284.188C668.72 284.188 669.084 284.103 669.379 283.934C669.678 283.764 669.902 283.546 670.053 283.278C670.207 283.01 670.284 282.729 670.284 282.433V281.436C670.238 281.491 670.136 281.542 669.979 281.588C669.825 281.632 669.647 281.67 669.444 281.704C669.244 281.735 669.048 281.762 668.857 281.787C668.67 281.808 668.517 281.827 668.4 281.842C668.117 281.879 667.853 281.939 667.606 282.022C667.363 282.102 667.166 282.224 667.015 282.387C666.868 282.547 666.794 282.766 666.794 283.043C666.794 283.421 666.934 283.707 667.214 283.901C667.497 284.092 667.856 284.188 668.29 284.188ZM676.446 277.909V278.832H672.771V277.909H676.446ZM673.842 276.21H674.932V282.969C674.932 283.277 674.976 283.507 675.065 283.661C675.158 283.812 675.275 283.914 675.416 283.966C675.561 284.015 675.713 284.04 675.873 284.04C675.993 284.04 676.092 284.034 676.169 284.021C676.246 284.006 676.307 283.994 676.353 283.984L676.575 284.963C676.501 284.991 676.398 285.018 676.266 285.046C676.133 285.077 675.966 285.092 675.762 285.092C675.455 285.092 675.153 285.026 674.858 284.894C674.565 284.761 674.322 284.56 674.128 284.289C673.937 284.018 673.842 283.677 673.842 283.264V276.21ZM680.981 285.148C680.298 285.148 679.709 284.997 679.213 284.695C678.721 284.391 678.341 283.966 678.073 283.421C677.808 282.873 677.676 282.236 677.676 281.51C677.676 280.784 677.808 280.143 678.073 279.589C678.341 279.032 678.713 278.598 679.19 278.288C679.67 277.974 680.23 277.817 680.871 277.817C681.24 277.817 681.605 277.878 681.965 278.001C682.325 278.125 682.653 278.325 682.948 278.602C683.243 278.875 683.479 279.239 683.654 279.691C683.83 280.143 683.917 280.701 683.917 281.362V281.824H678.452V280.882H682.81C682.81 280.482 682.73 280.125 682.569 279.811C682.413 279.497 682.188 279.249 681.895 279.068C681.606 278.886 681.265 278.795 680.871 278.795C680.437 278.795 680.061 278.903 679.744 279.119C679.43 279.331 679.189 279.608 679.019 279.95C678.85 280.291 678.765 280.657 678.765 281.048V281.676C678.765 282.212 678.858 282.666 679.042 283.038C679.23 283.407 679.49 283.689 679.823 283.883C680.155 284.074 680.541 284.169 680.981 284.169C681.268 284.169 681.526 284.129 681.757 284.049C681.991 283.966 682.192 283.843 682.362 283.68C682.531 283.513 682.662 283.307 682.754 283.061L683.807 283.357C683.696 283.714 683.51 284.027 683.248 284.298C682.986 284.566 682.663 284.775 682.279 284.926C681.894 285.074 681.462 285.148 680.981 285.148ZM690.598 279.497L689.619 279.774C689.557 279.611 689.466 279.453 689.346 279.299C689.23 279.142 689.069 279.012 688.866 278.911C688.663 278.809 688.403 278.759 688.086 278.759C687.652 278.759 687.291 278.859 687.001 279.059C686.715 279.256 686.572 279.506 686.572 279.811C686.572 280.082 686.67 280.296 686.867 280.453C687.064 280.61 687.372 280.741 687.791 280.845L688.843 281.104C689.477 281.258 689.95 281.493 690.261 281.81C690.571 282.124 690.727 282.529 690.727 283.024C690.727 283.43 690.61 283.794 690.376 284.114C690.145 284.434 689.822 284.686 689.406 284.871C688.991 285.055 688.508 285.148 687.957 285.148C687.234 285.148 686.635 284.991 686.161 284.677C685.687 284.363 685.387 283.904 685.261 283.301L686.295 283.043C686.393 283.424 686.58 283.71 686.854 283.901C687.131 284.092 687.492 284.188 687.938 284.188C688.446 284.188 688.849 284.08 689.148 283.864C689.45 283.646 689.6 283.384 689.6 283.08C689.6 282.833 689.514 282.627 689.342 282.461C689.169 282.292 688.905 282.165 688.548 282.082L687.366 281.805C686.717 281.652 686.24 281.413 685.935 281.09C685.633 280.764 685.482 280.356 685.482 279.866C685.482 279.466 685.595 279.112 685.819 278.805C686.047 278.497 686.357 278.255 686.747 278.08C687.141 277.904 687.588 277.817 688.086 277.817C688.788 277.817 689.339 277.971 689.739 278.278C690.142 278.586 690.428 278.992 690.598 279.497Z" fill="#5C5856"/>
<path d="M698.5 283.264C698.128 283.264 697.788 283.173 697.48 282.992C697.172 282.807 696.926 282.561 696.741 282.253C696.56 281.945 696.469 281.605 696.469 281.233C696.469 280.857 696.56 280.517 696.741 280.213C696.926 279.905 697.172 279.66 697.48 279.479C697.788 279.294 698.128 279.202 698.5 279.202C698.875 279.202 699.216 279.294 699.52 279.479C699.828 279.66 700.073 279.905 700.254 280.213C700.439 280.517 700.531 280.857 700.531 281.233C700.531 281.605 700.439 281.945 700.254 282.253C700.073 282.561 699.828 282.807 699.52 282.992C699.216 283.173 698.875 283.264 698.5 283.264Z" fill="#DFD8D3"/>
<path d="M706.48 276.561V275.545H713.571V276.561H710.598V285H709.453V276.561H706.48ZM717.135 285.148C716.452 285.148 715.863 284.997 715.367 284.695C714.875 284.391 714.495 283.966 714.227 283.421C713.962 282.873 713.83 282.236 713.83 281.51C713.83 280.784 713.962 280.143 714.227 279.589C714.495 279.032 714.867 278.598 715.344 278.288C715.824 277.974 716.384 277.817 717.024 277.817C717.394 277.817 717.758 277.878 718.119 278.001C718.479 278.125 718.806 278.325 719.102 278.602C719.397 278.875 719.633 279.239 719.808 279.691C719.984 280.143 720.071 280.701 720.071 281.362V281.824H714.605V280.882H718.963C718.963 280.482 718.883 280.125 718.723 279.811C718.566 279.497 718.342 279.249 718.049 279.068C717.76 278.886 717.418 278.795 717.024 278.795C716.59 278.795 716.215 278.903 715.898 279.119C715.584 279.331 715.342 279.608 715.173 279.95C715.004 280.291 714.919 280.657 714.919 281.048V281.676C714.919 282.212 715.012 282.666 715.196 283.038C715.384 283.407 715.644 283.689 715.976 283.883C716.309 284.074 716.695 284.169 717.135 284.169C717.421 284.169 717.68 284.129 717.911 284.049C718.145 283.966 718.346 283.843 718.516 283.68C718.685 283.513 718.816 283.307 718.908 283.061L719.96 283.357C719.85 283.714 719.664 284.027 719.402 284.298C719.14 284.566 718.817 284.775 718.432 284.926C718.048 285.074 717.615 285.148 717.135 285.148ZM723.815 285.166C723.366 285.166 722.958 285.082 722.592 284.912C722.226 284.74 721.935 284.492 721.719 284.169C721.504 283.843 721.396 283.449 721.396 282.987C721.396 282.581 721.476 282.252 721.636 281.999C721.796 281.744 722.01 281.544 722.278 281.399C722.546 281.254 722.841 281.147 723.164 281.076C723.491 281.002 723.818 280.944 724.148 280.901C724.579 280.845 724.928 280.804 725.196 280.776C725.466 280.745 725.663 280.694 725.786 280.624C725.913 280.553 725.976 280.43 725.976 280.254V280.217C725.976 279.762 725.851 279.408 725.602 279.156C725.356 278.903 724.982 278.777 724.48 278.777C723.96 278.777 723.552 278.891 723.257 279.119C722.961 279.346 722.753 279.589 722.633 279.848L721.599 279.479C721.784 279.048 722.03 278.712 722.338 278.472C722.649 278.229 722.987 278.06 723.354 277.964C723.723 277.866 724.086 277.817 724.443 277.817C724.671 277.817 724.932 277.844 725.228 277.9C725.526 277.952 725.814 278.061 726.091 278.228C726.371 278.394 726.604 278.645 726.788 278.98C726.973 279.316 727.065 279.765 727.065 280.328V285H725.976V284.04H725.92C725.847 284.194 725.723 284.358 725.551 284.534C725.379 284.709 725.149 284.858 724.863 284.982C724.577 285.105 724.228 285.166 723.815 285.166ZM723.981 284.188C724.412 284.188 724.775 284.103 725.071 283.934C725.369 283.764 725.594 283.546 725.745 283.278C725.899 283.01 725.976 282.729 725.976 282.433V281.436C725.93 281.491 725.828 281.542 725.671 281.588C725.517 281.632 725.339 281.67 725.136 281.704C724.936 281.735 724.74 281.762 724.549 281.787C724.362 281.808 724.209 281.827 724.092 281.842C723.809 281.879 723.544 281.939 723.298 282.022C723.055 282.102 722.858 282.224 722.707 282.387C722.56 282.547 722.486 282.766 722.486 283.043C722.486 283.421 722.626 283.707 722.906 283.901C723.189 284.092 723.547 284.188 723.981 284.188ZM729.054 285V277.909H730.106V279.017H730.199C730.346 278.638 730.585 278.345 730.914 278.135C731.244 277.923 731.639 277.817 732.101 277.817C732.568 277.817 732.958 277.923 733.269 278.135C733.583 278.345 733.827 278.638 734.003 279.017H734.077C734.258 278.651 734.53 278.36 734.894 278.145C735.257 277.926 735.692 277.817 736.2 277.817C736.834 277.817 737.353 278.015 737.756 278.412C738.159 278.806 738.361 279.42 738.361 280.254V285H737.271V280.254C737.271 279.731 737.128 279.357 736.842 279.132C736.556 278.908 736.219 278.795 735.831 278.795C735.332 278.795 734.946 278.946 734.672 279.248C734.398 279.546 734.261 279.925 734.261 280.384V285H733.153V280.143C733.153 279.74 733.022 279.416 732.761 279.169C732.499 278.92 732.162 278.795 731.75 278.795C731.467 278.795 731.202 278.871 730.956 279.022C730.713 279.172 730.516 279.382 730.365 279.65C730.217 279.914 730.143 280.22 730.143 280.568V285H729.054ZM745.375 279.497L744.397 279.774C744.335 279.611 744.244 279.453 744.124 279.299C744.007 279.142 743.847 279.012 743.644 278.911C743.441 278.809 743.181 278.759 742.864 278.759C742.43 278.759 742.068 278.859 741.779 279.059C741.493 279.256 741.35 279.506 741.35 279.811C741.35 280.082 741.448 280.296 741.645 280.453C741.842 280.61 742.15 280.741 742.569 280.845L743.621 281.104C744.255 281.258 744.728 281.493 745.038 281.81C745.349 282.124 745.505 282.529 745.505 283.024C745.505 283.43 745.388 283.794 745.154 284.114C744.923 284.434 744.6 284.686 744.184 284.871C743.769 285.055 743.286 285.148 742.735 285.148C742.011 285.148 741.413 284.991 740.939 284.677C740.465 284.363 740.165 283.904 740.039 283.301L741.073 283.043C741.171 283.424 741.357 283.71 741.631 283.901C741.908 284.092 742.27 284.188 742.716 284.188C743.224 284.188 743.627 284.08 743.926 283.864C744.227 283.646 744.378 283.384 744.378 283.08C744.378 282.833 744.292 282.627 744.12 282.461C743.947 282.292 743.683 282.165 743.326 282.082L742.144 281.805C741.494 281.652 741.017 281.413 740.713 281.09C740.411 280.764 740.26 280.356 740.26 279.866C740.26 279.466 740.373 279.112 740.597 278.805C740.825 278.497 741.134 278.255 741.525 278.08C741.919 277.904 742.365 277.817 742.864 277.817C743.566 277.817 744.117 277.971 744.517 278.278C744.92 278.586 745.206 278.992 745.375 279.497Z" fill="#5C5856"/>
</g>
<defs>
<linearGradient id="paint0_linear_5005_5272" x1="86.9261" y1="213.307" x2="681.377" y2="213.307" gradientUnits="userSpaceOnUse">
<stop stop-color="#9B5D00"/>
<stop offset="0.332994" stop-color="#006D8E"/>
<stop offset="0.669043" stop-color="#0055B0"/>
<stop offset="1" stop-color="#4B2AAD"/>
</linearGradient>
<clipPath id="clip0_5005_5272">
<rect width="768" height="326" fill="white"/>
</clipPath>
</defs>
</svg>
