<svg width="52" height="52" viewBox="0 0 52 52" fill="none" xmlns="http://www.w3.org/2000/svg">
<circle cx="26" cy="26" r="26" fill="#F5EFEB"/>
<path d="M33 34.4285H19C18.4696 34.4285 17.9609 34.2178 17.5858 33.8427C17.2107 33.4676 17 32.9589 17 32.4285V20.4285C17 19.898 17.2107 19.3893 17.5858 19.0143C17.9609 18.6392 18.4696 18.4285 19 18.4285H29C29.5304 18.4285 30.0391 18.6392 30.4142 19.0143C30.7893 19.3893 31 19.898 31 20.4285V21.4285M33 34.4285C32.4696 34.4285 31.9609 34.2178 31.5858 33.8427C31.2107 33.4676 31 32.9589 31 32.4285V21.4285M33 34.4285C33.5304 34.4285 34.0391 34.2178 34.4142 33.8427C34.7893 33.4676 35 32.9589 35 32.4285V23.4285C35 22.898 34.7893 22.3893 34.4142 22.0143C34.0391 21.6392 33.5304 21.4285 33 21.4285H31M27 18.4285H23M21 30.4285H27M21 22.4285H27V26.4285H21V22.4285Z" stroke="#9C8881" stroke-width="2" stroke-linecap="round" stroke-linejoin="round"/>
</svg>
