<svg width="52" height="52" viewBox="0 0 52 52" fill="none" xmlns="http://www.w3.org/2000/svg">
<rect width="52" height="52" rx="26" fill="#F5EFEB"/>
<path d="M18.5 26L20.1667 24.3333M20.1667 24.3333L26 18.5L31.8333 24.3333M20.1667 24.3333V32.6667C20.1667 32.8877 20.2545 33.0996 20.4107 33.2559C20.567 33.4122 20.779 33.5 21 33.5H23.5C23.721 33.5 23.933 33.4122 24.0893 33.2559C24.2455 33.0996 24.3333 32.8877 24.3333 32.6667V29.3333C24.3333 29.1123 24.4211 28.9004 24.5774 28.7441C24.7337 28.5878 24.9457 28.5 25.1667 28.5H26.8333C27.0543 28.5 27.2663 28.5878 27.4226 28.7441C27.5789 28.9004 27.6667 29.1123 27.6667 29.3333V32.6667C27.6667 32.8877 27.7545 33.0996 27.9107 33.2559C28.067 33.4122 28.279 33.5 28.5 33.5H31C31.221 33.5 31.433 33.4122 31.5893 33.2559C31.7455 33.0996 31.8333 32.8877 31.8333 32.6667V24.3333M31.8333 24.3333L33.5 26" stroke="#9C8881" stroke-width="2" stroke-linecap="round" stroke-linejoin="round"/>
</svg>
